<svg width="221" height="352" viewBox="0 0 221 352" fill="none" xmlns="http://www.w3.org/2000/svg">
<g id="Frame 675508" clip-path="url(#clip0_1388_63876)">
<g id="Layer 3">
<path id="Vector" d="M79.0141 222.764L82.7441 111.542C82.9574 106.287 84.9262 101.255 88.3355 97.2519L126.819 51.4523L117.014 43.9898C110.607 40.1503 101.863 41.5071 97.224 47.0571L51.858 101.474C48.4493 105.474 46.4827 110.504 46.2738 115.757L42.5366 226.986C42.3057 233.835 46.9375 240.057 54.145 242.575L170.525 277.123C178.115 279.375 186.398 275.767 189.046 269.055C189.216 268.609 189.358 268.154 189.471 267.691L90.6298 238.346C83.4079 235.82 78.7833 229.606 79.0141 222.764Z" fill="url(#paint0_linear_1388_63876)"/>
<path id="Vector_2" d="M108.955 41.8104C111.78 41.7924 114.558 42.5406 116.992 43.9756L126.818 51.4525L178.678 94.1343C186.015 99.4822 189.875 106.403 189.81 114.284L189.868 264.833C189.868 265.807 189.741 266.778 189.492 267.72C189.379 268.183 189.237 268.638 189.067 269.084C186.96 274.439 181.253 277.824 175.171 277.824C173.605 277.824 172.048 277.598 170.547 277.152L54.1446 242.575C46.9299 240.057 42.3053 233.835 42.5362 226.986L46.2734 115.757C46.4824 110.504 48.4489 105.475 51.8576 101.474L97.2381 47.0573C98.6983 45.381 100.506 44.0432 102.536 43.1371C104.566 42.231 106.768 41.7782 108.991 41.8104H108.955ZM111.667 15.3021C100.449 15.4681 92.3898 24.4245 86.0553 31.9014L39.1597 87.0255C33.0473 94.0876 29.5028 103.01 29.1024 112.343L24.6149 225.651C24.0233 240.454 33.5755 253.921 48.4234 259.16L48.8346 259.305L49.2459 259.427L173.288 300.889C176.47 301.841 179.772 302.329 183.093 302.34C196.866 302.419 212.479 293.55 217.341 281.468C217.791 280.341 218.169 279.186 218.474 278.011C219.12 275.6 219.457 273.117 219.477 270.621L221.454 117.446C221.612 103.877 216.714 89.6958 204.86 80.8044L135.26 22.5408C128.396 17.6173 120.11 15.0751 111.667 15.3021Z" fill="url(#paint1_linear_1388_63876)"/>
</g>
<g id="Layer 3_2">
<path id="Vector_3" opacity="0.37" d="M38.0234 157.631L74.9449 55.3136C74.9449 55.3136 85.3786 48.7319 130.62 89.8849C148.788 133.832 184.25 137.159 184.537 170.161C189.349 205.428 192.412 202.452 192.412 202.452L171.909 222.375L92.8253 224.655L38.0234 157.631Z" fill="url(#paint2_radial_1388_63876)"/>
<path id="Vector_4" d="M113.917 118.596C117.64 118.596 120.657 114.924 120.657 110.393C120.657 105.862 117.64 102.19 113.917 102.19C110.195 102.19 107.178 105.862 107.178 110.393C107.178 114.924 110.195 118.596 113.917 118.596Z" fill="white" fill-opacity="0.6"/>
<path id="Vector_5" d="M77.5903 221.09C77.5903 221.09 41.4469 217.476 34.4085 223.213C27.37 228.95 28.0099 235.535 29.9294 242.121C31.849 248.706 68.2095 288.748 68.2095 288.748L47.9512 355.231C47.9512 355.231 55.201 357.781 64.388 361.816C83.0379 370.003 94.3264 386.378 94.3264 386.378L108.192 325.405L122.157 290.672C122.157 290.672 151.057 280.508 159.487 275.578C174.996 266.496 178.195 259.01 178.195 259.01L178.677 253.115L77.5903 221.09Z" fill="url(#paint3_linear_1388_63876)"/>
<path id="Vector_6" d="M122.095 290.282L97.8008 307.745C97.8008 307.745 110.135 311.959 118.003 307.745C125.871 303.532 122.095 290.282 122.095 290.282Z" fill="#FFC3B0"/>
<path id="Vector_7" d="M60.8789 213.521C60.8789 213.521 87.5765 221.181 95.087 228.287C106.382 238.994 100.415 251.515 100.415 251.515C100.415 251.515 124.824 243.702 142.403 250.012C171.589 260.494 182.778 251.609 182.778 251.609L178.219 215.277L60.8789 213.521Z" fill="url(#paint4_linear_1388_63876)"/>
<path id="Vector_8" d="M139.407 115.081C139.407 115.081 157.645 121.145 169.324 126.893C191.719 137.907 188.032 148.12 198.601 191.171L171.18 227.584L109.977 207.822L103.576 181.217C103.576 181.217 37.1533 197.686 74.7453 153.094C80.6641 146.092 139.407 115.081 139.407 115.081Z" fill="url(#paint5_linear_1388_63876)"/>
<path id="Vector_9" d="M102.475 158.054C101.236 167.11 102.111 176.083 104.141 184.939C105.045 188.865 106.114 192.745 107.052 196.677C107.513 198.584 107.945 200.503 108.303 202.44C108.479 203.39 108.638 204.341 108.775 205.292C108.877 206.014 108.775 207.094 109.514 207.475C109.787 207.622 110.39 207.81 110.617 207.475C110.845 207.141 110.515 206.8 110.321 206.577C109.907 206.126 109.466 205.7 109.002 205.304C108.724 205.057 108.195 204.717 108.041 204.365C107.888 204.012 107.399 204.324 107.547 204.664C107.703 204.915 107.906 205.133 108.144 205.304C108.519 205.656 108.9 205.99 109.281 206.336C109.44 206.495 109.605 206.648 109.759 206.812C109.821 206.876 110.037 207.217 110.105 207.229C110.174 207.24 110.276 207.129 110.236 207.064C110.196 207 109.98 207.023 109.929 207.006C109.452 206.794 109.463 206.125 109.4 205.644C108.884 202.124 108.177 198.637 107.285 195.198C105.471 187.868 103.413 180.584 102.737 173.02C102.275 168.093 102.38 163.126 103.049 158.225C103.101 157.855 102.555 157.696 102.481 158.066L102.475 158.054Z" fill="#232426"/>
<g id="Group 675440">
<path id="Vector_10" d="M46.2541 72.306C65.5124 72.306 81.1243 64.0423 81.1243 53.8485C81.1243 43.6546 65.5124 35.3909 46.2541 35.3909C26.9957 35.3909 11.3838 43.6546 11.3838 53.8485C11.3838 64.0423 26.9957 72.306 46.2541 72.306Z" fill="url(#paint6_linear_1388_63876)"/>
<g id="Group 675438">
<path id="Vector_11" d="M23.9869 53.2851V57.0709H21.3467V45.9377H23.0131C23.6299 45.9377 24.2521 45.9377 24.8797 45.9377C26.5028 45.9377 27.6931 46.2871 28.4397 46.9807C28.8079 47.3208 29.0971 47.7323 29.2883 48.188C29.4795 48.6437 29.5683 49.1333 29.5488 49.6245C29.5567 50.1214 29.4563 50.6145 29.2541 51.0717C29.0519 51.5289 28.7523 51.9401 28.3748 52.2787C27.9555 52.6427 27.4659 52.9236 26.934 53.1052C26.402 53.2869 25.8382 53.3657 25.2746 53.3372C24.8448 53.3413 24.415 53.3239 23.9869 53.2851ZM25.1394 48.2895H24.9933H24.5821H23.9869V50.8342C24.3872 50.8825 24.7901 50.9086 25.1935 50.9125C25.5939 50.9287 25.9872 50.8067 26.3026 50.5683C26.4564 50.4406 26.5764 50.2793 26.6526 50.0979C26.7288 49.9166 26.7591 49.7203 26.7408 49.5254C26.7408 48.7223 26.2106 48.2895 25.1394 48.2895Z" fill="white" fill-opacity="0.8"/>
<path id="Vector_12" d="M35.624 50.0396H38.3415L35.5405 57.3443C35.2289 58.2719 34.7727 59.142 34.1896 59.9212C34.0097 60.1316 33.7875 60.2999 33.5382 60.4147C33.2889 60.5296 33.0183 60.5882 32.7447 60.5867C32.118 60.5807 31.5143 60.3444 31.0443 59.9212L31.8058 58.0844C32.0016 58.2416 32.2404 58.3328 32.4891 58.3452C32.7864 58.3452 33.0107 58.1429 33.1724 57.7436L33.3341 57.355L30.1367 50.0502H33.016L34.2417 53.3938C34.3494 53.7236 34.4382 54.0596 34.5077 54.4C34.5378 54.0547 34.5972 53.7127 34.6851 53.3778L35.624 50.0396Z" fill="white" fill-opacity="0.8"/>
<path id="Vector_13" d="M39.5244 54.1289V47.6953H41.9344V49.6901H43.9437V51.92H41.9344V54.0088C41.9344 54.531 42.0927 54.8078 42.4038 54.8078C42.7913 54.7832 43.1608 54.6368 43.4585 54.39L44.2021 56.249C43.5251 56.812 42.6594 57.1027 41.7762 57.0637C41.4524 57.0906 41.1268 57.0385 40.828 56.912C40.5292 56.7854 40.2663 56.5883 40.0623 56.3378C39.6533 55.6757 39.4651 54.9029 39.5244 54.1289Z" fill="white" fill-opacity="0.8"/>
<path id="Vector_14" d="M47.749 57.0709H45.375V45.9377H47.749V50.4066C48.2326 49.9819 48.8596 49.7598 49.5011 49.7861C49.8904 49.7624 50.2806 49.8185 50.6477 49.9512C51.0148 50.0839 51.3513 50.2903 51.6367 50.5579C51.9096 50.8739 52.1174 51.2413 52.2482 51.6387C52.379 52.0361 52.4301 52.4557 52.3986 52.8731V57.0448H50.0246V53.1495C50.0317 52.9945 50.0074 52.8396 49.953 52.6944C49.8986 52.5491 49.8154 52.4165 49.7084 52.3047C49.6002 52.199 49.4719 52.1162 49.3312 52.0616C49.1904 52.0069 49.0402 51.9814 48.8894 51.9867C48.6779 51.9819 48.4677 52.0206 48.2717 52.1004C48.0756 52.1802 47.8978 52.2994 47.749 52.4508V57.0709Z" fill="white" fill-opacity="0.8"/>
<path id="Vector_15" d="M54.6986 56.5916C53.9801 55.853 53.5791 54.8701 53.5791 53.8478C53.5791 52.8255 53.9801 51.8427 54.6986 51.104C55.0988 50.7398 55.5693 50.4584 56.0822 50.2766C56.5951 50.0947 57.14 50.0162 57.6843 50.0457C58.2264 50.0153 58.769 50.0935 59.2794 50.2754C59.7899 50.4573 60.2575 50.7392 60.6539 51.104C61.3786 51.8395 61.7839 52.8236 61.7839 53.8478C61.7839 54.8721 61.3786 55.8561 60.6539 56.5916C60.258 56.9572 59.7905 57.2396 59.2799 57.4216C58.7694 57.6035 58.2264 57.6812 57.6843 57.65C57.1399 57.6803 56.5948 57.6022 56.0817 57.4204C55.5687 57.2385 55.0982 56.9566 54.6986 56.5916ZM56.2049 53.8505C56.1909 54.2639 56.3414 54.6664 56.6245 54.9723C56.7599 55.1194 56.9264 55.2354 57.1123 55.3122C57.2982 55.389 57.499 55.4247 57.7005 55.4168C57.9006 55.4253 58.1002 55.3914 58.2858 55.3175C58.4714 55.2436 58.6387 55.1313 58.7764 54.9882C59.0446 54.6708 59.1914 54.2711 59.1914 53.8584C59.1914 53.4457 59.0446 53.046 58.7764 52.7286C58.6416 52.581 58.4751 52.4646 58.2891 52.3877C58.1031 52.3108 57.9021 52.2755 57.7005 52.2841C57.5004 52.276 57.3009 52.31 57.1154 52.3839C56.9298 52.4579 56.7624 52.57 56.6245 52.7127C56.3374 53.0226 56.1866 53.4316 56.2049 53.8505Z" fill="white" fill-opacity="0.8"/>
<path id="Vector_16" d="M65.9191 57.6567H63.542V50.1768H65.9191V50.7547C66.1511 50.5183 66.4259 50.3333 66.7272 50.2106C67.0286 50.088 67.3503 50.0301 67.6734 50.0405C69.6076 50.0405 70.5747 51.0945 70.5747 53.2026V57.6567H68.1976V53.6333C68.2087 53.4634 68.1873 53.2929 68.1347 53.1319C68.0821 52.9708 67.9994 52.8225 67.8914 52.6955C67.7755 52.5821 67.639 52.4947 67.49 52.4384C67.341 52.3822 67.1826 52.3584 67.0246 52.3684C66.8149 52.3764 66.6088 52.4287 66.4188 52.5224C66.2289 52.6161 66.0589 52.7492 65.9191 52.9136V57.6567Z" fill="white" fill-opacity="0.8"/>
</g>
</g>
<path id="Vector_17" d="M145.717 112.342C146.588 112.651 147.529 112.711 148.433 112.514C149.336 112.317 150.166 111.871 150.826 111.228C151.487 110.585 151.952 109.769 152.168 108.876C152.384 107.982 152.342 107.046 152.048 106.175C151.507 104.588 150.192 103.38 149.487 101.858C148.207 99.098 149.123 95.895 149.569 92.8845C150.239 88.3338 149.634 83.3338 146.633 79.8216C143.632 76.3093 137.823 75.0083 134.253 77.9196C131.939 76.1022 129.144 74.9896 126.207 74.7163C123.27 74.4429 120.316 75.0206 117.703 76.3794C117.306 76.6339 116.866 76.8139 116.405 76.9103C115.736 76.9238 115.075 76.7607 114.49 76.4377C112.34 75.5393 110.017 75.1233 107.686 75.2193C105.355 75.3152 103.075 75.9208 101.007 76.9929C98.9387 78.0649 97.1342 79.577 95.722 81.4213C94.3098 83.2657 93.3245 85.3968 92.8365 87.6628C92.1964 90.6558 92.4959 93.958 94.2167 96.4959C95.9375 99.0338 99.2263 100.615 102.204 99.8273C101.335 102.884 103.737 106.198 106.797 107.132C109.856 108.065 113.222 107.085 115.935 105.381C116.816 104.833 117.697 104.185 118.76 104.174C119.634 104.247 120.473 104.549 121.191 105.049L132.056 111.286C133.571 112.155 135.139 113.036 136.878 113.264C139.409 113.59 141.958 112.453 144.513 112.779" fill="#1E2022"/>
<path id="Vector_18" d="M99.67 199.803L152.888 218.442L105.047 235.537C104.484 235.74 103.885 235.821 103.288 235.775C102.692 235.73 102.112 235.558 101.586 235.272L51.501 207.991L96.5478 199.561C97.5917 199.366 98.668 199.45 99.67 199.803Z" fill="#86B7A4"/>
<path id="Vector_19" d="M131.307 226.291C131.307 226.291 139.923 220.315 144.465 225.843C149.007 231.372 151.479 235.752 161.305 239.184C167.893 241.356 174.703 242.772 181.606 243.405L179.034 211.178C179.034 211.178 90.7696 210.901 121.165 227.833C122.077 228.357 131.751 226.573 131.307 226.291Z" fill="#232426"/>
<path id="Vector_20" d="M164.643 183.638C164.643 183.638 165.373 199.021 161.409 204.092C157.253 209.402 147.615 209.541 147.615 209.541L181.606 212.935C181.606 212.935 168.799 185.796 164.643 183.638Z" fill="#232426"/>
<path id="Vector_21" d="M108.348 97.9594C109.243 103.153 111.499 108.656 113.36 113.594C115.221 118.531 118.202 122.431 120.699 126.448C121.712 128.08 123.756 128.878 124.787 130.499C125.617 131.811 126.006 133.338 126.554 134.789C127.266 136.754 129.275 133.041 130.494 134.737C130.759 135.11 131.866 130.219 132.261 130.452C132.915 130.843 133.38 135.454 133.062 136.964C135.707 138.392 142.551 135.658 145.737 131.642C148.924 127.625 150.373 124.104 151.716 119.207C149.425 115.797 147.051 112.399 145.614 108.563C145.514 108.289 146.103 108.26 146.108 107.98C146.148 107.627 146.252 107.283 146.415 106.966C147.334 104.413 146.527 101.597 145.59 99.0553C145.281 98.0213 144.764 97.0596 144.07 96.2281C143.717 95.8146 143.255 95.5066 142.734 95.3388C142.214 95.171 141.657 95.1499 141.125 95.2779C140.059 95.616 139.417 96.7002 139.093 97.7612C138.77 98.8221 138.669 99.9647 138.186 100.962C137.703 101.958 136.661 102.833 135.554 102.646C134.943 102.498 134.395 102.164 133.987 101.69C131.66 99.306 130.906 95.6043 128.203 93.6515C126.457 92.4997 124.344 92.0226 122.266 92.3107C120.198 92.5264 118.343 94.1411 116.276 93.9429C114.008 93.7273 112.742 94.042 111.275 94.8348C110.38 95.3303 108.595 96.8984 108.389 97.8953" fill="#FFC3B0"/>
<path id="Vector_22" d="M117.14 124.676C117.14 124.676 121.278 123.667 126.464 125.97C131.649 128.272 132.376 133.749 132.376 133.749C132.4 135.16 132.038 136.55 131.329 137.769C130.62 138.988 129.592 139.989 128.356 140.661C124.028 142.97 117.14 124.676 117.14 124.676Z" fill="#232426"/>
<path id="Vector_23" d="M164.428 183.935C164.428 183.935 165.75 181.162 176.542 176.025C187.334 170.889 194.335 172.887 194.335 172.887C194.335 172.887 200.389 195.219 201.816 211.115C203.115 225.613 200.231 228.815 193.042 229.621C181.601 230.896 168.979 228.016 153.04 224.496C147.144 227.058 143.868 222.527 140.458 223.097C137.048 223.667 133.924 227.664 130.801 226.524C127.677 225.383 129.385 224.525 131.088 223.097C132.79 221.669 136.767 219.677 136.767 219.677C136.767 219.677 131.655 219.677 128.245 223.097C124.835 226.518 122.571 229.38 120.015 227.382C117.459 225.383 118.594 223.955 118.594 223.955C118.594 223.955 114.049 223.673 114.903 220.817L115.751 217.967C115.751 217.967 115.47 216.251 118.307 212.543C121.144 208.835 126.829 205.409 131.941 204.839C137.054 204.269 140.791 208.694 147.307 209.446C154.689 210.304 175.243 206.137 175.243 206.137C176.629 202.37 168.891 196.746 164.428 183.935Z" fill="#FFC3B0"/>
<path id="Vector_24" d="M43.8828 165.473C44.4685 164.624 51.7079 155.16 72.4653 144.148C93.2228 133.136 104.404 128.529 109.951 126.644C115.497 124.76 117.114 123.812 121.079 124.946C125.044 126.08 129.607 129.46 128.758 131.438C127.908 133.416 125.63 135.108 125.63 135.108C125.63 135.108 128.371 138.732 126.837 141.111C125.7 142.857 124.207 143.299 122.215 144.148C121.36 145.631 120.458 146.76 116.171 147.609C111.883 148.458 110.841 146.69 111.409 145.282C111.977 143.875 111.766 144.293 111.766 144.293C111.766 144.293 109.394 147.673 103.707 148.522C98.0198 149.372 97.4868 146.777 97.4868 146.777C97.4868 146.777 85.0815 160.028 82.8031 163.42C80.5247 166.811 83.8281 164.769 83.8281 164.769L43.8828 165.473Z" fill="#FFC3B0"/>
<path id="Vector_25" d="M119.385 223.968C123.674 218.672 129.497 213.718 136.777 214.136C137.164 214.136 137.158 213.547 136.777 213.547C129.348 213.118 123.346 218.166 118.969 223.551C118.731 223.845 119.147 224.263 119.385 223.968Z" fill="#232426"/>
<path id="Vector_26" d="M114.756 220.996C117.961 214.619 124.675 211.395 131.008 208.857C131.359 208.715 131.204 208.141 130.847 208.266C124.372 210.868 117.515 214.181 114.245 220.689C114.073 221.032 114.584 221.328 114.756 220.99V220.996Z" fill="#232426"/>
<path id="Vector_27" d="M120.448 223.57H120.696C120.773 223.57 120.631 223.57 120.696 223.57C120.799 223.592 120.9 223.623 120.997 223.662C121.062 223.662 120.962 223.662 120.997 223.662L121.074 223.699L121.21 223.784L121.275 223.827H121.31L121.428 223.937L121.535 224.047L121.588 224.115L121.617 224.151C121.676 224.244 121.729 224.34 121.777 224.439C121.777 224.5 121.777 224.39 121.777 224.439C121.779 224.463 121.779 224.488 121.777 224.512C121.796 224.568 121.812 224.626 121.824 224.684C121.827 224.708 121.827 224.733 121.824 224.757C121.824 224.843 121.824 224.696 121.824 224.757C121.824 224.818 121.824 224.879 121.824 224.935C121.823 224.975 121.83 225.015 121.845 225.053C121.859 225.09 121.881 225.124 121.909 225.153C121.936 225.181 121.969 225.204 122.005 225.219C122.042 225.234 122.08 225.241 122.119 225.24C122.197 225.239 122.271 225.206 122.326 225.149C122.381 225.092 122.413 225.015 122.415 224.935C122.409 224.661 122.352 224.392 122.246 224.142C122.14 223.891 121.988 223.665 121.797 223.476C121.607 223.287 121.383 223.138 121.137 223.039C120.891 222.94 120.629 222.891 120.366 222.897C120.288 222.899 120.214 222.931 120.158 222.989C120.103 223.046 120.072 223.122 120.07 223.203C120.07 223.284 120.101 223.362 120.157 223.419C120.212 223.477 120.287 223.509 120.366 223.509L120.448 223.57Z" fill="#232426"/>
<path id="Vector_28" d="M130.945 223.463H131.121L131.322 223.523C131.369 223.523 131.271 223.523 131.322 223.523H131.369L131.467 223.583C131.493 223.608 131.52 223.63 131.55 223.649C131.498 223.622 131.55 223.649 131.55 223.649L131.596 223.693L131.674 223.781L131.71 223.82C131.71 223.82 131.741 223.88 131.71 223.82C131.746 223.886 131.793 223.946 131.829 224.012V224.061V224.094L131.86 224.199C131.863 224.235 131.863 224.272 131.86 224.309C131.86 224.369 131.86 224.254 131.86 224.309C131.863 224.332 131.863 224.356 131.86 224.38C131.86 224.453 131.887 224.523 131.936 224.574C131.984 224.626 132.05 224.655 132.119 224.655C132.187 224.653 132.252 224.624 132.3 224.573C132.348 224.521 132.376 224.452 132.377 224.38C132.353 223.976 132.185 223.597 131.906 223.321C131.627 223.045 131.259 222.893 130.878 222.897C130.81 222.898 130.745 222.928 130.696 222.979C130.648 223.03 130.62 223.099 130.619 223.171C130.62 223.244 130.648 223.313 130.696 223.364C130.745 223.415 130.81 223.445 130.878 223.446L130.945 223.463Z" fill="#232426"/>
<path id="Vector_29" d="M116.505 219.65C116.735 219.488 117.013 219.391 117.303 219.373C117.593 219.355 117.883 219.415 118.135 219.547C118.377 219.681 118.573 219.874 118.699 220.105C118.826 220.336 118.878 220.595 118.85 220.852C118.85 220.928 118.883 221.001 118.942 221.055C119.001 221.109 119.08 221.139 119.164 221.139C119.247 221.139 119.326 221.109 119.385 221.055C119.444 221.001 119.477 220.928 119.477 220.852C119.511 220.478 119.422 220.103 119.223 219.774C119.024 219.446 118.722 219.178 118.356 219.006C117.991 218.834 117.578 218.765 117.169 218.807C116.76 218.849 116.374 219.001 116.06 219.243C116.001 219.297 115.968 219.37 115.968 219.447C115.968 219.523 116.001 219.596 116.06 219.65C116.119 219.704 116.199 219.734 116.283 219.734C116.366 219.734 116.446 219.704 116.505 219.65Z" fill="#232426"/>
<path id="Vector_30" d="M160.79 207.584C165.268 207.172 169.674 206.473 174.14 205.82C177.054 205.397 180.063 205.036 182.959 205.591C184.973 205.969 187.354 206.616 188.728 208.157C188.977 208.432 189.397 208.025 189.149 207.75C187.887 206.347 185.885 205.694 184.073 205.248C182.701 204.908 181.29 204.734 179.873 204.732C176.474 204.732 173.08 205.414 169.733 205.918C166.772 206.364 163.781 206.737 160.79 207.012C160.417 207.046 160.411 207.618 160.79 207.584Z" fill="#232426"/>
<path id="Vector_31" d="M119.578 129.089C122.802 131.036 125.261 134.096 126.524 137.734C126.643 138.086 127.193 137.933 127.091 137.575C125.787 133.792 123.235 130.607 119.885 128.584C119.821 128.554 119.748 128.55 119.681 128.572C119.615 128.594 119.558 128.641 119.523 128.704C119.488 128.767 119.476 128.841 119.49 128.912C119.505 128.983 119.544 129.046 119.601 129.089H119.578Z" fill="#232426"/>
<path id="Vector_32" d="M124.125 131.877C124.163 131.811 124.204 131.749 124.248 131.688C124.306 131.615 124.365 131.543 124.429 131.476L124.526 131.385L124.568 131.342C124.643 131.287 124.713 131.233 124.793 131.184L125.012 131.063L125.076 131.032L125.194 130.99L125.445 130.923H125.498H125.525H125.664C125.735 130.923 125.803 130.891 125.853 130.834C125.903 130.777 125.931 130.7 125.931 130.619C125.931 130.539 125.903 130.461 125.853 130.404C125.803 130.347 125.735 130.315 125.664 130.315C125.258 130.337 124.861 130.466 124.507 130.693C124.152 130.919 123.849 131.238 123.622 131.622C123.587 131.691 123.578 131.773 123.596 131.851C123.614 131.928 123.658 131.994 123.719 132.035C123.781 132.073 123.854 132.083 123.922 132.063C123.991 132.043 124.05 131.993 124.087 131.925L124.125 131.877Z" fill="#232426"/>
<path id="Vector_33" d="M120.722 131.991C121.901 133.134 122.759 134.578 123.208 136.172C123.656 137.767 123.678 139.455 123.272 141.062C123.252 141.141 123.263 141.225 123.304 141.296C123.345 141.367 123.412 141.418 123.49 141.439C123.568 141.46 123.65 141.448 123.72 141.406C123.789 141.365 123.839 141.297 123.86 141.217C124.295 139.51 124.274 137.716 123.8 136.02C123.326 134.324 122.415 132.788 121.163 131.572C120.887 131.308 120.47 131.727 120.746 131.991H120.722Z" fill="#232426"/>
<path id="Vector_34" d="M118.928 133.67C121.372 137.012 123.229 141.097 121.914 145.188C121.796 145.554 122.394 145.707 122.538 145.341C123.909 141.103 122.033 136.841 119.496 133.375C119.265 133.063 118.723 133.375 118.953 133.67H118.928Z" fill="#232426"/>
<path id="Vector_35" d="M111.282 146.519C111.342 146.103 111.513 145.708 111.779 145.368C112.044 145.029 112.397 144.756 112.804 144.574C113.247 144.391 113.735 144.323 114.217 144.376C114.698 144.429 115.155 144.602 115.54 144.877C115.848 145.095 116.144 144.607 115.842 144.395C115.393 144.082 114.864 143.883 114.307 143.817C113.75 143.752 113.185 143.822 112.666 144.021C112.147 144.22 111.693 144.541 111.349 144.953C111.005 145.364 110.782 145.852 110.702 146.367C110.683 146.439 110.695 146.515 110.734 146.58C110.773 146.644 110.837 146.693 110.914 146.715C110.991 146.732 111.072 146.722 111.14 146.685C111.209 146.649 111.26 146.589 111.282 146.519Z" fill="#232426"/>
<path id="Vector_36" d="M115.392 144.093C115.306 143.317 115.495 142.536 115.928 141.876C115.968 141.811 115.978 141.733 115.958 141.66C115.938 141.588 115.889 141.525 115.821 141.487C115.753 141.45 115.672 141.439 115.596 141.459C115.521 141.478 115.456 141.525 115.416 141.59C114.931 142.337 114.721 143.218 114.82 144.093C114.823 144.168 114.855 144.239 114.91 144.292C114.966 144.345 115.04 144.376 115.118 144.379C115.197 144.379 115.273 144.349 115.329 144.295C115.384 144.242 115.416 144.169 115.416 144.093H115.392Z" fill="#232426"/>
<path id="Vector_37" d="M115.515 141.466C113.806 142.43 111.827 142.781 109.898 142.462C109.52 142.395 109.357 142.982 109.736 143.073C111.821 143.433 113.964 143.062 115.816 142.022C115.85 142.002 115.88 141.975 115.904 141.943C115.929 141.911 115.946 141.875 115.957 141.836C115.967 141.797 115.97 141.756 115.965 141.717C115.96 141.677 115.947 141.638 115.927 141.603C115.907 141.568 115.881 141.538 115.85 141.513C115.818 141.488 115.782 141.47 115.744 141.46C115.706 141.449 115.666 141.447 115.627 141.452C115.588 141.457 115.55 141.47 115.515 141.49V141.466Z" fill="#232426"/>
<path id="Vector_38" d="M112.762 146.826H112.895C112.895 146.826 112.933 146.826 112.895 146.826H112.961C113.046 146.84 113.129 146.862 113.21 146.892L113.337 146.939H113.381H113.42C113.498 146.977 113.574 147.021 113.647 147.07L113.752 147.135L113.807 147.183C113.873 147.242 113.94 147.302 114.001 147.367C114.061 147.433 114.117 147.498 114.172 147.569C114.144 147.569 114.172 147.569 114.172 147.569C114.188 147.587 114.201 147.607 114.211 147.629C114.238 147.666 114.262 147.706 114.283 147.748C114.321 147.816 114.382 147.865 114.453 147.885C114.524 147.905 114.6 147.894 114.664 147.855C114.726 147.814 114.771 147.749 114.788 147.673C114.806 147.598 114.795 147.518 114.758 147.45C114.546 147.07 114.249 146.751 113.896 146.522C113.542 146.293 113.141 146.161 112.729 146.137C112.692 146.136 112.656 146.143 112.622 146.158C112.588 146.172 112.557 146.194 112.532 146.222C112.506 146.25 112.485 146.283 112.472 146.319C112.458 146.356 112.451 146.395 112.452 146.434C112.454 146.512 112.483 146.587 112.535 146.642C112.586 146.698 112.656 146.73 112.729 146.731L112.762 146.826Z" fill="#232426"/>
<path id="Vector_39" d="M116.819 132.074H114.531C114.447 132.075 114.366 132.107 114.306 132.161C114.246 132.216 114.212 132.29 114.21 132.367C114.21 132.445 114.244 132.519 114.304 132.574C114.364 132.629 114.446 132.66 114.531 132.66H116.819C116.904 132.66 116.986 132.629 117.046 132.574C117.106 132.519 117.14 132.445 117.14 132.367C117.14 132.289 117.106 132.215 117.046 132.16C116.986 132.105 116.904 132.074 116.819 132.074Z" fill="#232426"/>
<path id="Vector_40" d="M116.995 129.654L116.41 129.192C116.341 129.145 116.259 129.132 116.182 129.156C116.109 129.182 116.046 129.24 116.007 129.32C115.968 129.404 115.958 129.504 115.978 129.597C116.001 129.685 116.049 129.76 116.112 129.811L116.697 130.266C116.731 130.291 116.769 130.307 116.808 130.313C116.847 130.319 116.887 130.315 116.925 130.302C116.998 130.276 117.061 130.218 117.101 130.138C117.12 130.098 117.132 130.053 117.137 130.006C117.142 129.96 117.14 129.913 117.13 129.868C117.106 129.78 117.059 129.705 116.995 129.654Z" fill="#232426"/>
<path id="Vector_41" d="M139.392 212.822H139.432L139.524 212.79H139.563H139.616C139.682 212.772 139.754 212.761 139.827 212.759C139.827 212.759 139.761 212.759 139.827 212.759H140.084C140.163 212.759 140.037 212.759 140.084 212.759H140.13L140.334 212.79C140.373 212.79 140.334 212.79 140.334 212.79H140.38L140.472 212.818L140.558 212.853C140.604 212.853 140.558 212.853 140.558 212.853L140.61 212.881C140.673 212.916 140.755 212.936 140.841 212.936C140.926 212.936 141.009 212.916 141.071 212.881C141.102 212.863 141.126 212.841 141.143 212.817C141.16 212.793 141.168 212.767 141.168 212.741C141.168 212.715 141.16 212.689 141.143 212.665C141.126 212.641 141.102 212.62 141.071 212.601C140.777 212.443 140.397 212.354 140.002 212.35C139.607 212.345 139.222 212.426 138.918 212.578C138.858 212.614 138.824 212.664 138.824 212.715C138.824 212.767 138.858 212.816 138.918 212.853C138.981 212.89 139.065 212.91 139.152 212.91C139.239 212.91 139.323 212.89 139.386 212.853L139.392 212.822Z" fill="#232426"/>
<path id="Vector_42" d="M135.177 208.098C135.214 208.055 135.253 208.015 135.294 207.979L135.326 207.949L135.39 207.902C135.432 207.869 135.477 207.839 135.523 207.813L135.592 207.771H135.629C135.629 207.771 135.693 207.741 135.704 207.741L135.778 207.712L135.932 207.67H136.007C136.06 207.67 135.97 207.67 136.007 207.67H136.214C136.285 207.67 136.352 207.639 136.402 207.583C136.452 207.527 136.48 207.452 136.48 207.373C136.48 207.294 136.452 207.218 136.402 207.163C136.352 207.107 136.285 207.076 136.214 207.076C135.69 207.078 135.188 207.31 134.816 207.723C134.788 207.75 134.765 207.783 134.749 207.819C134.733 207.856 134.724 207.896 134.722 207.937C134.72 207.978 134.726 208.019 134.739 208.057C134.752 208.095 134.772 208.13 134.798 208.159C134.824 208.188 134.855 208.211 134.889 208.226C134.923 208.242 134.959 208.249 134.996 208.247C135.032 208.246 135.068 208.236 135.101 208.219C135.135 208.201 135.164 208.176 135.188 208.145L135.177 208.098Z" fill="#232426"/>
<path id="Vector_43" d="M140.594 218.071C140.621 218.012 140.661 217.957 140.713 217.91C140.713 217.91 140.713 217.942 140.713 217.91L140.752 217.873L140.838 217.803L140.878 217.776L140.957 217.712L141.063 217.663C141.099 217.654 141.135 217.642 141.168 217.626C141.168 217.626 141.109 217.626 141.168 217.626H141.234L141.346 217.599H141.465H141.511C141.439 217.599 141.478 217.599 141.511 217.599H141.801C141.801 217.599 141.742 217.599 141.801 217.599H141.927C142.011 217.617 142.1 217.608 142.176 217.572C142.251 217.537 142.306 217.479 142.329 217.411C142.352 217.343 142.34 217.27 142.297 217.209C142.253 217.148 142.182 217.103 142.098 217.084C141.705 217.002 141.289 217.028 140.916 217.159C140.544 217.29 140.235 217.519 140.04 217.808C139.997 217.87 139.985 217.942 140.007 218.01C140.029 218.079 140.084 218.137 140.159 218.173C140.235 218.208 140.325 218.218 140.411 218.2C140.496 218.182 140.569 218.138 140.614 218.076L140.594 218.071Z" fill="#232426"/>
<path id="Vector_44" d="M124.729 107.814C125.326 107.563 125.402 106.393 124.899 105.2C124.397 104.007 123.506 103.243 122.909 103.494C122.312 103.745 122.236 104.915 122.738 106.108C123.241 107.301 124.132 108.065 124.729 107.814Z" fill="#232426"/>
<path id="Vector_45" d="M114.041 110.363C114.489 110.175 114.546 109.297 114.169 108.403C113.792 107.508 113.123 106.935 112.676 107.123C112.228 107.311 112.171 108.189 112.548 109.084C112.925 109.978 113.593 110.551 114.041 110.363Z" fill="#232426"/>
<path id="Vector_46" d="M119.186 103.948C119.656 103.881 120.107 103.721 120.513 103.479C120.919 103.236 121.273 102.915 121.553 102.534C122.168 101.867 122.875 100.998 123.877 101.047C124.27 101.047 124.27 100.435 123.877 100.435C122.869 100.386 122.033 101.083 121.418 101.775C120.803 102.467 120.188 103.293 119.193 103.336C118.799 103.336 118.799 103.948 119.193 103.948H119.186Z" fill="#232426"/>
<path id="Vector_47" d="M110.115 104.923C110.263 104.052 111.345 103.841 112.193 103.927C113.173 104.063 114.109 104.378 114.942 104.853C115.274 105.042 115.557 104.572 115.249 104.388C114.247 103.805 113.095 103.453 111.898 103.364C110.871 103.327 109.691 103.792 109.525 104.783C109.463 105.118 110.06 105.27 110.14 104.923H110.115Z" fill="#232426"/>
<path id="Vector_48" d="M141.871 97.0663C141.334 98.3393 140.957 99.6949 140.754 101.091C140.657 101.755 140.603 102.425 140.592 103.098C140.566 103.355 140.596 103.615 140.677 103.855C140.758 104.096 140.89 104.31 141.059 104.479C141.323 104.701 141.567 104.198 141.318 103.97C140.988 103.683 141.095 102.952 141.12 102.548C141.15 101.943 141.217 101.34 141.323 100.746C141.525 99.5746 141.858 98.438 142.313 97.3646C142.455 97.0253 142.019 96.7269 141.871 97.0663Z" fill="#232426"/>
<path id="Vector_49" d="M140.921 102.75C141.285 102.772 141.635 102.878 141.933 103.055C142.231 103.232 142.466 103.474 142.614 103.755C142.942 104.461 142.942 105.246 142.614 105.952C142.49 106.293 143.121 106.436 143.265 106.101C143.636 105.227 143.59 104.265 143.134 103.42C142.924 103.068 142.607 102.769 142.217 102.553C141.826 102.337 141.375 102.212 140.908 102.19C140.822 102.19 140.739 102.219 140.678 102.27C140.617 102.322 140.583 102.392 140.583 102.464C140.583 102.537 140.617 102.607 140.678 102.659C140.739 102.71 140.822 102.739 140.908 102.739L140.921 102.75Z" fill="#232426"/>
<path id="Vector_50" d="M140.779 110.818C141.376 111.003 142.007 111.03 142.616 110.895C143.225 110.76 143.794 110.468 144.272 110.044C145.259 109.136 146.002 107.965 146.424 106.651C146.552 106.294 146.016 106.139 145.865 106.49C145.489 107.649 144.845 108.689 143.992 109.514C143.579 109.9 143.082 110.168 142.545 110.294C142.009 110.42 141.451 110.4 140.924 110.235C140.583 110.11 140.438 110.687 140.773 110.83L140.779 110.818Z" fill="#232426"/>
<path id="Vector_51" d="M111.865 90.5697C114.582 94.1128 118.522 96.5181 122.918 97.3168C125.297 97.7353 128.049 97.5377 129.678 95.7594C130.074 95.3588 130.36 94.8622 130.507 94.3182C130.653 93.7742 130.656 93.2015 130.515 92.656C130.056 91.2613 128.508 90.593 127.13 90.0874C123.104 88.6112 118.543 87.1468 114.675 88.989" fill="#1E2022"/>
<path id="Vector_52" d="M130.656 93.8585C128.559 97.8488 123.366 98.0843 119.727 96.557C117.648 95.6696 116.007 94.1905 114.243 92.79C112.672 91.5325 110.89 90.5851 108.986 89.9949C106.779 89.3295 104.463 89.1384 102.181 89.4335C101.814 89.4818 101.808 90.0855 102.181 90.0372C104.418 89.7466 106.689 89.9356 108.852 90.5926C111.092 91.3425 113.163 92.5496 114.944 94.1422C118.15 96.8226 122.145 98.9174 126.374 97.7643C127.371 97.5326 128.311 97.0914 129.136 96.4683C129.961 95.8452 130.653 95.0535 131.17 94.1422C131.345 93.8042 130.842 93.4963 130.661 93.8404L130.656 93.8585Z" fill="#3A66A5"/>
<path id="Vector_53" d="M98.8638 96.8412C99.6339 95.992 100.603 95.3485 101.684 94.9687C102.764 94.5889 103.923 94.4849 105.053 94.6659C105.419 94.7241 105.576 94.1658 105.21 94.0843C103.981 93.8847 102.722 93.9926 101.545 94.3985C100.368 94.8045 99.3091 95.4957 98.4632 96.4108C98.2135 96.6899 98.6258 97.1029 98.8754 96.8237L98.8638 96.8412Z" fill="#3A66A5"/>
<path id="Vector_54" d="M135.14 88.0303C135.758 89.4965 135.994 91.0901 135.827 92.6678C135.661 94.2456 135.098 95.7581 134.187 97.0696C133.966 97.395 134.501 97.6722 134.722 97.3769C135.685 95.966 136.273 94.3422 136.434 92.6524C136.595 90.9626 136.324 89.2601 135.644 87.6989C135.491 87.3434 134.962 87.6507 135.116 88.0062L135.14 88.0303Z" fill="#3A66A5"/>
<path id="Vector_55" d="M92.1071 312.371C86.5801 317.766 81.8627 326.198 78.9056 333.328C77.9433 335.638 77.1454 338.101 77.3096 340.593C77.4739 343.086 78.8821 345.642 81.2173 346.533L137.984 308.653C138.557 308.347 139.022 307.872 139.316 307.293C139.485 306.653 139.425 305.975 139.146 305.375C136.564 298.081 129.13 293.865 122.265 290.282C123.556 296.626 118.839 303.563 112.455 304.701C110.161 305.106 107.796 304.847 105.473 305.035C102.827 305.265 100.262 306.057 97.9473 307.359C95.633 308.66 93.6238 310.441 92.0543 312.582" fill="#E87D2D"/>
<path id="Vector_56" d="M80.1301 343.502C93.9628 332.806 108.336 322.829 123.192 313.61C127.34 311.039 131.525 308.524 135.747 306.067C135.781 306.047 135.81 306.021 135.833 305.99C135.857 305.959 135.874 305.924 135.884 305.886C135.893 305.849 135.896 305.81 135.89 305.771C135.885 305.733 135.872 305.696 135.853 305.662C135.833 305.629 135.807 305.599 135.776 305.576C135.745 305.553 135.71 305.535 135.672 305.526C135.635 305.516 135.596 305.514 135.557 305.519C135.519 305.524 135.482 305.537 135.448 305.557C120.32 314.372 105.654 323.958 91.5078 334.276C87.5395 337.164 83.6141 340.112 79.7318 343.121C79.4388 343.349 79.8548 343.765 80.1477 343.537L80.1301 343.502Z" fill="#232426"/>
<path id="Vector_57" d="M111.484 306.93C114.801 307.991 118.313 306.444 120.902 304.406C123.377 302.461 125.338 299.656 125.344 296.434C125.344 296.356 125.312 296.282 125.257 296.227C125.201 296.172 125.126 296.141 125.047 296.141C124.969 296.141 124.894 296.172 124.838 296.227C124.783 296.282 124.751 296.356 124.751 296.434C124.751 299.433 122.921 302.022 120.647 303.861C118.201 305.841 114.813 307.376 111.638 306.368C111.277 306.251 111.123 306.813 111.484 306.954V306.93Z" fill="#232426"/>
<path id="Vector_58" d="M131.353 296.199C129.12 297.888 127.458 300.233 126.595 302.912C125.732 305.591 125.711 308.474 126.533 311.166C126.644 311.533 127.211 311.379 127.118 311.013C126.326 308.445 126.338 305.694 127.153 303.133C127.967 300.573 129.544 298.329 131.669 296.707C131.967 296.483 131.669 295.969 131.37 296.199H131.353Z" fill="#232426"/>
<path id="Vector_59" d="M95.7493 322.509C96.5585 322.509 97.2145 321.853 97.2145 321.044C97.2145 320.235 96.5585 319.579 95.7493 319.579C94.9401 319.579 94.2842 320.235 94.2842 321.044C94.2842 321.853 94.9401 322.509 95.7493 322.509Z" fill="white" fill-opacity="0.6"/>
<path id="Vector_60" d="M100.437 317.821C101.246 317.821 101.902 317.165 101.902 316.356C101.902 315.547 101.246 314.891 100.437 314.891C99.6276 314.891 98.9717 315.547 98.9717 316.356C98.9717 317.165 99.6276 317.821 100.437 317.821Z" fill="white" fill-opacity="0.6"/>
<path id="Vector_61" d="M106.885 313.134C107.694 313.134 108.35 312.478 108.35 311.669C108.35 310.86 107.694 310.204 106.885 310.204C106.076 310.204 105.42 310.86 105.42 311.669C105.42 312.478 106.076 313.134 106.885 313.134Z" fill="white" fill-opacity="0.6"/>
<path id="Vector_62" d="M63.5464 230.669C68.8115 228.511 74.2112 231.488 77.9787 235.108C82.0211 238.991 85.4025 243.594 88.6493 248.138C91.8962 252.682 95.0845 257.419 98.4483 261.987C101.812 266.555 105.258 271.07 108.826 275.491C112.863 280.501 117.032 285.4 121.334 290.188C121.592 290.469 122.001 290.053 121.749 289.773C113.871 281.008 106.444 271.869 99.4663 262.355C96.003 257.677 92.7269 252.817 89.3397 248.068C86.1045 243.529 82.7407 238.968 78.7743 235.038C74.8079 231.107 69.0631 227.791 63.4177 230.107C63.0725 230.248 63.2246 230.809 63.5698 230.692L63.5464 230.669Z" fill="#232426"/>
<path id="Vector_63" d="M89.5245 313.068C97.7017 306.839 106.137 300.959 114.831 295.428C117.291 293.884 119.77 292.35 122.268 290.825C122.336 290.786 122.385 290.722 122.405 290.647C122.425 290.572 122.414 290.493 122.374 290.426C122.334 290.359 122.269 290.311 122.193 290.291C122.117 290.272 122.037 290.283 121.969 290.322C113.095 295.683 104.461 301.404 96.0686 307.487C93.7188 309.181 91.4004 310.906 89.1133 312.662C88.8137 312.888 89.2308 313.293 89.5245 313.068Z" fill="#232426"/>
<path id="Vector_64" d="M60.3733 281.412C64.2049 285.266 67.8431 289.314 71.458 293.368C75.6372 298.054 79.7383 302.807 83.7613 307.627C85.5541 309.781 87.3293 311.953 89.0342 314.183C89.2568 314.478 89.7666 314.183 89.5381 313.882C86.2279 309.539 82.6833 305.372 79.1271 301.235C74.9908 296.424 70.7842 291.683 66.5074 287.012C64.6326 284.976 62.746 282.952 60.7951 280.993C60.7399 280.937 60.6651 280.906 60.5871 280.906C60.5091 280.906 60.4343 280.937 60.3791 280.993C60.324 281.048 60.293 281.124 60.293 281.202C60.293 281.281 60.324 281.356 60.3791 281.412H60.3733Z" fill="#232426"/>
<path id="Vector_65" d="M90.3997 224.572C88.14 224.754 85.8689 224.743 83.6112 224.537C80.0503 224.367 76.4953 224.121 72.9461 223.88C69.3969 223.639 65.7308 223.37 62.1232 223.17C59.1996 223.012 56.0013 222.583 53.1537 223.293C51.575 223.669 50.2302 224.619 49.8618 226.28C49.3356 228.686 50.6687 230.974 51.9843 232.864C55.1008 237.353 58.4161 241.707 61.7723 246.026C68.5725 254.787 75.6767 263.307 82.6757 271.915C89.6746 280.524 96.7087 289.367 103.14 298.533C103.918 299.642 104.69 300.751 105.45 301.872C105.661 302.183 106.169 301.872 105.953 301.572C99.9012 292.688 93.3174 284.18 86.5815 275.806C79.8457 267.432 72.8467 259.076 66.1167 250.603C62.7137 246.319 59.3633 241.995 56.1124 237.588C54.4663 235.494 52.9322 233.314 51.5166 231.057C50.429 229.185 49.4818 226.128 51.6101 224.602C53.0836 223.54 55.2002 223.575 56.931 223.587C58.1705 223.587 59.4043 223.645 60.638 223.704C64.0118 223.868 67.3739 224.103 70.7418 224.338C74.3202 224.578 77.8928 224.837 81.477 225.036C84.079 225.183 86.7043 225.359 89.3121 225.265C89.6746 225.265 90.043 225.23 90.4055 225.183C90.768 225.136 90.7797 224.549 90.4055 224.596L90.3997 224.572Z" fill="#232426"/>
<path id="Vector_66" d="M86.5035 308.39C94.5818 302.457 102.892 296.883 111.434 291.666C113.855 290.187 116.296 288.737 118.756 287.317C119.084 287.133 118.785 286.617 118.458 286.807C109.803 291.814 101.362 297.183 93.1353 302.914C90.796 304.54 88.486 306.195 86.2052 307.88C85.9011 308.099 86.2052 308.616 86.5035 308.39Z" fill="#232426"/>
<path id="Vector_67" d="M38.4328 156.703L84.2127 163.087C85.4428 163.257 86.5915 163.795 87.5062 164.629C88.4209 165.463 89.0584 166.553 89.334 167.755L104.216 233.648C104.268 233.885 104.252 234.132 104.169 234.36C104.085 234.588 103.938 234.788 103.744 234.936C103.551 235.084 103.319 235.174 103.075 235.196C102.832 235.218 102.587 235.171 102.369 235.06L50.4158 208.282C50.0681 208.104 49.7611 207.856 49.5143 207.555C49.2674 207.254 49.0859 206.905 48.9812 206.531L36.3279 159.054C36.2469 158.753 36.2424 158.437 36.3149 158.134C36.3873 157.83 36.5344 157.55 36.743 157.317C36.9516 157.084 37.2151 156.906 37.51 156.798C37.8049 156.691 38.122 156.658 38.4328 156.703Z" fill="#F5F5F5"/>
<path id="Vector_68" d="M51.7834 347.696C66.0113 349.198 79.1607 355.958 88.6455 366.646C91.2692 369.599 93.5654 372.827 95.4942 376.273C95.6766 376.602 96.1885 376.308 96.0002 375.974C88.8604 363.428 77.2716 354.004 63.5157 349.557C59.7047 348.324 55.771 347.507 51.7834 347.12C51.4068 347.085 51.4068 347.672 51.7834 347.707V347.696Z" fill="#232426"/>
<path id="Vector_69" d="M88.4773 342.584C84.298 351.6 80.574 360.806 77.3053 370.202C77.1828 370.557 77.7489 370.708 77.889 370.359C81.1221 361.019 84.8235 351.846 88.9792 342.875C89.1368 342.537 88.629 342.241 88.4714 342.584H88.4773Z" fill="#232426"/>
<path id="Vector_70" d="M115.175 281.457C123.722 278.474 132.752 277.484 141.515 275.392C145.839 274.383 150.061 272.975 154.128 271.185C157.966 269.462 161.863 267.435 165.072 264.675C166.559 263.427 167.851 261.961 168.905 260.327C169.57 259.237 169.64 257.884 169.879 256.659C169.949 256.296 169.389 256.137 169.296 256.507C169.074 257.626 169.027 258.927 168.438 259.929C167.547 261.358 166.452 262.649 165.189 263.761C162.132 266.585 158.293 268.601 154.548 270.341C146.555 274.045 137.98 275.615 129.398 277.262C124.517 278.128 119.704 279.343 114.994 280.895C114.644 281.018 114.796 281.58 115.152 281.48L115.175 281.457Z" fill="#232426"/>
<path id="Vector_71" d="M157.599 255.485C158.257 259.318 158.852 263.331 161.101 266.706C161.144 266.771 161.213 266.817 161.292 266.835C161.372 266.853 161.456 266.842 161.527 266.803C161.598 266.764 161.649 266.701 161.67 266.628C161.691 266.554 161.68 266.476 161.639 266.41C159.453 263.087 158.852 259.115 158.207 255.334C158.144 254.969 157.537 255.12 157.58 255.485H157.599Z" fill="#232426"/>
<path id="Vector_72" d="M142.047 110.98C145.769 110.98 148.787 107.307 148.787 102.776C148.787 98.2458 145.769 94.573 142.047 94.573C138.325 94.573 135.308 98.2458 135.308 102.776C135.308 107.307 138.325 110.98 142.047 110.98Z" fill="white"/>
<path id="Vector_73" d="M118.764 77.6771C122.089 75.0084 126.965 75.4669 130.455 77.5477C134.252 79.8167 136.941 83.8197 138.45 87.8873C139.398 90.4093 139.918 93.0714 139.989 95.764C139.989 96.5164 141.168 96.5223 141.168 95.764C141.038 90.6137 139.342 85.6242 136.304 81.4567C133.592 77.7829 129.647 74.8673 124.937 74.6675C122.412 74.522 119.92 75.2971 117.927 76.8482C117.337 77.3244 118.174 78.1473 118.764 77.6771Z" fill="white"/>
<path id="Vector_74" d="M144.15 109.647C142.432 119.676 140.707 129.775 140.619 139.98C140.572 149.035 141.908 158.208 145.55 166.553C146.431 168.579 147.458 170.539 148.622 172.418C149.828 174.365 151.241 176.16 152.541 178.042C154.895 181.403 157.249 186.118 154.895 190.106C152.629 194.006 146.904 195.103 142.802 194.288C138.701 193.473 135.064 191.097 131.004 189.96C127.061 188.863 122.918 189.373 119.611 191.877C117.996 193.11 116.713 194.723 115.878 196.572C115.043 198.421 114.682 200.447 114.827 202.469C114.897 203.5 115.094 204.519 115.416 205.501C115.651 206.211 116.787 205.906 116.551 205.185C115.865 203.17 115.771 201.001 116.282 198.935C116.793 196.869 117.887 194.992 119.435 193.525C122.654 190.552 127.02 190.007 131.116 191.221C135.105 192.435 138.707 194.775 142.849 195.508C146.992 196.241 151.753 195.279 154.736 192.27C157.72 189.262 157.402 184.746 155.754 181.174C154.743 179.171 153.537 177.271 152.153 175.503C150.82 173.712 149.602 171.839 148.504 169.896C144.138 161.984 142.237 152.888 141.873 143.944C141.455 133.769 142.949 123.64 144.632 113.635C144.838 112.409 145.05 111.183 145.256 109.958C145.386 109.219 144.25 108.902 144.126 109.647H144.15Z" fill="white"/>
<path id="Vector_75" d="M85.4417 319.961C86.3994 318.215 88.6956 317.633 90.5475 317.854C91.5152 317.952 92.4528 318.248 93.3022 318.726C94.1517 319.203 94.895 319.852 95.4861 320.63C95.7053 320.921 96.2073 320.63 95.9881 320.334C95.3398 319.472 94.5218 318.755 93.5854 318.229C92.6491 317.702 91.6148 317.376 90.5475 317.272C88.4937 317.063 85.9955 317.72 84.9455 319.67C84.7666 319.996 85.2628 320.293 85.4417 319.961Z" fill="#232426"/>
<path id="Vector_76" d="M90.065 315.179C90.7612 314.353 91.6638 313.749 92.6703 313.436C93.6768 313.123 94.7467 313.112 95.7585 313.406C97.7886 314.028 99.3984 315.602 100.813 317.139C101.079 317.431 101.494 316.99 101.233 316.697C99.6707 314.974 97.8537 313.213 95.5751 312.684C94.5072 312.451 93.3995 312.517 92.3636 312.876C91.3277 313.235 90.4001 313.875 89.6743 314.731C89.4198 315.024 89.8341 315.465 90.0946 315.167L90.065 315.179Z" fill="#232426"/>
<path id="Vector_77" d="M94.1801 310.522C95.0024 309.739 95.9962 309.149 97.0862 308.797C98.1761 308.446 99.3337 308.341 100.471 308.491C102.887 308.863 105.089 310.061 106.687 311.871C106.937 312.144 107.35 311.74 107.1 311.472C105.397 309.55 103.045 308.29 100.471 307.922C99.2563 307.773 98.0227 307.893 96.862 308.275C95.7013 308.656 94.6434 309.288 93.7669 310.124C93.7196 310.179 93.6952 310.249 93.6985 310.32C93.7019 310.392 93.7327 310.46 93.7849 310.51C93.8371 310.56 93.9068 310.59 93.9801 310.592C94.0534 310.594 94.1248 310.569 94.1801 310.522Z" fill="#232426"/>
<path id="Vector_78" d="M129.447 130.304C129.447 130.304 130.767 131.2 134.977 127.637C137.742 125.295 139.366 120.695 139.366 118.597C139.366 118.597 139.993 125.029 136.524 129.332C133.054 133.636 130.474 133.832 130.474 133.832L129.447 130.304Z" fill="#232426"/>
<path id="Vector_79" d="M116.588 106.737C117.311 107.827 117.822 109.057 118.092 110.358C118.361 111.658 118.385 113.002 118.161 114.312C117.961 115.39 117.522 116.426 118.161 117.444C118.8 118.462 119.872 118.845 120.9 119.168C121.245 119.28 121.389 118.715 121.05 118.58C119.995 118.244 118.472 117.732 118.378 116.331C118.415 115.689 118.527 115.055 118.711 114.442C118.961 113.057 118.945 111.634 118.665 110.255C118.386 108.877 117.848 107.573 117.083 106.419C116.877 106.113 116.399 106.419 116.605 106.713L116.588 106.737Z" fill="#232426"/>
<path id="Vector_80" d="M125.913 120.941C126.437 120.898 126.945 120.746 127.405 120.493C127.865 120.24 128.265 119.893 128.58 119.475C129.243 118.54 129.729 117.492 130.013 116.384C130.033 116.312 130.038 116.237 130.029 116.163C130.019 116.089 129.996 116.018 129.959 115.954C129.922 115.889 129.872 115.832 129.813 115.786C129.754 115.741 129.687 115.707 129.615 115.687C129.543 115.668 129.468 115.662 129.393 115.672C129.319 115.681 129.248 115.705 129.183 115.741C129.118 115.778 129.061 115.827 129.015 115.886C128.969 115.945 128.935 116.012 128.915 116.084C128.684 117.009 128.3 117.889 127.778 118.688C127.549 118.981 127.274 119.237 126.965 119.446C126.813 119.544 126.651 119.626 126.482 119.69C126.299 119.757 126.108 119.797 125.913 119.809C125.763 119.809 125.618 119.868 125.511 119.974C125.405 120.081 125.345 120.225 125.345 120.375C125.345 120.525 125.405 120.669 125.511 120.775C125.618 120.881 125.763 120.941 125.913 120.941Z" fill="white" fill-opacity="0.6"/>
<path id="Vector_81" d="M94.1358 255.079L104.698 248.647C105.023 248.448 104.698 247.939 104.398 248.138L93.8357 254.57C93.5056 254.769 93.8357 255.278 94.1358 255.079Z" fill="#232426"/>
<path id="Vector_82" d="M164.585 183.218C162.97 179.58 161.724 175.782 160.867 171.885C160.311 169.093 159.988 166.258 159.901 163.411C159.901 163.036 159.336 163.036 159.336 163.411C159.428 166.309 159.757 169.193 160.319 172.035C161.194 175.974 162.458 179.812 164.093 183.489C164.24 183.824 164.726 183.535 164.585 183.194V183.218Z" fill="#232426"/>
</g>
<g id="Layer 5">
<path id="Vector_83" d="M197.369 112.184H182.814C179.713 112.184 177.198 114.633 177.198 117.655V123.12C177.198 126.141 179.713 128.591 182.814 128.591H197.369C200.47 128.591 202.985 126.141 202.985 123.12V117.655C202.985 114.633 200.47 112.184 197.369 112.184Z" fill="#1E2022"/>
<path id="Vector_84" d="M183.594 124.325V122.618C183.608 122.44 183.587 122.261 183.532 122.092C183.477 121.924 183.39 121.768 183.275 121.636C183.189 121.552 183.091 121.481 182.985 121.428C182.837 121.369 182.709 121.265 182.617 121.129C182.526 120.994 182.476 120.833 182.473 120.667C182.476 120.509 182.523 120.355 182.608 120.224C182.692 120.094 182.811 119.991 182.951 119.929C183.08 119.869 183.198 119.785 183.298 119.679C183.532 119.375 183.644 118.986 183.611 118.597V117.128C183.588 116.855 183.617 116.58 183.696 116.318C183.775 116.057 183.903 115.814 184.072 115.605C184.494 115.243 185.036 115.07 185.579 115.123H185.739C185.945 115.123 186.144 115.209 186.29 115.362C186.436 115.515 186.518 115.722 186.518 115.938V116.533H185.949C185.829 116.522 185.708 116.538 185.594 116.58C185.48 116.622 185.376 116.689 185.289 116.777C185.133 117.033 185.063 117.337 185.09 117.639V119.174C185.107 119.533 185.02 119.89 184.84 120.197C184.767 120.32 184.67 120.425 184.555 120.505C184.441 120.585 184.31 120.638 184.174 120.661C184.8 120.738 185.113 121.256 185.113 122.154V123.712C185.086 124.016 185.162 124.319 185.329 124.569C185.429 124.666 185.548 124.74 185.677 124.786C185.807 124.833 185.944 124.85 186.08 124.837H186.575V125.431C186.575 125.646 186.493 125.852 186.348 126.003C186.203 126.155 186.006 126.24 185.801 126.24H185.545C185.037 126.281 184.533 126.12 184.134 125.788C183.953 125.596 183.811 125.367 183.718 125.116C183.625 124.864 183.583 124.595 183.594 124.325Z" fill="#4196BF"/>
<path id="Vector_85" d="M197.167 124.33V122.622C197.153 122.444 197.174 122.265 197.229 122.096C197.284 121.927 197.371 121.772 197.487 121.64C197.573 121.555 197.671 121.485 197.777 121.431C197.927 121.373 198.057 121.269 198.149 121.134C198.242 120.998 198.293 120.836 198.297 120.67C198.293 120.512 198.246 120.358 198.161 120.227C198.076 120.096 197.957 119.993 197.817 119.932C197.694 119.867 197.582 119.78 197.487 119.676C197.248 119.372 197.134 118.983 197.167 118.593V117.129C197.19 116.855 197.161 116.58 197.082 116.319C197.002 116.057 196.874 115.815 196.705 115.605C196.284 115.243 195.742 115.07 195.199 115.123H195.039C194.936 115.122 194.835 115.143 194.74 115.183C194.645 115.223 194.559 115.283 194.486 115.358C194.414 115.433 194.356 115.523 194.317 115.621C194.277 115.72 194.257 115.826 194.257 115.932V116.527H194.828C194.948 116.516 195.07 116.532 195.184 116.574C195.298 116.616 195.403 116.683 195.49 116.771C195.643 117.029 195.712 117.332 195.684 117.634V119.17C195.67 119.531 195.761 119.888 195.946 120.194C196.017 120.316 196.113 120.422 196.228 120.502C196.342 120.582 196.472 120.635 196.608 120.658C195.946 120.735 195.666 121.253 195.666 122.152V123.711C195.691 124.015 195.612 124.318 195.444 124.568C195.345 124.664 195.228 124.738 195.101 124.785C194.973 124.831 194.837 124.848 194.702 124.836H194.194V125.431C194.197 125.646 194.282 125.852 194.429 126.004C194.576 126.155 194.775 126.24 194.982 126.24H195.227C195.737 126.282 196.243 126.12 196.642 125.788C196.823 125.597 196.964 125.369 197.054 125.117C197.144 124.866 197.183 124.598 197.167 124.33Z" fill="#4196BF"/>
<path id="Vector_86" d="M182.64 128.005H165.897C162.752 128.005 160.203 130.512 160.203 133.605V138.225C160.203 141.318 162.752 143.825 165.897 143.825H182.64C185.784 143.825 188.334 141.318 188.334 138.225V133.605C188.334 130.512 185.784 128.005 182.64 128.005Z" fill="white" fill-opacity="0.6"/>
<path id="Vector_87" d="M185.403 135.32C185.402 135.427 185.373 135.533 185.317 135.626C185.262 135.719 185.182 135.796 185.086 135.851L179.337 139.055C179.239 139.109 179.129 139.138 179.016 139.138C178.903 139.138 178.792 139.11 178.694 139.056C178.596 139.002 178.515 138.925 178.458 138.831C178.401 138.738 178.371 138.632 178.37 138.524V138.147C178.37 138.038 178.401 137.931 178.458 137.836C178.516 137.742 178.599 137.664 178.698 137.61L182.716 135.469C182.746 135.453 182.771 135.43 182.788 135.402C182.806 135.374 182.815 135.342 182.815 135.309C182.815 135.276 182.806 135.244 182.788 135.216C182.771 135.188 182.746 135.165 182.716 135.149L178.71 133.042C178.608 132.989 178.523 132.911 178.465 132.815C178.406 132.719 178.375 132.61 178.376 132.499V132.14C178.376 132.031 178.405 131.925 178.461 131.83C178.518 131.736 178.599 131.658 178.697 131.604C178.795 131.549 178.907 131.52 179.02 131.52C179.134 131.52 179.245 131.549 179.343 131.603L185.086 134.784C185.184 134.839 185.264 134.917 185.32 135.012C185.375 135.106 185.404 135.212 185.403 135.32Z" fill="#3ACC94"/>
<path id="Vector_88" d="M169.58 138.146V138.518C169.58 138.626 169.551 138.733 169.494 138.827C169.437 138.922 169.356 139 169.258 139.054C169.159 139.109 169.048 139.138 168.934 139.138C168.82 139.138 168.708 139.109 168.61 139.055L162.864 135.849C162.768 135.794 162.688 135.717 162.632 135.623C162.577 135.53 162.547 135.425 162.547 135.318C162.546 135.21 162.575 135.103 162.631 135.009C162.687 134.915 162.767 134.836 162.864 134.781L168.616 131.604C168.713 131.549 168.824 131.521 168.937 131.52C169.05 131.52 169.162 131.548 169.259 131.602C169.357 131.656 169.438 131.734 169.495 131.828C169.551 131.921 169.58 132.027 169.58 132.135V132.495C169.58 132.606 169.55 132.714 169.493 132.81C169.435 132.905 169.351 132.984 169.25 133.038L165.36 135.089C165.319 135.111 165.284 135.143 165.261 135.182C165.237 135.22 165.224 135.265 165.224 135.309C165.224 135.354 165.237 135.398 165.261 135.437C165.284 135.476 165.319 135.508 165.36 135.529L169.256 137.609C169.355 137.664 169.437 137.742 169.494 137.836C169.55 137.931 169.58 138.038 169.58 138.146Z" fill="#3ACC94"/>
<path id="Vector_89" d="M171.305 140.28L171.169 140.243C170.837 140.165 170.671 139.923 170.789 139.706L175.256 131.795C175.354 131.679 175.483 131.595 175.627 131.552C175.771 131.509 175.924 131.51 176.068 131.554L176.199 131.59C176.531 131.669 176.691 131.904 176.573 132.128L172.124 140.026C172.025 140.143 171.896 140.23 171.751 140.275C171.606 140.319 171.451 140.321 171.305 140.28Z" fill="#3ACC94"/>
<path id="Vector_90" d="M66.1413 120.387C78.9262 120.387 89.2904 114.878 89.2904 108.082C89.2904 101.286 78.9262 95.7771 66.1413 95.7771C53.3564 95.7771 42.9922 101.286 42.9922 108.082C42.9922 114.878 53.3564 120.387 66.1413 120.387Z" fill="url(#paint7_linear_1388_63876)"/>
<path id="Vector_91" d="M26.3157 89.3313C40.5571 89.3313 52.102 83.1663 52.102 75.5614C52.102 67.9565 40.5571 61.7915 26.3157 61.7915C12.0742 61.7915 0.529297 67.9565 0.529297 75.5614C0.529297 83.1663 12.0742 89.3313 26.3157 89.3313Z" fill="url(#paint8_linear_1388_63876)"/>
</g>
<g id="Layer 5_2">
<path id="Vector_92" d="M8.28964 80.5423H5.80273V69.4092H8.28964V74.2587L11.8569 69.4092H14.8432L10.7664 74.5455L15.1796 80.5423H12.0047L8.28964 75.2495V80.5423Z" fill="white" fill-opacity="0.8"/>
<path id="Vector_93" d="M16.2202 79.4557C15.553 78.7194 15.1807 77.7398 15.1807 76.7209C15.1807 75.7019 15.553 74.7223 16.2202 73.9861C16.5918 73.623 17.0287 73.3425 17.505 73.1613C17.9812 72.9801 18.4872 72.9018 18.9927 72.9312C19.496 72.9009 19.9998 72.9788 20.4738 73.1601C20.9478 73.3415 21.382 73.6224 21.7501 73.9861C22.4231 74.7191 22.7994 75.7 22.7994 76.7209C22.7994 77.7418 22.4231 78.7226 21.7501 79.4557C21.3845 79.8248 20.9514 80.1111 20.4772 80.297C20.003 80.483 19.4978 80.5646 18.9927 80.5369C18.4853 80.5637 17.9781 80.4817 17.5016 80.2958C17.0251 80.11 16.5892 79.8242 16.2202 79.4557ZM17.6189 76.7235C17.6059 77.1356 17.7457 77.5368 18.0086 77.8417C18.1381 77.9833 18.2933 78.096 18.4649 78.1729C18.6366 78.2499 18.8212 78.2895 19.0076 78.2895C19.1941 78.2895 19.3787 78.2499 19.5503 78.1729C19.722 78.096 19.8772 77.9833 20.0067 77.8417C20.2697 77.5312 20.4061 77.1237 20.3864 76.7077C20.4008 76.2963 20.2628 75.8952 20.0017 75.5895C19.8756 75.4435 19.721 75.3282 19.5484 75.2517C19.3759 75.1752 19.1897 75.1393 19.0026 75.1464C18.8169 75.1387 18.6318 75.1727 18.4595 75.2464C18.2872 75.3201 18.1318 75.4316 18.0036 75.5737C17.8706 75.7289 17.7681 75.9105 17.7021 76.1079C17.6361 76.3053 17.6078 76.5145 17.6189 76.7235Z" fill="white" fill-opacity="0.8"/>
<path id="Vector_94" d="M23.9776 77.6199V71.1672H26.3786V73.1631H28.376V75.3941H26.3786V77.484C26.3786 78.0065 26.5307 78.2834 26.84 78.2834C27.2252 78.2589 27.5925 78.1124 27.8885 77.8655L28.6591 79.7203C27.984 80.2834 27.1218 80.5741 26.2423 80.5353C25.9203 80.5628 25.5966 80.5108 25.2994 80.3842C25.0023 80.2576 24.741 80.0601 24.5385 79.8091C24.1267 79.1557 23.9305 78.3901 23.9776 77.6199Z" fill="white" fill-opacity="0.8"/>
<path id="Vector_95" d="M29.8311 78.3364V69.4092H31.9852V77.4447C31.9852 78.0494 32.1077 78.3517 32.3481 78.3517C32.5521 78.3232 32.7456 78.2365 32.909 78.1006L33.3474 79.884C32.809 80.336 32.1417 80.5682 31.4619 80.54C30.3684 80.54 29.8311 79.802 29.8311 78.3364Z" fill="white" fill-opacity="0.8"/>
<path id="Vector_96" d="M34.5196 70.7085C34.5136 70.5317 34.5493 70.3559 34.6244 70.1931C34.6994 70.0304 34.812 69.8847 34.9542 69.7662C35.2535 69.5233 35.6424 69.3959 36.0406 69.4103C36.2244 69.4071 36.4069 69.4378 36.5776 69.5007C36.7483 69.5635 36.9037 69.6572 37.0347 69.7762C37.1704 69.8962 37.2773 70.0412 37.3484 70.2018C37.4196 70.3625 37.4533 70.5351 37.4475 70.7085C37.456 70.8927 37.4238 71.0766 37.3528 71.2489C37.2818 71.4213 37.1736 71.5785 37.0347 71.711C36.9063 71.8345 36.7519 71.9325 36.5809 71.9989C36.41 72.0653 36.2261 72.0986 36.0406 72.0969C35.8415 72.104 35.6429 72.0744 35.4564 72.0099C35.2699 71.9453 35.0991 71.8471 34.9542 71.721C34.8095 71.5894 34.696 71.4314 34.6212 71.257C34.5464 71.0827 34.5118 70.8959 34.5196 70.7085ZM37.2356 79.9564H34.7152V73.0793H37.1976L37.2356 79.9564Z" fill="white" fill-opacity="0.8"/>
<path id="Vector_97" d="M40.9947 79.9563H38.6211V73.0519H40.9947V73.5853C41.2275 73.3665 41.5034 73.1954 41.8059 73.0821C42.1084 72.9688 42.4314 72.9158 42.7555 72.9261C44.6877 72.9261 45.6537 73.899 45.6537 75.8448V79.9563H43.2749V76.2424C43.286 76.0856 43.2646 75.9282 43.212 75.7796C43.1594 75.6309 43.0766 75.494 42.9684 75.3768C42.8525 75.2721 42.7159 75.1914 42.5668 75.1395C42.4177 75.0876 42.2592 75.0656 42.1011 75.0749C41.8912 75.0822 41.685 75.1305 41.4948 75.217C41.3047 75.3035 41.1346 75.4263 40.9947 75.5781V79.9563Z" fill="white" fill-opacity="0.8"/>
</g>
<g id="Layer 6">
<path id="Vector_98" d="M197.368 112.184H182.813C179.712 112.184 177.197 114.634 177.197 117.655V123.12C177.197 126.142 179.712 128.591 182.813 128.591H197.368C200.469 128.591 202.984 126.142 202.984 123.12V117.655C202.984 114.634 200.469 112.184 197.368 112.184Z" fill="#1E2022"/>
<path id="Vector_99" d="M183.594 124.326V122.618C183.608 122.441 183.587 122.262 183.532 122.093C183.477 121.924 183.39 121.769 183.275 121.637C183.189 121.552 183.091 121.482 182.985 121.429C182.837 121.37 182.709 121.265 182.617 121.13C182.526 120.994 182.476 120.833 182.473 120.667C182.476 120.509 182.523 120.356 182.608 120.225C182.692 120.094 182.811 119.992 182.951 119.93C183.08 119.87 183.198 119.785 183.298 119.68C183.532 119.375 183.644 118.987 183.611 118.597V117.128C183.588 116.855 183.617 116.58 183.696 116.319C183.775 116.057 183.903 115.815 184.072 115.605C184.494 115.243 185.036 115.07 185.579 115.124H185.739C185.945 115.124 186.144 115.209 186.29 115.362C186.436 115.515 186.518 115.722 186.518 115.938V116.533H185.949C185.829 116.522 185.708 116.538 185.594 116.58C185.48 116.622 185.376 116.689 185.289 116.777C185.133 117.034 185.063 117.337 185.09 117.64V119.174C185.107 119.534 185.02 119.891 184.84 120.197C184.767 120.32 184.67 120.426 184.555 120.506C184.441 120.586 184.31 120.639 184.174 120.661C184.8 120.739 185.113 121.256 185.113 122.154V123.713C185.086 124.016 185.162 124.32 185.329 124.569C185.429 124.667 185.548 124.741 185.677 124.787C185.807 124.833 185.944 124.85 186.08 124.837H186.575V125.432C186.575 125.647 186.493 125.852 186.348 126.004C186.203 126.156 186.006 126.241 185.801 126.241H185.545C185.037 126.282 184.533 126.12 184.134 125.789C183.953 125.597 183.811 125.368 183.718 125.116C183.625 124.864 183.583 124.595 183.594 124.326Z" fill="#4196BF"/>
<path id="Vector_100" d="M197.166 124.33V122.622C197.152 122.444 197.173 122.265 197.228 122.096C197.283 121.927 197.37 121.772 197.486 121.64C197.572 121.555 197.67 121.485 197.777 121.432C197.926 121.374 198.056 121.27 198.148 121.134C198.241 120.998 198.292 120.837 198.296 120.67C198.292 120.512 198.245 120.358 198.16 120.227C198.075 120.097 197.956 119.994 197.816 119.932C197.693 119.868 197.581 119.781 197.486 119.676C197.247 119.373 197.133 118.984 197.166 118.593V117.129C197.189 116.856 197.16 116.581 197.081 116.319C197.001 116.058 196.873 115.815 196.704 115.606C196.283 115.244 195.741 115.07 195.198 115.123H195.038C194.935 115.123 194.834 115.143 194.739 115.183C194.644 115.224 194.558 115.283 194.485 115.358C194.413 115.434 194.355 115.523 194.316 115.622C194.276 115.72 194.256 115.826 194.256 115.933V116.528H194.827C194.947 116.516 195.069 116.532 195.183 116.574C195.298 116.616 195.402 116.684 195.489 116.772C195.642 117.03 195.711 117.333 195.683 117.635V119.17C195.669 119.531 195.76 119.888 195.945 120.194C196.016 120.317 196.112 120.422 196.227 120.502C196.341 120.583 196.471 120.636 196.607 120.658C195.945 120.736 195.665 121.253 195.665 122.152V123.711C195.69 124.015 195.611 124.319 195.443 124.568C195.344 124.665 195.227 124.739 195.1 124.785C194.972 124.831 194.836 124.849 194.701 124.836H194.193V125.431C194.196 125.647 194.281 125.853 194.428 126.004C194.575 126.156 194.774 126.241 194.981 126.241H195.226C195.736 126.283 196.242 126.121 196.641 125.788C196.822 125.598 196.963 125.369 197.053 125.118C197.143 124.866 197.182 124.598 197.166 124.33Z" fill="#4196BF"/>
<path id="Vector_101" d="M182.639 128.005H165.896C162.751 128.005 160.202 130.512 160.202 133.605V138.225C160.202 141.318 162.751 143.826 165.896 143.826H182.639C185.783 143.826 188.333 141.318 188.333 138.225V133.605C188.333 130.512 185.783 128.005 182.639 128.005Z" fill="white"/>
<path id="Vector_102" d="M185.402 135.321C185.401 135.428 185.372 135.533 185.316 135.626C185.261 135.719 185.181 135.797 185.085 135.852L179.336 139.056C179.239 139.11 179.128 139.138 179.015 139.138C178.902 139.138 178.791 139.11 178.693 139.056C178.595 139.003 178.514 138.925 178.457 138.832C178.4 138.738 178.37 138.632 178.369 138.524V138.148C178.369 138.038 178.4 137.931 178.457 137.837C178.515 137.742 178.598 137.664 178.697 137.611L182.715 135.469C182.745 135.454 182.77 135.43 182.787 135.402C182.805 135.374 182.814 135.342 182.814 135.309C182.814 135.277 182.805 135.245 182.787 135.217C182.77 135.189 182.745 135.165 182.715 135.15L178.709 133.042C178.607 132.99 178.522 132.911 178.464 132.816C178.405 132.72 178.374 132.611 178.375 132.5V132.14C178.375 132.032 178.404 131.925 178.46 131.831C178.517 131.737 178.598 131.659 178.696 131.604C178.794 131.55 178.906 131.521 179.019 131.521C179.133 131.521 179.244 131.549 179.342 131.603L185.085 134.784C185.183 134.839 185.263 134.918 185.319 135.012C185.374 135.106 185.403 135.213 185.402 135.321Z" fill="#3ACC94"/>
<path id="Vector_103" d="M169.579 138.147V138.518C169.579 138.627 169.55 138.734 169.493 138.828C169.436 138.922 169.355 139 169.257 139.055C169.158 139.109 169.047 139.138 168.933 139.138C168.819 139.138 168.707 139.11 168.609 139.055L162.863 135.85C162.767 135.795 162.687 135.717 162.631 135.624C162.576 135.531 162.546 135.426 162.546 135.318C162.545 135.21 162.574 135.104 162.63 135.01C162.686 134.916 162.766 134.837 162.863 134.781L168.615 131.604C168.713 131.55 168.823 131.521 168.936 131.521C169.05 131.52 169.161 131.549 169.258 131.603C169.356 131.657 169.438 131.734 169.494 131.828C169.55 131.922 169.579 132.028 169.579 132.136V132.496C169.58 132.606 169.549 132.715 169.492 132.81C169.434 132.906 169.35 132.984 169.249 133.039L165.359 135.09C165.318 135.112 165.283 135.144 165.26 135.182C165.236 135.221 165.223 135.265 165.223 135.31C165.223 135.355 165.236 135.399 165.26 135.438C165.283 135.476 165.318 135.508 165.359 135.53L169.255 137.61C169.354 137.664 169.436 137.743 169.493 137.837C169.549 137.931 169.579 138.038 169.579 138.147Z" fill="#3ACC94"/>
<path id="Vector_104" d="M171.305 140.28L171.169 140.244C170.837 140.165 170.671 139.924 170.789 139.706L175.256 131.796C175.354 131.68 175.483 131.595 175.627 131.552C175.771 131.51 175.924 131.51 176.068 131.554L176.199 131.591C176.531 131.669 176.691 131.905 176.573 132.128L172.124 140.026C172.025 140.144 171.896 140.23 171.751 140.275C171.606 140.32 171.451 140.322 171.305 140.28Z" fill="#3ACC94"/>
<path id="Vector_105" d="M66.1403 120.387C78.9252 120.387 89.2894 114.878 89.2894 108.082C89.2894 101.286 78.9252 95.7773 66.1403 95.7773C53.3554 95.7773 42.9912 101.286 42.9912 108.082C42.9912 114.878 53.3554 120.387 66.1403 120.387Z" fill="url(#paint9_linear_1388_63876)"/>
</g>
<g id="React">
<path d="M53.5789 112.479H56.1768L53.7821 108.396C55.0448 107.969 55.7269 107.102 55.7269 105.754C55.7269 103.846 54.3626 102.872 52.0259 102.872H47.7588V112.479H50.081V108.663H51.4308L53.5789 112.479ZM50.081 107.115V104.647H51.7791C52.8822 104.647 53.4047 105.02 53.4047 105.888C53.4047 106.741 52.8822 107.115 51.7791 107.115H50.081Z" fill="white" fill-opacity="0.8"/>
<path d="M60.9966 106.982C61.6497 106.982 62.1287 107.395 62.1287 108.463H59.6903C59.7774 107.462 60.2854 106.982 60.9966 106.982ZM64.2187 109.703C64.2622 109.437 64.2767 109.116 64.2767 108.876C64.2767 106.595 62.9995 105.514 61.0546 105.514C58.9356 105.514 57.3246 106.781 57.3246 109.183C57.3246 111.478 58.805 112.639 61.1272 112.639C62.1867 112.639 63.2898 112.399 64.0735 112.065L63.6381 110.611C62.8253 110.931 62.1432 111.118 61.461 111.118C60.5757 111.118 59.8935 110.798 59.7194 109.703H64.2187Z" fill="white" fill-opacity="0.8"/>
<path d="M68.2956 107.155C69.0939 107.155 69.5148 107.435 69.5148 108.196V108.276C69.1519 108.236 68.76 108.222 68.4843 108.222C66.2491 108.222 65.2477 109.076 65.2477 110.504C65.2477 111.892 66.1911 112.639 67.4538 112.639C68.2521 112.639 68.9777 112.332 69.5438 111.758C69.5873 112.212 69.6599 112.372 69.7325 112.479H71.9386C71.866 112.332 71.7934 112.052 71.7934 110.931V108.036C71.7934 106.114 70.6323 105.514 68.8036 105.514C67.5989 105.514 66.5249 105.781 65.6396 106.114L66.075 107.689C66.8587 107.382 67.5844 107.155 68.2956 107.155ZM68.3101 111.104C67.8457 111.104 67.5264 110.864 67.5264 110.291C67.5264 109.717 67.8602 109.423 68.8326 109.423C69.1229 109.423 69.2971 109.45 69.5148 109.49V110.651C69.1519 110.904 68.731 111.104 68.3101 111.104Z" fill="white" fill-opacity="0.8"/>
<path d="M78.6621 105.981C78.1977 105.727 77.5881 105.514 76.6882 105.514C74.4967 105.514 72.9582 106.795 72.9582 109.17C72.9582 111.465 74.3951 112.639 76.4996 112.639C77.3704 112.639 78.1396 112.439 78.7202 112.132L78.2703 110.624C77.8784 110.891 77.4139 111.064 76.8914 111.064C75.948 111.064 75.2949 110.491 75.2949 109.116C75.2949 107.729 75.9626 107.155 76.8479 107.155C77.3849 107.155 77.7913 107.369 78.2267 107.622L78.6621 105.981Z" fill="white" fill-opacity="0.8"/>
<path d="M79.2604 107.248H80.3199V110.544C80.3199 112.105 80.915 112.559 82.5695 112.559C83.1356 112.559 83.6291 112.505 84.0354 112.439V110.838C83.8177 110.891 83.5565 110.944 83.2807 110.944C82.8163 110.944 82.6566 110.784 82.6566 110.224V107.248H84.0354V105.674H82.6566V103.406H80.3199V105.674H79.2604V107.248Z" fill="white" fill-opacity="0.8"/>
</g>
</g>
<defs>
<linearGradient id="paint0_linear_1388_63876" x1="116" y1="-0.605659" x2="5.12039" y2="185.545" gradientUnits="userSpaceOnUse">
<stop stop-color="#147582"/>
<stop offset="1" stop-color="#77D2FF"/>
</linearGradient>
<linearGradient id="paint1_linear_1388_63876" x1="217.245" y1="95.3833" x2="39.7539" y2="256.675" gradientUnits="userSpaceOnUse">
<stop stop-color="white"/>
<stop offset="0.43" stop-color="white" stop-opacity="0.5"/>
<stop offset="1" stop-color="#148F82"/>
</linearGradient>
<radialGradient id="paint2_radial_1388_63876" cx="0" cy="0" r="1" gradientUnits="userSpaceOnUse" gradientTransform="translate(57.2085 155.733) scale(137.066 137.106)">
<stop stop-color="#B5EBFF"/>
<stop offset="1" stop-color="#4BCDFF" stop-opacity="0"/>
</radialGradient>
<linearGradient id="paint3_linear_1388_63876" x1="-7.44492" y1="219.967" x2="173.784" y2="336.022" gradientUnits="userSpaceOnUse">
<stop stop-color="white"/>
<stop offset="0.89" stop-color="#0276A2"/>
</linearGradient>
<linearGradient id="paint4_linear_1388_63876" x1="30390.7" y1="20549" x2="47403.1" y2="-9204.06" gradientUnits="userSpaceOnUse">
<stop stop-color="#1E2022"/>
<stop offset="0.89" stop-color="#02DA5D"/>
</linearGradient>
<linearGradient id="paint5_linear_1388_63876" x1="56555.4" y1="34050.6" x2="23070.8" y2="63235.4" gradientUnits="userSpaceOnUse">
<stop stop-color="#1E2022"/>
<stop offset="0.89" stop-color="#02DA5D"/>
</linearGradient>
<linearGradient id="paint6_linear_1388_63876" x1="46.2541" y1="35.3909" x2="11.6766" y2="70.179" gradientUnits="userSpaceOnUse">
<stop stop-color="#0376A1"/>
<stop offset="1" stop-color="#004F6C"/>
</linearGradient>
<linearGradient id="paint7_linear_1388_63876" x1="66.1413" y1="95.7771" x2="43.0893" y2="118.872" gradientUnits="userSpaceOnUse">
<stop stop-color="#0376A1"/>
<stop offset="1" stop-color="#004F6C"/>
</linearGradient>
<linearGradient id="paint8_linear_1388_63876" x1="26.3156" y1="61.7915" x2="0.519439" y2="87.5175" gradientUnits="userSpaceOnUse">
<stop stop-color="#0376A1"/>
<stop offset="1" stop-color="#004F6C"/>
</linearGradient>
<linearGradient id="paint9_linear_1388_63876" x1="66.1403" y1="95.7773" x2="43.0883" y2="118.872" gradientUnits="userSpaceOnUse">
<stop stop-color="#0376A1"/>
<stop offset="1" stop-color="#004F6C"/>
</linearGradient>
<clipPath id="clip0_1388_63876">
<rect width="221" height="352" fill="white"/>
</clipPath>
</defs>
</svg>
