<svg width="290" height="150" viewBox="0 0 290 150" fill="none" xmlns="http://www.w3.org/2000/svg">
<g id="laptop ">
<g id="Layer 2">
<path id="Vector" opacity="0.82" d="M210.29 1.01355C210.29 1.01355 172.896 8.50168 134.724 21.9666C96.552 35.4315 71.4671 40.6972 79.0209 63.1444C84.0148 77.9764 84.2739 116.424 101.157 114.053C151.586 106.971 98.1034 113.305 98.1034 113.305L126.344 132.021L227.856 132.77L210.29 1.01355Z" fill="url(#paint0_radial_1388_64350)"/>
<path id="Vector_2" d="M245.463 142.905L123.67 142.7C121.135 142.727 118.625 142.213 116.316 141.195C114.007 140.178 111.956 138.681 110.305 136.81L76.5176 97.4735C74.2984 94.8944 76.3874 91.142 79.9994 91.2173L176.818 93.3688L243.876 142.7" fill="#87D2C5"/>
<path id="Vector_3" d="M90.9871 26.3953C90.8474 26.1817 90.679 25.8816 90.4945 25.5909C90.3099 25.3001 90.1211 25.0147 89.9836 24.7984C89.846 24.582 89.7387 24.4446 89.7387 24.4446L88.9784 24.3458L88.2464 24.2728L86.8849 24.911C86.8849 24.911 86.7585 24.7419 86.5671 24.4932C86.3756 24.2446 86.1298 23.903 85.8594 23.5815C85.3388 22.9238 84.7759 22.3029 84.7759 22.3029L85.6788 21.1014C85.6788 21.1014 85.743 20.7194 85.7698 20.3736L85.8304 19.6227L85.5361 19.309C85.3598 19.1192 85.1146 18.8772 84.8743 18.6346C84.634 18.3919 84.3806 18.1436 84.19 17.9775L83.8765 17.688L83.2353 17.8346C82.9107 17.9157 82.5935 18.0153 82.5935 18.0153L81.6495 19.1684L81.258 18.8325C81.0276 18.6276 80.7066 18.3754 80.3877 18.1205C80.0688 17.8657 79.7372 17.6269 79.4946 17.4429L79.0922 17.1375L79.472 15.5434L79.3161 14.7317C79.2296 14.3172 79.1382 13.9032 79.1382 13.9032C79.0281 13.8225 78.9138 13.7473 78.7959 13.678L78.0329 13.1982C77.477 12.8582 76.9138 12.5385 76.9138 12.5385C76.9138 12.5385 76.6614 12.7346 76.4164 12.9493L75.9333 13.3754L75.5174 14.9593L75.395 14.8966C75.2936 14.8371 75.1888 14.7834 75.081 14.7359C74.8194 14.6149 74.4785 14.438 74.122 14.2752C73.7655 14.1124 73.4296 13.9739 73.1677 13.8699L72.7339 13.7044L72.5801 11.8648C72.5801 11.8648 72.3952 11.4575 72.2005 11.0513C72.0058 10.6452 71.802 10.245 71.802 10.245L71.4518 10.1301C71.2383 10.0542 70.9539 9.96761 70.6673 9.8837C70.3807 9.79979 70.0969 9.71797 69.8844 9.66871L69.5193 9.57256L69.2199 10.2069C69.0647 10.5199 68.9459 10.826 68.9459 10.826L69.0418 12.6217L68.6255 12.5513C68.3671 12.493 68.0296 12.4567 67.693 12.4081C67.3565 12.3594 67.0141 12.3237 66.7699 12.2977C66.6336 12.2804 66.4957 12.2706 66.3536 12.2661L65.6466 10.3729L65.0824 9.64761C64.791 9.28006 64.4947 8.91311 64.4947 8.91311C64.4947 8.91311 64.3575 8.90807 64.1595 8.91291L63.4553 8.9385C62.9252 8.96705 62.4117 9.00813 62.4117 9.00813C62.4117 9.00813 62.3673 9.3707 62.3517 9.76374L62.3188 10.5184L62.9545 12.4351L62.8497 12.4503C62.7813 12.4587 62.6869 12.4776 62.5709 12.5015C62.3464 12.5509 62.0459 12.6072 61.7452 12.6805L60.9404 12.9055L60.5867 13.029L59.4223 11.2841L58.7257 10.7039L58.009 10.1601L57.7359 10.2931C57.573 10.3763 57.3404 10.4583 57.1275 10.5767L56.5307 10.8733C56.44 10.9171 56.3528 10.9675 56.2699 11.0243L56.45 11.8501L56.6435 12.6646L57.76 14.442L57.467 14.6505C57.2929 14.7811 57.0459 14.9426 56.8277 15.1345C56.5238 15.3772 56.2336 15.6358 55.9583 15.9092L54.4483 14.4448C54.4483 14.4448 54.0651 14.2488 53.6949 14.0755L52.9348 13.7314L52.7314 13.9604C52.5799 14.1236 52.4417 14.2982 52.318 14.4824C52.1774 14.66 52.0346 14.8402 51.9084 15.0331L51.7387 15.292L52.1356 16.0669C52.3345 16.4676 52.5481 16.8666 52.5481 16.8666L54.0289 18.3735L53.838 18.6981C53.7188 18.8876 53.5864 19.1663 53.4507 19.438C53.3149 19.7097 53.1963 19.9988 53.1053 20.214L52.9536 20.5727L51.2461 19.5528L50.4982 19.4161L49.7457 19.3189C49.7457 19.3189 49.6993 19.4387 49.6476 19.6321L49.442 20.3376C49.311 20.8541 49.2014 21.3825 49.2014 21.3825C49.2014 21.3825 49.4851 21.7486 49.7912 22.1144C50.0973 22.4801 50.3877 22.8211 50.3877 22.8211L52.0627 23.8766L52.0401 23.9887C52.0272 24.0607 52.011 24.1647 52.0001 24.29C51.9733 24.541 51.9273 24.8722 51.8978 25.216C51.8683 25.5597 51.8507 25.8995 51.8454 26.1626L51.8418 26.5906L50.087 26.1206C50.087 26.1206 49.7502 26.1838 49.4223 26.258L48.771 26.4228L48.7844 26.7905C48.7853 27.0066 48.8128 27.3117 48.8287 27.6037C48.8446 27.8957 48.8693 28.1988 48.896 28.4215L48.9405 28.7999L50.3684 29.8832L52.1228 30.4261L52.1981 30.8882C52.2366 31.1629 52.3223 31.5338 52.3977 31.9011C52.4731 32.2684 52.5699 32.6477 52.6304 32.9391C52.6618 33.0975 52.703 33.2538 52.7537 33.4074L51.145 33.522L50.6313 33.9032L50.1213 34.3132C50.1213 34.3132 50.1692 34.4701 50.2542 34.7026C50.3393 34.9351 50.4343 35.2441 50.5413 35.5492C50.772 36.155 50.9982 36.7833 50.9982 36.7833C50.9982 36.7833 51.3746 36.9655 51.7687 37.1309L52.5238 37.4368L54.1581 37.3846L54.2119 37.5117C54.2476 37.5947 54.2975 37.7101 54.3651 37.8476C54.4955 38.1231 54.6565 38.4994 54.8406 38.8631C55.0248 39.2268 55.2202 39.5818 55.3629 39.8753L55.6127 40.3232L54.2978 41.014L53.9782 41.6071C53.8175 41.9159 53.6876 42.2136 53.6876 42.2136L53.9094 42.58C54.0469 42.7964 54.2153 43.0964 54.4047 43.3866C54.5941 43.6768 54.7759 43.9654 54.9156 44.1791C55.0553 44.3928 55.1556 44.5335 55.1556 44.5335L55.9076 44.626L56.6397 44.699L57.9926 44.0715C57.9926 44.0715 58.1184 44.2359 58.3077 44.4872C58.497 44.7385 58.7498 45.0768 59.0203 45.3983C59.5408 46.0561 60.101 46.6749 60.101 46.6749L59.203 47.8758C59.203 47.8758 59.1388 48.2578 59.1099 48.6063L59.0465 49.355L59.3775 49.6837C59.5538 49.8735 59.7941 50.1161 60.0393 50.3581C60.2845 50.6002 60.533 50.8491 60.7209 51.0131L61.0343 51.3027L61.6911 51.142C62.0157 51.0609 62.3273 50.9571 62.3273 50.9571L63.2762 49.8034L63.6678 50.1392C63.896 50.3469 64.217 50.5991 64.5359 50.8539C64.8548 51.1088 65.1864 51.3475 65.429 51.5316L65.8315 51.8369L65.4516 53.431L65.5944 54.2371L65.7744 55.0629C65.8845 55.1436 65.9988 55.2188 66.1167 55.2881L66.8775 55.7706C67.4335 56.1106 67.9939 56.4282 67.9939 56.4282C67.9939 56.4282 68.2512 56.2314 68.5011 56.0162L68.9841 55.5901L69.4227 54.0277L69.543 54.0931C69.6439 54.1536 69.7488 54.2073 69.857 54.2538C70.1165 54.3775 70.4617 54.549 70.8182 54.7118C71.1747 54.8746 71.5085 55.0159 71.7697 55.115L72.2041 55.2853L72.3552 57.1228C72.3552 57.1228 72.538 57.5328 72.7327 57.939L73.1339 58.7474L73.4862 58.8596C73.6997 58.9355 73.987 59.0242 74.2701 59.1012C74.5533 59.1783 74.8433 59.269 75.0537 59.321L75.4209 59.4144L75.7191 58.8094C75.8716 58.4943 75.9931 58.1903 75.9931 58.1903L75.8807 56.3821L76.3108 56.463C76.5686 56.5164 76.9067 56.5575 77.2432 56.6062C77.5798 56.6548 77.9111 56.6822 78.1666 56.6995C78.4221 56.7167 78.5829 56.731 78.5829 56.731L79.29 58.6243L79.8492 59.3502L80.4418 60.0841C80.4418 60.0841 80.5763 60.087 80.7764 60.0795L81.5063 60.0605C82.0364 60.0319 82.5499 59.9908 82.5499 59.9908C82.5499 59.9908 82.5916 59.6262 82.6121 59.2325L82.6428 58.4805L82.0005 56.589L82.1074 56.5711C82.2008 56.5622 82.2933 56.546 82.3841 56.5226C82.6085 56.4732 82.9111 56.4142 83.2125 56.3457L84.0173 56.1207L84.3683 55.9951L85.5382 57.7441L86.2369 58.3217L86.9536 58.8655L87.2334 58.7462C87.3963 58.663 87.6381 58.5751 87.8418 58.4626L88.4386 58.166C88.5301 58.1243 88.6166 58.0729 88.6967 58.0129L88.5193 57.1892L88.3231 56.3727L87.2109 54.5898L87.5039 54.3814C87.6807 54.2528 87.9277 54.0914 88.1459 53.8994C88.4509 53.658 88.7412 53.3993 89.0153 53.1247L90.5137 54.576C90.5137 54.576 90.899 54.7693 91.2671 54.9453L92.0293 55.2867L92.2306 55.0604C92.3414 54.9205 92.4948 54.7267 92.6439 54.5384C92.7917 54.3631 92.9284 54.1792 93.0535 53.9877L93.2233 53.7288L92.8269 52.9198C92.628 52.5191 92.4144 52.1201 92.4144 52.1201L90.9315 50.6159L91.1196 50.2892C91.2416 50.1018 91.3712 49.8211 91.5069 49.5493C91.6427 49.2776 91.7613 48.9885 91.855 48.7754L92.004 48.4146L93.7143 49.4366L94.4483 49.5629L95.1981 49.658C95.1981 49.658 95.2445 49.5381 95.2962 49.3447L95.5018 48.6393C95.6328 48.1228 95.7446 47.5916 95.7446 47.5916C95.7446 47.5916 95.4614 47.2303 95.1615 46.8735C94.8616 46.5168 94.565 46.1668 94.565 46.1668L92.8659 45.0973L92.8857 44.9831C92.8992 44.9159 92.9154 44.8118 92.9285 44.6839C92.9546 44.4281 93.0006 44.0969 93.0307 43.7579C93.0609 43.419 93.0778 43.0743 93.0831 42.8113L93.084 42.3812L94.8415 42.8533C94.8415 42.8533 95.1783 42.7901 95.5056 42.7111L96.1596 42.5483L96.1463 42.1807C96.1453 41.9646 96.1157 41.6621 96.0998 41.3701C96.0839 41.0781 96.0592 40.7751 96.0298 40.5503L95.9858 40.1767L95.2813 39.612L94.5426 39.0515L92.768 38.5062L92.6927 38.0441C92.6515 37.7674 92.5706 37.3959 92.4903 37.0292C92.4101 36.6624 92.3154 36.2805 92.2577 35.9912C92.2274 35.8328 92.1878 35.6762 92.1392 35.5222L93.7458 35.4103L94.2589 35.0243L94.7667 34.6171C94.7667 34.6171 94.7216 34.4623 94.636 34.225L94.3489 33.3783C94.1182 32.7725 93.8764 32.1584 93.8764 32.1584C93.8764 32.1584 93.5049 31.9755 93.1087 31.8127L92.353 31.5021L90.7187 31.5543L90.6648 31.4273C90.634 31.3436 90.5842 31.2282 90.5165 31.0908C90.3834 30.8131 90.2252 30.439 90.041 30.0753C89.8569 29.7116 89.6559 29.3523 89.5166 29.0658L89.2662 28.613L90.5811 27.9222L90.9013 27.3339C91.0593 27.023 91.1913 26.7226 91.1913 26.7226L90.9871 26.3953ZM72.0061 19.7165C71.891 19.0261 72.3195 18.563 72.9582 18.6815C73.0503 18.7011 73.1404 18.7291 73.2273 18.7651C76.5035 20.1917 79.4189 22.3081 81.7648 24.9629C82.2927 25.5444 82.4036 26.335 82.0229 26.7266C81.9684 26.779 81.9065 26.8234 81.839 26.8585L76.2048 29.6603C76.0906 29.6987 75.9674 29.7036 75.8502 29.6744C75.733 29.6451 75.627 29.5831 75.5452 29.4958C75.0168 29.0266 74.4416 28.6104 73.8284 28.2535C73.7091 28.1813 73.6062 28.086 73.5261 27.9733C73.4461 27.8607 73.3905 27.7332 73.3629 27.5988L72.0061 19.7165ZM59.0211 21.8598C58.9604 21.6967 58.9402 21.5219 58.9622 21.3498C58.9841 21.1777 59.0476 21.0133 59.1474 20.8702C59.9951 19.8703 61.0439 19.0515 62.2289 18.4646C63.414 17.8776 64.7102 17.5349 66.0374 17.4576C66.6291 17.407 67.3238 17.934 67.5893 18.6351C67.6262 18.731 67.6525 18.8304 67.6678 18.9316L69.0037 26.8067C69.0363 26.9107 69.0268 27.0228 68.9771 27.1198C68.9274 27.2168 68.8413 27.2913 68.7367 27.3278C68.2393 27.4678 67.7742 27.6996 67.3663 28.0108C67.2658 28.0714 67.1476 28.098 67.0299 28.0865C66.9123 28.0751 66.8016 28.0262 66.7149 27.9473L59.7337 22.8657C59.3937 22.6108 59.1416 22.2601 59.0114 21.8611L59.0211 21.8598ZM75.5241 32.9773C76.9791 35.2356 76.7772 37.7529 75.0781 38.6001C73.379 39.4474 70.821 38.3033 69.366 36.045C67.9111 33.7867 68.1179 31.2688 69.8169 30.4216C71.5245 29.5636 74.0734 30.7136 75.5256 32.9698L75.5241 32.9773ZM58.3321 36.6106C56.9344 33.3103 56.3711 29.9539 56.6941 26.9772C56.7572 26.3402 57.3416 26.0815 57.9851 26.3889C58.078 26.433 58.167 26.4847 58.2511 26.5434L65.2467 31.6402C65.3596 31.7208 65.4535 31.824 65.5222 31.943C65.5909 32.062 65.6327 32.1939 65.6448 32.3299C65.6785 32.9831 65.7874 33.6307 65.9695 34.2604C66.0145 34.3629 66.0213 34.4776 65.9884 34.5842C65.9556 34.6909 65.8854 34.7827 65.79 34.8435L60.1558 37.6454C59.6616 37.8906 58.9027 37.5561 58.4992 36.901C58.4395 36.8089 58.3878 36.712 58.3446 36.6115L58.3321 36.6106ZM72.8494 49.2882C72.9618 49.9765 72.5382 50.439 71.8968 50.3184C71.8037 50.3009 71.7128 50.2737 71.6255 50.2375C68.3424 48.7986 65.4218 46.6708 63.0711 44.0053C62.5474 43.4184 62.4344 42.6306 62.8228 42.2404C62.8766 42.1889 62.9378 42.1453 63.0045 42.1112L68.6339 39.31C68.7491 39.27 68.874 39.2647 68.9925 39.2948C69.1111 39.3249 69.2178 39.3889 69.299 39.4787C69.8323 39.9559 70.4127 40.3804 71.0314 40.7458C71.1517 40.816 71.2552 40.9106 71.335 41.0232C71.4148 41.1358 71.4691 41.2638 71.4942 41.3984L72.8494 49.2882ZM85.8829 47.117C85.9441 47.2795 85.9647 47.4539 85.9431 47.6255C85.9215 47.7972 85.8584 47.9612 85.7588 48.104C84.9076 49.1105 83.8534 49.9346 82.6617 50.5249C81.47 51.1152 80.1663 51.4593 78.8316 51.5357C78.2392 51.5816 77.5419 51.0524 77.2797 50.3582C77.2466 50.2603 77.2194 50.1606 77.1984 50.0596L75.8493 42.1788C75.8169 42.075 75.8259 41.9631 75.8744 41.8657C75.9229 41.7682 76.0074 41.6925 76.1108 41.6536C76.6264 41.517 77.1072 41.2778 77.5234 40.9508C77.6244 40.8898 77.7433 40.8632 77.8615 40.8751C77.9798 40.8869 78.0909 40.9366 78.1775 41.0164L85.1752 46.1105C85.5056 46.3651 85.7479 46.7129 85.8691 47.1066L85.8829 47.117ZM86.5493 32.3448C87.9629 35.6528 88.5324 39.0182 88.2057 42.0051C88.1426 42.642 87.5582 42.9007 86.9098 42.5939C86.8183 42.5499 86.7309 42.498 86.6487 42.4389L79.651 37.3447C79.5398 37.2632 79.4473 37.16 79.3792 37.0416C79.3111 36.9231 79.269 36.7922 79.2556 36.6571C79.2247 35.99 79.1148 35.3285 78.9281 34.6857C78.8823 34.5833 78.8752 34.4684 78.9081 34.3615C78.941 34.2547 79.0117 34.1629 79.1075 34.1025L84.7369 31.3013C85.2311 31.056 85.9899 31.3906 86.3928 32.0409C86.4523 32.132 86.5031 32.2282 86.5447 32.3284L86.5493 32.3448Z" fill="url(#paint1_linear_1388_64350)"/>
<path id="Vector_4" opacity="0.5" d="M122.007 45.2163L121.783 45.2279C121.757 45.2216 121.734 45.2103 121.713 45.1946C121.692 45.1789 121.675 45.1591 121.663 45.1366C121.626 45.0971 121.605 45.0463 121.602 44.9928L121.637 44.762C121.657 44.6226 121.675 44.4363 121.694 44.2473C121.734 43.8693 121.75 43.4693 121.75 43.4693C121.742 43.4082 121.712 43.3523 121.665 43.3113C121.628 43.2644 121.573 43.2339 121.513 43.2267C121.513 43.2267 121.161 43.2697 120.817 43.3367C120.473 43.4036 120.152 43.4924 120.152 43.4924C120.127 43.4919 120.102 43.4863 120.08 43.476C120.057 43.4657 120.037 43.4508 120.02 43.4323C119.979 43.3958 119.95 43.3475 119.937 43.2939C119.937 43.2939 119.932 42.9042 119.905 42.4975L119.858 41.9343L119.829 41.677C119.808 41.6184 119.771 41.5671 119.722 41.5293C119.672 41.4916 119.612 41.4691 119.549 41.4646L119.35 41.5351C119.229 41.5855 119.072 41.6481 118.921 41.7149L118.509 41.9075L118.328 42.0006C118.305 42.0065 118.28 42.0064 118.256 42.0003C118.233 41.9941 118.212 41.9822 118.195 41.9657C118.149 41.9354 118.115 41.8908 118.098 41.839C118.098 41.839 118.029 41.4277 117.932 41.0126C117.835 40.5975 117.729 40.1712 117.729 40.1712C117.71 40.1173 117.674 40.0712 117.626 40.0394C117.577 40.0076 117.52 39.9919 117.462 39.9945C117.462 39.9945 117.18 40.1752 116.921 40.3728C116.791 40.4692 116.662 40.5754 116.568 40.6547L116.414 40.7865C116.394 40.7974 116.371 40.8019 116.348 40.7995C116.325 40.7972 116.304 40.788 116.286 40.7733C116.238 40.7458 116.198 40.7051 116.173 40.6562C116.173 40.6562 116.142 40.5532 116.09 40.3983C116.038 40.2435 115.969 40.0312 115.904 39.8133C115.839 39.5955 115.748 39.3886 115.685 39.2301L115.582 38.97C115.557 38.9188 115.515 38.8778 115.462 38.8542C115.41 38.8306 115.351 38.8258 115.295 38.8406C115.295 38.8406 115.06 39.0748 114.847 39.3386L114.437 39.8566C114.42 39.8697 114.4 39.8776 114.378 39.8795C114.357 39.8814 114.336 39.8771 114.317 39.8672C114.266 39.8509 114.223 39.8179 114.194 39.7737C114.194 39.7737 114.007 39.3654 113.799 38.9547C113.591 38.5441 113.361 38.1388 113.361 38.1388C113.345 38.1117 113.325 38.088 113.3 38.069C113.275 38.05 113.246 38.0362 113.215 38.0283C113.194 38.0165 113.168 38.012 113.144 38.0157C113.119 38.0193 113.096 38.0309 113.079 38.0485C113.079 38.0485 112.896 38.3531 112.743 38.6539C112.668 38.8053 112.58 38.9733 112.54 39.0805L112.455 39.2779C112.442 39.2946 112.424 39.3072 112.404 39.3138C112.383 39.3204 112.361 39.3209 112.341 39.3151C112.29 39.2988 112.247 39.2658 112.218 39.2216L112.066 38.9777C111.977 38.8302 111.852 38.6375 111.721 38.4455C111.591 38.2536 111.458 38.0594 111.357 37.9159L111.185 37.6746C111.079 37.5939 110.964 37.569 110.906 37.6486L110.833 37.8595C110.793 37.9889 110.737 38.1503 110.694 38.3349C110.59 38.699 110.523 39.0432 110.523 39.0432C110.517 39.0622 110.503 39.0782 110.485 39.0883C110.467 39.0984 110.446 39.1019 110.426 39.0981C110.401 39.0981 110.376 39.0929 110.353 39.0831C110.33 39.0732 110.31 39.0589 110.293 39.0408C110.293 39.0408 110.008 38.6824 109.705 38.3238C109.553 38.1421 109.4 37.968 109.282 37.839L109.083 37.6211C109.063 37.6011 109.039 37.5861 109.012 37.577C108.985 37.568 108.956 37.5654 108.927 37.5692C108.904 37.5683 108.881 37.5753 108.862 37.5891C108.843 37.6028 108.829 37.6226 108.823 37.6449L108.794 37.8848C108.774 38.0292 108.755 38.2231 108.74 38.4114L108.704 38.9383L108.696 39.1805C108.696 39.2015 108.689 39.2221 108.676 39.2387C108.663 39.2554 108.644 39.2671 108.624 39.2719C108.6 39.2755 108.575 39.2738 108.552 39.2669C108.529 39.26 108.507 39.2481 108.489 39.2321L108.287 39.0295C108.163 38.9039 107.996 38.7465 107.83 38.5939C107.492 38.2797 107.136 37.9777 107.136 37.9777C107.115 37.9601 107.09 37.9482 107.063 37.9434C107.037 37.9386 107.009 37.941 106.983 37.9503C106.96 37.9574 106.939 37.9713 106.925 37.9902C106.91 38.009 106.901 38.0319 106.9 38.0556C106.9 38.0556 106.909 38.4621 106.941 38.8632C106.973 39.2643 107.027 39.6776 107.027 39.6776C107.027 39.6986 107.02 39.7191 107.007 39.7358C106.994 39.7525 106.975 39.7642 106.955 39.769C106.933 39.7772 106.91 39.7799 106.887 39.7768C106.865 39.7736 106.844 39.7647 106.826 39.7509L106.115 39.2113C105.952 39.0817 105.781 38.961 105.604 38.8499L105.384 38.6821C105.361 38.67 105.336 38.664 105.31 38.6647C105.284 38.6654 105.259 38.6728 105.237 38.6861C105.215 38.6975 105.198 38.7151 105.186 38.7366C105.175 38.7581 105.17 38.7823 105.173 38.8062L105.218 39.0665C105.248 39.2267 105.289 39.4352 105.342 39.6347L105.548 40.4657C105.554 40.4866 105.552 40.5086 105.544 40.5288C105.536 40.5489 105.522 40.5663 105.504 40.5784C105.487 40.5919 105.466 40.6004 105.445 40.6028C105.423 40.6051 105.401 40.6013 105.382 40.5918C105.382 40.5918 105.015 40.3708 104.629 40.1621C104.436 40.0554 104.244 39.9584 104.111 39.8885L103.867 39.7736C103.831 39.7634 103.792 39.7671 103.759 39.7839C103.726 39.8007 103.7 39.8293 103.688 39.8639C103.68 39.8891 103.679 39.9157 103.685 39.9413L103.771 40.2062C103.823 40.3659 103.898 40.5776 103.968 40.7997C104.039 41.0218 104.128 41.214 104.188 41.3704C104.222 41.458 104.255 41.5456 104.293 41.6277C104.302 41.649 104.304 41.6722 104.3 41.6948C104.295 41.7173 104.285 41.7383 104.269 41.7552C104.257 41.7726 104.24 41.7857 104.22 41.7923C104.2 41.799 104.179 41.7988 104.159 41.7918C104.159 41.7918 103.776 41.6251 103.391 41.4835C103.006 41.3419 102.611 41.219 102.611 41.219C102.588 41.2151 102.564 41.2181 102.542 41.2276C102.52 41.237 102.502 41.2526 102.489 41.2722C102.474 41.2949 102.464 41.3206 102.461 41.3473C102.457 41.374 102.461 41.4011 102.47 41.4263C102.47 41.4263 102.669 41.8481 102.881 42.2532C102.985 42.4561 103.093 42.6534 103.177 42.8065L103.32 43.0566C103.357 43.1513 103.32 43.2382 103.24 43.2485L103.226 43.2379L102.985 43.1795C102.845 43.148 102.654 43.1055 102.465 43.0679C102.275 43.0303 102.076 42.994 101.936 42.9723L101.693 42.9341C101.669 42.9341 101.646 42.9417 101.627 42.9559C101.607 42.9701 101.593 42.99 101.586 43.0126C101.577 43.0391 101.573 43.0672 101.574 43.0952C101.576 43.1232 101.584 43.1505 101.596 43.1754C101.596 43.1754 101.659 43.2717 101.754 43.4235C101.849 43.5753 101.973 43.7631 102.106 43.9572C102.372 44.3454 102.645 44.7128 102.645 44.7128C102.661 44.7329 102.67 44.7565 102.673 44.7813C102.676 44.8062 102.673 44.8314 102.663 44.8547C102.665 44.8747 102.658 44.8945 102.646 44.9104C102.633 44.9263 102.615 44.9371 102.595 44.9406C102.595 44.9406 102.229 44.9109 101.858 44.9042C101.67 44.8988 101.491 44.9046 101.355 44.9073L101.125 44.9147C101.103 44.9221 101.085 44.9355 101.071 44.9532C101.057 44.9709 101.048 44.9922 101.046 45.0144C101.039 45.0426 101.038 45.0719 101.044 45.1003C101.049 45.1287 101.06 45.1557 101.077 45.1795C101.077 45.1795 101.149 45.2745 101.262 45.4091C101.375 45.5436 101.529 45.7275 101.681 45.9044C101.832 46.0812 101.987 46.2525 102.102 46.3794C102.216 46.5063 102.3 46.5924 102.3 46.5924C102.317 46.6119 102.33 46.6348 102.337 46.6595C102.345 46.6843 102.347 46.7103 102.343 46.736C102.344 46.757 102.337 46.7775 102.324 46.7942C102.311 46.8109 102.292 46.8226 102.271 46.8274L102.05 46.8635C101.918 46.8781 101.746 46.9078 101.571 46.9429C101.231 47.0043 100.89 47.0908 100.89 47.0908C100.868 47.1024 100.85 47.121 100.839 47.1435C100.829 47.166 100.826 47.1912 100.832 47.2152C100.832 47.2775 100.854 47.3378 100.893 47.3862C100.893 47.3862 101.228 47.7158 101.565 48.0252C101.903 48.3345 102.253 48.6273 102.253 48.6273C102.291 48.6655 102.313 48.717 102.314 48.7711C102.319 48.7919 102.318 48.8139 102.31 48.8341C102.302 48.8543 102.288 48.8716 102.269 48.8837C102.269 48.8837 101.958 48.9887 101.639 49.1145C101.32 49.2404 101.022 49.3908 101.022 49.3908C101.005 49.4096 100.992 49.4325 100.986 49.4572C100.98 49.4819 100.98 49.5077 100.987 49.5322C100.996 49.5925 101.023 49.6485 101.065 49.6936L101.778 50.2353C101.936 50.3622 102.103 50.4784 102.277 50.5834L102.495 50.749C102.54 50.7817 102.571 50.8303 102.58 50.8847C102.59 50.9051 102.593 50.9281 102.589 50.9505C102.585 50.9728 102.574 50.9935 102.558 51.0094L102.384 51.1215C102.259 51.1998 102.133 51.2857 102.013 51.3759C101.748 51.5693 101.493 51.7838 101.493 51.7838C101.473 51.8373 101.47 51.8957 101.485 51.9504C101.501 52.0052 101.533 52.0535 101.579 52.0885C101.579 52.0885 101.964 52.3145 102.343 52.514C102.723 52.7135 103.1 52.8983 103.1 52.8983C103.125 52.9117 103.146 52.9298 103.162 52.9516C103.179 52.9734 103.191 52.9984 103.197 53.0251C103.209 53.0459 103.215 53.0694 103.215 53.0934C103.215 53.1174 103.208 53.141 103.196 53.1619L103.055 53.307L102.752 53.6446L102.335 54.1709C102.327 54.1982 102.324 54.2268 102.327 54.255C102.331 54.2832 102.339 54.3105 102.353 54.3352C102.375 54.3953 102.417 54.446 102.472 54.4789C102.472 54.4789 102.571 54.5183 102.715 54.5792C102.86 54.6401 103.056 54.7141 103.252 54.7782C103.647 54.9234 104.018 55.0321 104.018 55.0321C104.069 55.0564 104.109 55.098 104.131 55.1492C104.146 55.1694 104.155 55.1926 104.159 55.2171C104.163 55.2416 104.161 55.2667 104.154 55.2905C104.154 55.2905 103.979 55.5742 103.814 55.879C103.649 56.1838 103.516 56.5043 103.516 56.5043C103.508 56.5638 103.523 56.6239 103.557 56.673C103.584 56.7285 103.63 56.7727 103.687 56.798C103.687 56.798 104.067 56.883 104.465 56.9458C104.65 56.984 104.854 57.0197 104.982 57.033L105.217 57.0647C105.243 57.0716 105.268 57.0835 105.29 57.0999C105.311 57.1164 105.329 57.1369 105.343 57.1603C105.359 57.1802 105.372 57.2031 105.379 57.2277C105.386 57.2524 105.389 57.2783 105.386 57.3039L105.31 57.5126C105.268 57.6399 105.212 57.8062 105.168 57.981C105.069 58.327 104.985 58.6934 104.985 58.6934C104.991 58.7568 105.015 58.8171 105.054 58.8677C105.093 58.9183 105.145 58.9574 105.206 58.9806C105.206 58.9806 105.589 59.0056 105.954 59.008C106.134 59.012 106.313 59.0062 106.452 59.0007L106.673 58.987C106.721 58.9999 106.764 59.0259 106.798 59.0621C106.831 59.0983 106.853 59.1432 106.861 59.1914L106.85 59.2053L106.818 59.4382C106.799 59.5748 106.777 59.7617 106.76 59.9529C106.72 60.3309 106.704 60.7308 106.704 60.7308C106.715 60.7927 106.743 60.85 106.787 60.8956C106.83 60.9413 106.886 60.9732 106.949 60.9876C106.949 60.9876 107.301 60.9445 107.642 60.8754C107.983 60.8064 108.309 60.7219 108.309 60.7219C108.334 60.7216 108.359 60.7269 108.382 60.7373C108.405 60.7477 108.425 60.7629 108.441 60.7819C108.483 60.818 108.512 60.8665 108.524 60.9203C108.524 60.9203 108.529 61.31 108.556 61.7167C108.572 61.9235 108.587 62.1303 108.603 62.2799L108.633 62.5372C108.65 62.5988 108.687 62.6532 108.738 62.6926C108.758 62.7135 108.782 62.7299 108.809 62.7405C108.837 62.7512 108.866 62.7559 108.895 62.7543L109.094 62.6838C109.212 62.6362 109.372 62.5708 109.523 62.504L109.935 62.3114L110.116 62.2183C110.139 62.2134 110.164 62.2139 110.187 62.22C110.21 62.2261 110.232 62.2375 110.249 62.2533C110.298 62.2827 110.333 62.3285 110.349 62.3821C110.349 62.3821 110.415 62.7912 110.512 63.2063C110.609 63.6214 110.717 64.0499 110.717 64.0499C110.739 64.1102 110.782 64.1604 110.839 64.1908C110.86 64.2074 110.885 64.219 110.911 64.2246C110.938 64.2302 110.966 64.2297 110.992 64.2231C110.992 64.2231 111.276 64.0397 111.538 63.8441C111.668 63.7477 111.794 63.6394 111.889 63.565L112.042 63.4284C112.063 63.42 112.086 63.417 112.109 63.4197C112.132 63.4223 112.154 63.4306 112.173 63.4437C112.223 63.4681 112.261 63.5101 112.281 63.5615L112.366 63.8214C112.416 63.9741 112.487 64.1837 112.553 64.4064C112.618 64.6291 112.709 64.8263 112.771 64.9848L112.877 65.247C112.902 65.2977 112.943 65.3382 112.995 65.3614C113.047 65.3847 113.106 65.3892 113.161 65.3743C113.161 65.3743 113.396 65.1401 113.607 64.879L114.017 64.361C114.034 64.3475 114.054 64.339 114.076 64.3367C114.098 64.3343 114.12 64.3381 114.139 64.3477C114.165 64.3542 114.189 64.3658 114.211 64.3819C114.232 64.398 114.249 64.4181 114.262 64.4411C114.262 64.4411 114.452 64.8467 114.662 65.2595C114.873 65.6723 115.098 66.0733 115.098 66.0733C115.131 66.1257 115.183 66.1648 115.243 66.1838C115.266 66.1956 115.292 66.2 115.317 66.1962C115.343 66.1924 115.366 66.1808 115.385 66.1629C115.385 66.1629 115.568 65.8583 115.715 65.5582C115.791 65.4196 115.859 65.2772 115.919 65.1316L116.005 64.9314C116.053 64.8705 116.154 64.8848 116.232 64.9617L116.382 65.2084L116.728 65.7378L117.093 66.2723C117.195 66.4158 117.267 66.5109 117.267 66.5109C117.285 66.5338 117.308 66.5524 117.334 66.5654C117.36 66.5784 117.389 66.5853 117.418 66.5858C117.44 66.592 117.463 66.5912 117.485 66.5835C117.506 66.5758 117.525 66.5616 117.537 66.543L117.609 66.3273C117.652 66.2 117.71 66.0358 117.753 65.8512C117.858 65.4871 117.922 65.1457 117.922 65.1457C117.93 65.1269 117.944 65.1111 117.962 65.1007C117.98 65.0904 118.001 65.0859 118.021 65.088C118.046 65.0878 118.071 65.0931 118.094 65.1035C118.117 65.1139 118.137 65.1291 118.153 65.1481C118.153 65.1481 118.438 65.5065 118.741 65.8651C118.895 66.049 119.048 66.2181 119.166 66.352L119.362 66.5678C119.466 66.6464 119.584 66.6385 119.628 66.5482L119.657 66.3083L119.711 65.7817L119.747 65.2549L119.755 65.0127C119.756 64.9926 119.763 64.9732 119.775 64.9572C119.788 64.9413 119.805 64.9297 119.825 64.9241C119.849 64.9195 119.873 64.9206 119.896 64.9271C119.919 64.9337 119.939 64.9456 119.957 64.9617L120.161 65.1615C120.286 65.2871 120.452 65.4445 120.621 65.5992C120.956 65.9114 121.31 66.2161 121.31 66.2161C121.332 66.2327 121.357 66.2437 121.384 66.248C121.411 66.2523 121.439 66.2498 121.465 66.2407C121.489 66.2355 121.51 66.2223 121.524 66.2036C121.539 66.1849 121.547 66.1618 121.546 66.1382C121.546 66.1382 121.536 65.7268 121.504 65.3257C121.472 64.9246 121.421 64.5135 121.421 64.5135C121.423 64.4929 121.43 64.4732 121.443 64.4568C121.456 64.4405 121.474 64.4284 121.494 64.422C121.515 64.4141 121.538 64.4116 121.561 64.4148C121.583 64.4179 121.604 64.4267 121.623 64.4402L122.336 64.9818C122.498 65.1108 122.668 65.2308 122.844 65.3412C122.925 65.3863 123 65.4428 123.065 65.509C123.088 65.5228 123.115 65.5294 123.142 65.5281C123.17 65.5268 123.196 65.5175 123.218 65.5015C123.24 65.4901 123.258 65.4725 123.269 65.451C123.28 65.4295 123.285 65.4053 123.282 65.3814L123.234 65.119C123.205 64.9637 123.164 64.7552 123.11 64.5459L122.901 63.7127C122.895 63.6919 122.897 63.6699 122.905 63.6497C122.913 63.6295 122.927 63.6122 122.945 63.6001C122.962 63.5863 122.983 63.5781 123.005 63.5766C123.028 63.5751 123.049 63.5803 123.068 63.5916C123.068 63.5916 123.435 63.8126 123.818 64.0191C124.011 64.1259 124.203 64.2229 124.344 64.2991L124.587 64.4168C124.605 64.4226 124.624 64.4247 124.642 64.4231C124.661 64.4215 124.68 64.4162 124.697 64.4076C124.714 64.3989 124.729 64.387 124.741 64.3726C124.753 64.3582 124.762 64.3416 124.768 64.3238C124.776 64.3012 124.777 64.2767 124.769 64.2539L124.681 63.9919C124.628 63.8321 124.551 63.6183 124.483 63.3984L124.263 62.8277C124.206 62.6735 124.158 62.5703 124.158 62.5703C124.151 62.5492 124.149 62.5268 124.153 62.5047C124.156 62.4827 124.165 62.4617 124.178 62.4434C124.191 62.4272 124.209 62.4152 124.229 62.409C124.249 62.4029 124.27 62.4029 124.29 62.409C124.29 62.409 124.673 62.5757 125.06 62.7146C125.447 62.8534 125.838 62.9818 125.838 62.9818C125.862 62.9873 125.887 62.9846 125.909 62.974C125.932 62.9635 125.95 62.9457 125.96 62.9237C125.978 62.9031 125.989 62.8781 125.992 62.8517C125.996 62.8252 125.991 62.7984 125.98 62.7745C125.98 62.7745 125.778 62.3506 125.568 61.9476C125.465 61.7447 125.359 61.5446 125.271 61.3894L125.129 61.1442C125.092 61.0446 125.132 60.9599 125.215 60.9517L125.453 61.0128C125.593 61.0443 125.784 61.0868 125.975 61.1217C126.167 61.1565 126.362 61.1983 126.504 61.2173L126.745 61.2582C126.769 61.2603 126.794 61.2534 126.813 61.2389C126.833 61.2244 126.847 61.2033 126.852 61.1797C126.864 61.1542 126.869 61.1263 126.868 61.0983C126.867 61.0704 126.859 61.0432 126.844 61.0191L126.687 60.7709C126.593 60.624 126.468 60.4314 126.332 60.2351C126.066 59.8469 125.798 59.4789 125.798 59.4789C125.772 59.4366 125.764 59.386 125.775 59.3376C125.776 59.3175 125.783 59.2981 125.795 59.2821C125.808 59.2662 125.826 59.2546 125.845 59.249C125.845 59.249 126.211 59.2786 126.582 59.2853C126.77 59.2908 126.947 59.2878 127.089 59.2844L127.313 59.2776C127.337 59.2721 127.359 59.2586 127.374 59.2394C127.389 59.2202 127.397 59.1965 127.396 59.1724C127.405 59.1443 127.406 59.1148 127.401 59.0862C127.395 59.0576 127.383 59.0306 127.366 59.0073C127.366 59.0073 127.293 58.9122 127.178 58.7756C127.062 58.6389 126.913 58.4593 126.762 58.2824C126.611 58.1056 126.455 57.9343 126.341 57.8074C126.226 57.6805 126.142 57.5944 126.142 57.5944C126.11 57.5538 126.095 57.5025 126.099 57.4508C126.1 57.4303 126.108 57.4105 126.121 57.3942C126.134 57.3778 126.151 57.3657 126.171 57.3594L126.389 57.3338C126.521 57.3191 126.69 57.2922 126.868 57.2543C127.207 57.1929 127.549 57.1064 127.549 57.1064C127.572 57.0952 127.59 57.0768 127.6 57.0541C127.611 57.0315 127.613 57.006 127.607 56.982C127.61 56.9505 127.606 56.9189 127.595 56.889C127.585 56.8591 127.569 56.8317 127.548 56.8083C127.548 56.8083 127.21 56.4765 126.873 56.1672C126.536 55.8578 126.183 55.5678 126.183 55.5678C126.146 55.5283 126.125 55.4776 126.122 55.424C126.119 55.4032 126.121 55.3817 126.129 55.3619C126.137 55.3421 126.15 55.3247 126.167 55.3114C126.167 55.3114 126.483 55.2058 126.797 55.0806C127.111 54.9554 127.405 54.7979 127.405 54.7979C127.425 54.7807 127.44 54.7579 127.446 54.7325C127.452 54.7072 127.451 54.6807 127.441 54.6565C127.438 54.5945 127.41 54.5365 127.363 54.4951L126.641 53.9471C126.465 53.8132 126.286 53.6773 126.137 53.5996L125.919 53.4339C125.882 53.4051 125.855 53.3656 125.843 53.3209C125.83 53.2762 125.832 53.2286 125.848 53.1846L125.859 53.1708L126.033 53.0637C126.133 52.9886 126.274 52.9056 126.404 52.8092C126.666 52.6137 126.924 52.4013 126.924 52.4013C126.939 52.3776 126.947 52.3509 126.95 52.3235C126.952 52.296 126.948 52.2684 126.937 52.2429C126.921 52.1808 126.884 52.126 126.832 52.0875C126.832 52.0875 126.447 51.8614 126.067 51.6619C125.688 51.4624 125.308 51.2755 125.308 51.2755C125.262 51.2452 125.228 51.2006 125.211 51.1488C125.202 51.1275 125.197 51.1045 125.198 51.0812C125.198 51.0579 125.204 51.035 125.214 51.0141L125.356 50.864C125.432 50.7671 125.55 50.6573 125.659 50.5314C125.768 50.4054 125.867 50.2682 125.946 50.1685L126.075 50.005C126.087 49.9458 126.08 49.8848 126.055 49.8299C126.031 49.775 125.99 49.7287 125.938 49.6971C125.938 49.6971 125.842 49.6549 125.695 49.5968C125.549 49.5387 125.354 49.4619 125.161 49.3949C124.769 49.2568 124.393 49.1439 124.393 49.1439C124.344 49.1164 124.305 49.0758 124.28 49.0268C124.255 48.985 124.247 48.935 124.26 48.8876C124.26 48.8876 124.435 48.6039 124.597 48.2969C124.759 47.99 124.897 47.6689 124.897 47.6689C124.902 47.6394 124.901 47.6092 124.894 47.5802C124.887 47.5513 124.874 47.524 124.856 47.5002C124.829 47.4447 124.783 47.4004 124.726 47.3752C124.726 47.3752 124.344 47.293 123.948 47.2274C123.756 47.1926 123.559 47.1535 123.431 47.1403L123.196 47.1085C123.17 47.1017 123.145 47.0897 123.123 47.0733C123.102 47.0569 123.084 47.0363 123.07 47.0129C123.057 46.9892 123.049 46.963 123.046 46.9359C123.044 46.9089 123.047 46.8815 123.056 46.8556L123.129 46.6497C123.174 46.5196 123.229 46.3533 123.274 46.1785C123.384 45.8187 123.454 45.464 123.454 45.464C123.45 45.3998 123.427 45.3384 123.387 45.2877C123.348 45.237 123.293 45.1993 123.231 45.1796C123.231 45.1796 122.851 45.1567 122.491 45.1536C122.331 45.1855 122.169 45.2064 122.007 45.2163ZM107.958 42.083C107.806 41.8839 107.801 41.6359 107.945 41.5327L107.988 41.5073C109.946 40.6844 112.374 40.7902 114.822 41.8206C114.927 41.8655 115.017 41.9395 115.08 42.0338C115.143 42.128 115.176 42.2383 115.176 42.3516C115.179 42.372 115.176 42.3928 115.169 42.4122L113.874 47.6942C113.861 47.752 113.826 47.8029 113.776 47.8363C113.727 47.8696 113.666 47.8828 113.607 47.873C113.607 47.873 113.607 47.873 113.593 47.8623C113.257 47.7943 112.911 47.7786 112.569 47.816C112.491 47.8161 112.414 47.7975 112.346 47.7617C112.277 47.7259 112.219 47.6741 112.176 47.6108L107.958 42.083ZM104.009 49.8195C103.694 47.2124 104.266 44.8883 105.613 43.2643C105.646 43.228 105.69 43.2017 105.737 43.1884C105.785 43.1752 105.835 43.1756 105.883 43.1897C105.997 43.2286 106.095 43.3031 106.162 43.4021L110.375 48.9255C110.424 48.9829 110.459 49.0516 110.474 49.1255C110.49 49.1994 110.487 49.2761 110.465 49.3489C110.336 49.6637 110.255 49.9951 110.224 50.3323C110.224 50.3623 110.218 50.3919 110.206 50.4195C110.194 50.4471 110.176 50.4722 110.154 50.4931C110.132 50.514 110.106 50.5305 110.078 50.5414C110.05 50.5523 110.019 50.5576 109.989 50.5568L104.483 50.3125C104.371 50.2956 104.267 50.2469 104.184 50.1725C104.101 50.0981 104.041 50.0012 104.013 49.8936L103.999 49.8208L104.009 49.8195ZM110.774 60.3679C110.766 60.4156 110.743 60.4598 110.708 60.4939C110.673 60.5281 110.628 60.5502 110.579 60.5571C110.463 60.5662 110.349 60.5301 110.26 60.4567C107.966 58.6329 106.17 56.2773 105.031 53.598C104.984 53.4951 104.981 53.3776 105.021 53.2711C105.043 53.2276 105.077 53.1914 105.12 53.1677C105.163 53.1439 105.212 53.1336 105.261 53.1382L110.775 53.3937C110.855 53.4037 110.931 53.4318 110.997 53.4759C111.063 53.52 111.118 53.5789 111.156 53.6477C111.381 54.0161 111.641 54.3621 111.933 54.6809C111.989 54.7364 112.032 54.8044 112.057 54.8794C112.081 54.9544 112.088 55.0343 112.075 55.1125L110.774 60.3679ZM120.532 62.1796C120.614 62.2779 120.657 62.4018 120.654 62.5294C120.654 62.5778 120.641 62.6256 120.615 62.6671C120.589 62.7087 120.552 62.7425 120.508 62.7645C118.553 63.5896 116.13 63.4832 113.68 62.4554C113.574 62.4097 113.485 62.3353 113.421 62.2409C113.358 62.1465 113.324 62.036 113.322 61.9224L113.335 61.8611L114.628 56.5819C114.642 56.5244 114.678 56.474 114.728 56.4412C114.778 56.4083 114.839 56.3955 114.898 56.4052L114.912 56.4159C115.247 56.4804 115.592 56.4953 115.933 56.4601C116.011 56.4589 116.087 56.4769 116.155 56.5124C116.223 56.5479 116.281 56.5998 116.323 56.6632L120.532 62.1796ZM115.999 54.4128C115.113 55.0696 113.608 54.6056 112.635 53.3343C111.662 52.063 111.62 50.5146 112.516 49.8515C113.412 49.1885 114.905 49.6615 115.88 50.93C116.836 52.1886 116.887 53.7483 115.994 54.4086L115.999 54.4128ZM124.481 54.4432C124.79 57.0509 124.224 59.3744 122.877 60.9984C122.843 61.0345 122.799 61.0605 122.751 61.0733C122.703 61.0862 122.652 61.0853 122.604 61.0709C122.484 61.0305 122.381 60.9521 122.311 60.8479L118.101 55.3266C118.052 55.2682 118.019 55.199 118.003 55.1247C117.988 55.0505 117.991 54.9735 118.013 54.9004C118.147 54.5881 118.227 54.2568 118.251 53.9198C118.253 53.8596 118.278 53.8021 118.323 53.76C118.367 53.7179 118.426 53.6946 118.487 53.6953L123.99 53.9374C124.102 53.9554 124.206 54.0051 124.29 54.0803C124.373 54.1555 124.432 54.2531 124.46 54.3613C124.468 54.3841 124.472 54.4079 124.472 54.4319L124.481 54.4432ZM123.467 50.671C123.56 50.8927 123.487 51.0986 123.3 51.1253C123.28 51.1298 123.26 51.1308 123.24 51.1281L117.735 50.8888C117.656 50.8774 117.582 50.8488 117.516 50.8052C117.451 50.7617 117.396 50.7041 117.356 50.6369C117.132 50.2675 116.871 49.9207 116.577 49.6016C116.521 49.5467 116.479 49.4795 116.455 49.4053C116.43 49.3312 116.424 49.2523 116.436 49.1749L117.728 43.8908C117.776 43.7006 117.981 43.6393 118.181 43.7601L118.24 43.8047C120.534 45.6279 122.33 47.9836 123.468 50.6634L123.467 50.671Z" fill="#CBD1B6"/>
</g>
<g id="Layer 3">
<path id="Vector_5" opacity="0.63" d="M0 62.8737C0 93.122 19.8107 137.132 89.2358 125.913C102.033 123.854 46.2027 128.158 46.9714 62.8737C47.3224 32.6288 36.4588 8.10815 23.4857 8.10815C10.5126 8.10815 0 32.6322 0 62.8737Z" fill="url(#paint2_linear_1388_64350)"/>
<path id="Vector_6" d="M30.7602 62.8927C30.7602 39.3817 24.4287 19.3315 15.5352 11.5586C18.0867 9.33383 20.8377 8.10815 23.7322 8.10815C36.6822 8.10815 47.1507 32.6388 47.1507 62.8961C47.1507 93.1535 56.2507 115.861 91.1423 125.402C84.8423 126.525 66.7333 128.018 65.7778 127.644C36.9832 116.046 30.7602 86.4071 30.7602 62.8927Z" fill="url(#paint3_linear_1388_64350)"/>
<path id="Vector_7" d="M207.235 0.034432L284.981 11.6541C289.267 12.2943 291.028 15.6914 289.404 20.183L246.087 140.07C245.383 141.997 242.414 143.549 241.156 142.637L173.913 93.9178C172.997 93.2535 172.73 92.0798 173.177 90.6859L200.829 4.29544C201.586 1.93778 204.96 -0.306311 207.235 0.034432Z" fill="#87D2C5"/>
<path id="Vector_8" d="M205.853 5.10035L278.095 16.142C282.074 16.7517 283.694 19.9798 282.203 24.2449L241.937 138.185C241.29 140.015 238.522 141.489 237.356 140.624L174.886 94.322C174.035 93.6881 173.787 92.5753 174.186 91.249L199.901 9.15181C200.604 6.90904 203.729 4.77651 205.853 5.10035Z" fill="#1E2022"/>
<path id="Vector_9" d="M170.147 95.8279L222.678 135.811L166.465 135.592L125.321 95.2703L170.147 95.8279Z" fill="white"/>
<path id="Vector_10" d="M126.443 105.965L146.036 125.676L117.912 125.332L99.4287 105.405L126.443 105.965Z" fill="#70C4B5"/>
<path id="Vector_11" d="M216.465 138.851L161.945 95.1326L152.286 94.6326L204.136 138.224L191.045 138.475L143.011 94.7567L133.607 94.2567L179.769 137.879" stroke="#87D2C5" stroke-width="2" stroke-miterlimit="10"/>
<path id="Vector_12" d="M129.465 101.47L179.306 101.351L187.465 106.838L135.711 107.432" stroke="#87D2C5" stroke-width="2" stroke-miterlimit="10"/>
<path id="Vector_13" d="M159.654 131.09L219.571 131.757L210.177 124.662L154.321 124.931" stroke="#87D2C5" stroke-width="2" stroke-miterlimit="10"/>
<path id="Vector_14" d="M153.285 112.88L191.91 112.5L202.999 119.595H160.167" stroke="#87D2C5" stroke-width="2" stroke-miterlimit="10"/>
<path id="Vector_15" d="M79.7359 68.558C79.7359 68.558 45.761 54.017 31.0194 44.7627C14.8699 34.6267 5.93252 25.3379 5.93252 25.3379C5.93252 25.3379 1.77254 35.4601 0.452925 50.3903C-1.56532 73.1938 3.81548 86.3296 3.81548 86.3296C3.81548 86.3296 24.1002 90.9275 46.0151 93.7413C67.9299 96.5552 77.4495 96.2762 77.4495 96.2762L79.75 68.558" fill="url(#paint4_linear_1388_64350)"/>
</g>
<g id="Layer 5">
<path id="Vector_16" d="M176.073 121.063C174.006 118.505 171.644 116.187 169.035 114.154C168.778 111.851 164.689 108.989 161.427 108.616C161.107 105.004 160.724 97.2244 147.113 107.427C141.856 107.858 136.627 108.777 134.139 109.798C128.674 112.039 125.574 118.575 115.444 120.97C107.942 122.745 96.2206 124.695 90.1084 125.668C95.8695 127.197 101.06 130.301 105.066 134.613C109.073 138.925 111.726 144.265 112.713 150C119.881 146.326 130.705 141.484 136.177 138.317C145.955 138.444 141.873 137.214 153.816 133.03C164.999 129.106 168.036 125.901 169.475 125.062C170.946 126.306 173.662 130.147 175.608 127.303C176.122 126.556 175.225 126.213 174.074 122.57C175.942 122.183 176.073 121.063 176.073 121.063Z" fill="#FFC3B0"/>
<path id="Vector_17" d="M137.529 84.0759C137.04 82.3306 136.336 80.6495 135.432 79.0696C135.239 78.6392 134.909 78.2808 134.491 78.0472C134.104 77.9175 133.689 77.8846 133.285 77.9518C123.591 78.7935 113.848 78.9264 104.116 79.0559C103.015 79.1146 101.911 79.0483 100.826 78.8583C99.9193 78.6395 99.0383 78.33 98.197 77.9347C91.937 75.2538 85.804 72.3071 79.798 69.0945C70.7926 64.279 69.583 74.7926 70.852 87.978C71.3554 93.2058 74.0892 95.9628 74.0892 95.9628C74.0892 95.9628 94.3445 97.4487 95.8687 98.5631C97.3929 99.6775 107.447 105.74 109.852 106.238C112.258 106.735 117.97 106.115 120.127 105.495C122.284 104.875 128.104 103.978 128.985 104.217C129.282 103.973 129.518 103.667 129.675 103.321C129.832 102.974 129.906 102.598 129.891 102.22C129.845 100.921 128.632 98.9039 125.927 98.7505C123.221 98.5972 120.462 99.3401 119.368 98.6926C118.606 98.1973 117.93 97.585 117.369 96.8796C117.369 96.8796 123.556 96.6035 128.51 94.6985C133.464 92.7934 135.033 92.6537 135.942 94.1907C137.494 96.8114 139.043 99.824 141.462 100.594C143.937 101.381 145.752 100.707 145.56 100.642C145.56 100.642 148.112 100.765 148.79 99.473C149.468 98.1814 149.272 97.9019 147.321 96.232C145.371 94.5621 143.941 93.4 143.941 93.4C143.569 91.5043 142.622 89.7612 141.221 88.3972C139.856 87.0713 138.62 85.6246 137.529 84.0759Z" fill="#FFC3B0"/>
<path id="Vector_18" d="M162.09 121.622C162.193 121.622 162.293 121.592 162.378 121.536C162.463 121.481 162.529 121.401 162.569 121.309C162.608 121.216 162.618 121.114 162.598 121.016C162.578 120.918 162.529 120.827 162.456 120.757C162.384 120.686 162.292 120.637 162.191 120.618C162.091 120.598 161.987 120.608 161.892 120.647C161.797 120.685 161.716 120.75 161.66 120.833C161.603 120.917 161.572 121.015 161.572 121.115C161.572 121.249 161.627 121.378 161.724 121.473C161.821 121.568 161.953 121.622 162.09 121.622Z" fill="#1E2022"/>
<path id="Vector_19" d="M161.921 121.716C164.432 121.782 166.623 120.469 168.941 119.717C169.514 119.525 170.104 119.384 170.702 119.297C171.061 119.216 171.437 119.27 171.759 119.447C172.027 119.66 172.264 119.908 172.464 120.186C173.259 121.217 173.808 122.414 174.07 123.686C174.376 125.023 174.574 126.417 175.398 127.558C175.662 127.908 176.271 127.558 176.007 127.208C175.218 126.119 175.042 124.782 174.75 123.504C174.477 122.209 173.928 120.987 173.14 119.92C172.788 119.465 172.397 118.922 171.847 118.698C171.298 118.474 170.537 118.618 169.931 118.747C168.654 119.076 167.408 119.51 166.204 120.046C164.831 120.592 163.422 121.096 161.925 121.043C161.831 121.043 161.741 121.08 161.675 121.146C161.609 121.212 161.572 121.301 161.572 121.393C161.572 121.486 161.609 121.575 161.675 121.641C161.741 121.707 161.831 121.744 161.925 121.744L161.921 121.716Z" fill="#1E2022"/>
<path id="Vector_20" d="M169.945 125.325C170.441 125.965 170.99 126.554 171.586 127.085C172.164 127.639 172.809 128.103 173.505 128.465C173.808 128.641 174.149 128.727 174.494 128.715C174.838 128.702 175.173 128.592 175.465 128.394C175.729 128.206 175.923 127.924 176.014 127.597C176.106 127.27 176.088 126.919 175.964 126.604C175.78 126.166 175.181 126.548 175.368 126.98C175.555 127.411 175.084 127.861 174.738 127.943C174.163 128.079 173.574 127.692 173.11 127.37C172.106 126.656 171.204 125.787 170.433 124.789C170.146 124.414 169.658 124.954 169.945 125.322V125.325Z" fill="#1E2022"/>
<path id="Vector_21" d="M155.684 115.54L157.104 115.375C157.191 115.375 157.273 115.33 157.334 115.251C157.396 115.171 157.43 115.064 157.43 114.951C157.43 114.839 157.396 114.731 157.334 114.651C157.273 114.572 157.191 114.527 157.104 114.527L155.684 114.692C155.598 114.692 155.515 114.737 155.454 114.817C155.393 114.896 155.358 115.004 155.358 115.116C155.358 115.229 155.393 115.337 155.454 115.416C155.515 115.496 155.598 115.54 155.684 115.54Z" fill="#1E2022"/>
<path id="Vector_22" d="M158.823 115.163C160.221 115.163 161.423 114.494 162.639 113.917C164.002 113.275 165.361 113.002 166.853 113.399C169.879 114.2 171.818 116.727 173.874 118.826C174.463 119.444 175.097 120.021 175.77 120.552C176.078 120.791 176.582 121.039 176.314 121.474C176.046 121.909 175.445 121.909 175.005 121.944C174.565 121.978 174.547 122.665 175.005 122.634C175.745 122.579 176.572 122.465 176.958 121.771C177.344 121.077 176.926 120.559 176.36 120.128C174.958 119.068 173.817 117.739 172.612 116.482C170.441 114.217 167.364 111.808 163.927 112.685C162.178 113.133 160.708 114.476 158.823 114.473C158.728 114.473 158.637 114.509 158.57 114.574C158.503 114.639 158.465 114.727 158.465 114.818C158.465 114.91 158.503 114.997 158.57 115.062C158.637 115.127 158.728 115.163 158.823 115.163Z" fill="#1E2022"/>
<path id="Vector_23" d="M164.194 121.56C165.137 120.961 166.073 120.345 167.023 119.757C167.384 119.48 167.828 119.321 168.29 119.303C168.508 119.358 168.714 119.45 168.898 119.573C169.108 119.682 169.352 119.71 169.582 119.653C169.63 119.64 169.675 119.619 169.714 119.59C169.753 119.561 169.785 119.525 169.81 119.483C169.834 119.442 169.85 119.397 169.856 119.35C169.862 119.303 169.858 119.255 169.845 119.209C169.832 119.164 169.81 119.121 169.78 119.083C169.749 119.046 169.712 119.015 169.669 118.991C169.626 118.968 169.579 118.953 169.53 118.947C169.48 118.941 169.431 118.944 169.383 118.957C169.222 119 168.959 118.766 168.812 118.705C168.594 118.616 168.358 118.574 168.121 118.582C167.619 118.638 167.139 118.812 166.723 119.087C165.738 119.678 164.784 120.32 163.814 120.94C163.416 121.196 163.792 121.819 164.19 121.56H164.194Z" fill="#1E2022"/>
<path id="Vector_24" d="M137.237 111.445L148.565 105.802C150.435 104.872 152.302 103.926 154.179 103.009C155.707 102.262 157.629 101.492 159.27 102.409C161.063 103.392 160.314 105.72 160.878 107.293C161.025 107.689 161.7 107.519 161.55 107.119C160.983 105.576 161.599 103.713 160.349 102.396C159.162 101.148 157.159 101.165 155.606 101.686C154.667 102.032 153.756 102.443 152.88 102.914L149.895 104.397L143.774 107.44L136.889 110.879C136.492 111.079 136.844 111.642 137.237 111.445Z" fill="#1E2022"/>
<path id="Vector_25" d="M154.752 110.2C156.282 109.868 157.812 109.466 159.363 109.204C160.914 108.942 162.325 109.291 163.716 109.901C164.89 110.398 166.018 110.99 167.086 111.67C168.065 112.333 168.923 113.146 169.177 114.288C169.268 114.706 169.94 114.53 169.85 114.112C169.585 112.927 168.745 112.022 167.759 111.311C166.606 110.528 165.372 109.861 164.075 109.32C162.649 108.697 161.168 108.298 159.593 108.498C157.906 108.713 156.23 109.184 154.571 109.546C154.135 109.642 154.32 110.283 154.759 110.187L154.752 110.2Z" fill="#1E2022"/>
<path id="Vector_26" d="M157.872 109.414C158.69 108.821 159.27 107.896 159.491 106.834C159.501 106.792 159.504 106.749 159.499 106.706C159.494 106.664 159.482 106.622 159.463 106.585C159.444 106.547 159.418 106.514 159.388 106.488C159.357 106.462 159.322 106.442 159.285 106.431C159.248 106.419 159.209 106.416 159.171 106.421C159.133 106.427 159.096 106.441 159.062 106.462C159.029 106.483 158.999 106.512 158.976 106.546C158.952 106.58 158.935 106.619 158.925 106.66C158.746 107.557 158.262 108.342 157.576 108.847C157.542 108.869 157.513 108.898 157.49 108.932C157.466 108.966 157.449 109.006 157.439 109.047C157.43 109.089 157.427 109.133 157.432 109.175C157.438 109.218 157.45 109.259 157.47 109.296C157.489 109.334 157.515 109.366 157.546 109.393C157.577 109.419 157.612 109.438 157.649 109.449C157.686 109.46 157.725 109.462 157.763 109.456C157.802 109.451 157.838 109.436 157.872 109.414Z" fill="#1E2022"/>
<path id="Vector_27" d="M149.672 110.454C150.034 110.349 150.405 110.267 150.781 110.21C151.138 110.162 151.498 110.138 151.859 110.138C151.963 110.138 152.062 110.103 152.136 110.039C152.209 109.975 152.251 109.889 152.251 109.799C152.251 109.709 152.209 109.623 152.136 109.559C152.062 109.495 151.963 109.46 151.859 109.46C151.044 109.457 150.235 109.571 149.464 109.799C149.413 109.807 149.365 109.824 149.322 109.848C149.278 109.873 149.241 109.904 149.212 109.941C149.183 109.978 149.162 110.02 149.152 110.063C149.141 110.107 149.141 110.152 149.15 110.196C149.17 110.284 149.228 110.362 149.313 110.413C149.398 110.464 149.503 110.483 149.605 110.468H149.672V110.454Z" fill="#1E2022"/>
<path id="Vector_28" d="M124.624 88.3933L135.79 87.0333L137.107 86.8735C137.516 86.7787 137.946 86.8084 138.336 86.9585C139.1 87.3359 139.401 88.2199 139.785 88.9101L142.417 93.7312L145.378 99.1541C145.592 99.5417 146.206 99.1983 145.993 98.8141L140.481 88.7197C140.09 88.0091 139.771 87.1659 139.107 86.6491C138.828 86.4387 138.505 86.2892 138.159 86.2111C137.814 86.133 137.455 86.1281 137.107 86.197C135.175 86.4236 133.241 86.6593 131.304 86.9041L124.624 87.7133C124.177 87.7677 124.173 88.4477 124.624 88.3933Z" fill="#1E2022"/>
<path id="Vector_29" d="M143.774 98.775C143.581 98.3075 143.493 97.784 143.521 97.2601C143.549 96.7361 143.691 96.2312 143.932 95.7989C143.967 95.7163 143.975 95.6203 143.954 95.5308C143.933 95.4413 143.885 95.3654 143.819 95.3188C143.754 95.2721 143.677 95.2585 143.603 95.2806C143.53 95.3028 143.466 95.3591 143.426 95.4377C143.131 95.9803 142.961 96.6115 142.934 97.2641C142.906 97.9167 143.023 98.5662 143.271 99.1434C143.446 99.5552 143.95 99.1904 143.774 98.7822V98.775Z" fill="#1E2022"/>
<path id="Vector_30" d="M93.5486 97.9904C95.8929 98.1343 97.8419 99.6012 99.6859 100.883C101.755 102.321 103.912 103.634 106.145 104.814C107.158 105.388 108.236 105.842 109.357 106.168C110.577 106.446 111.839 106.493 113.077 106.308C114.396 106.154 115.701 105.942 117.031 105.87C118.36 105.798 119.603 105.774 120.88 105.596C123.56 105.219 126.268 103.625 129.022 104.283C129.112 104.307 129.207 104.295 129.288 104.25C129.369 104.205 129.428 104.131 129.452 104.043C129.477 103.955 129.465 103.862 129.419 103.783C129.373 103.703 129.297 103.646 129.207 103.621C126.758 103.042 124.452 104.088 122.132 104.65C119.592 105.27 116.922 105.085 114.34 105.445C113.01 105.63 111.646 105.849 110.306 105.654C109.087 105.431 107.917 105.005 106.845 104.396C104.579 103.222 102.392 101.907 100.298 100.458C98.2443 99.046 96.1519 97.4557 93.5521 97.298C93.1007 97.2706 93.1042 97.9561 93.5521 97.9835L93.5486 97.9904Z" fill="#1E2022"/>
<path id="Vector_31" d="M117.084 96.8199C117.762 97.6904 118.546 98.4865 119.422 99.1925C119.493 99.2684 119.594 99.3154 119.702 99.3232C119.811 99.331 119.918 99.2989 120.001 99.234C120.083 99.169 120.135 99.0766 120.143 98.977C120.151 98.8774 120.116 98.7789 120.046 98.7029C120.032 98.6882 120.017 98.6744 120.001 98.6615C119.583 98.323 119.184 97.9648 118.807 97.5882C118.446 97.2297 118.108 96.8524 117.794 96.4584C117.737 96.3764 117.648 96.3177 117.545 96.2946C117.442 96.2715 117.334 96.2858 117.242 96.3344C117.15 96.383 117.083 96.4622 117.053 96.5555C117.024 96.6488 117.035 96.7489 117.084 96.835V96.8199Z" fill="#1E2022"/>
<path id="Vector_32" d="M127.083 104.102C127.112 103.963 127.152 103.826 127.203 103.692L127.236 103.599C127.21 103.667 127.236 103.571 127.254 103.567C127.283 103.507 127.312 103.446 127.345 103.389C127.414 103.265 127.493 103.145 127.581 103.032L127.606 103L127.668 102.925C127.719 102.872 127.766 102.818 127.817 102.768L127.977 102.622L128.057 102.558C128.115 102.511 128.021 102.583 128.09 102.536C128.206 102.455 128.328 102.38 128.453 102.312L128.649 102.219C128.718 102.183 128.606 102.219 128.686 102.201L128.78 102.169C128.917 102.122 129.056 102.084 129.198 102.055C129.244 102.043 129.287 102.021 129.325 101.993C129.363 101.964 129.394 101.928 129.418 101.887C129.442 101.847 129.457 101.802 129.463 101.755C129.469 101.709 129.465 101.661 129.452 101.616C129.428 101.525 129.367 101.447 129.284 101.4C129.201 101.352 129.102 101.339 129.009 101.363H128.987C128.35 101.497 127.765 101.809 127.303 102.26C126.841 102.712 126.521 103.285 126.382 103.91C126.365 103.954 126.357 104.001 126.359 104.048C126.36 104.095 126.371 104.141 126.391 104.184C126.411 104.226 126.44 104.265 126.475 104.297C126.51 104.329 126.551 104.354 126.596 104.37C126.686 104.402 126.785 104.399 126.872 104.36C126.959 104.321 127.027 104.251 127.061 104.163C127.064 104.142 127.064 104.12 127.061 104.099L127.083 104.102Z" fill="#1E2022"/>
<path id="Vector_33" d="M126.703 82.7617C128.648 82.7849 130.58 83.0717 132.445 83.6141C133.359 83.8561 134.248 84.1833 135.099 84.5912C135.881 84.9955 136.519 85.602 137.252 86.0905C137.617 86.3331 137.962 85.7536 137.593 85.511C136.843 85.0191 136.188 84.3823 135.376 83.9814C134.49 83.5651 133.569 83.2268 132.622 82.9706C130.698 82.4121 128.705 82.1173 126.7 82.0946C126.609 82.0946 126.522 82.1301 126.458 82.1933C126.394 82.2565 126.358 82.3422 126.358 82.4315C126.358 82.5209 126.394 82.6066 126.458 82.6698C126.522 82.733 126.609 82.7684 126.7 82.7684L126.703 82.7617Z" fill="#1E2022"/>
<path id="Vector_34" d="M139.938 88.7483C142.027 90.8807 144.117 93.0131 146.342 95.0059C146.9 95.5042 147.464 96.0024 148.042 96.4707C148.488 96.8361 149.299 97.2944 149.459 97.8757C149.634 98.54 148.739 99.0681 148.227 99.3106C147.943 99.4437 147.642 99.5398 147.331 99.5962C147.16 99.6301 146.985 99.649 146.809 99.6527H146.534C146.466 99.6379 146.395 99.6399 146.328 99.6585C146.261 99.6771 146.2 99.7117 146.151 99.759C146.572 99.6261 146.391 98.9851 145.963 99.1179C145.812 99.163 145.687 99.2632 145.614 99.3964C145.541 99.5297 145.526 99.6851 145.573 99.8287C145.603 99.9258 145.661 100.013 145.74 100.081C146.151 100.453 146.948 100.337 147.45 100.247C148.495 100.065 150.156 99.2773 150.18 98.0783C150.155 97.8013 150.068 97.5326 149.926 97.2899C149.784 97.0471 149.589 96.8359 149.355 96.67C148.784 96.1784 148.188 95.7167 147.614 95.2252C146.419 94.1955 145.27 93.1194 144.131 92.02C142.87 90.791 141.641 89.5355 140.411 88.28C140.105 87.9644 139.614 88.4361 139.92 88.7483H139.938Z" fill="#1E2022"/>
<path id="Vector_35" d="M125.49 79.6601C128.457 81.0142 131.76 81.4778 134.728 82.8186C136.717 83.7193 138.499 84.9962 139.968 86.5734C141.437 88.1506 142.562 89.9961 143.277 92.0004C143.422 92.404 144.09 92.2306 143.945 91.8237C143.009 89.2126 141.415 86.8666 139.307 84.9965C138.261 84.0658 137.1 83.2647 135.848 82.6118C134.398 81.9035 132.88 81.3349 131.314 80.9142C129.471 80.3705 127.6 79.8869 125.85 79.0898C125.448 78.9064 125.096 79.48 125.504 79.6635L125.49 79.6601Z" fill="#1E2022"/>
<path id="Vector_36" d="M133.472 81.76C133.446 81.535 133.446 81.3087 133.472 81.0838C133.461 81.0301 133.461 80.9753 133.472 80.9215C133.471 80.8914 133.479 80.8616 133.493 80.8337C133.519 80.7221 133.554 80.6105 133.592 80.4956C133.608 80.4527 133.612 80.408 133.605 80.3639C133.598 80.3198 133.58 80.2772 133.551 80.2386C133.523 80.2 133.486 80.1661 133.441 80.1388C133.396 80.1116 133.345 80.0915 133.29 80.0798C133.236 80.068 133.178 80.0647 133.122 80.0702C133.066 80.0757 133.011 80.0899 132.962 80.1119C132.913 80.1339 132.869 80.1632 132.835 80.1983C132.8 80.2334 132.774 80.2735 132.759 80.3164C132.588 80.7839 132.534 81.2729 132.599 81.7566C132.602 81.8459 132.647 81.9313 132.725 81.9966C132.765 82.0279 132.813 82.0527 132.865 82.0696C132.918 82.0864 132.974 82.0949 133.031 82.0946C133.146 82.0946 133.256 82.059 133.336 81.9956C133.417 81.9322 133.463 81.8462 133.463 81.7566L133.472 81.76Z" fill="#1E2022"/>
<path id="Vector_37" d="M136.851 138.89C139.752 140.616 143.258 139.8 146.094 138.374C147.688 137.576 149.185 136.584 150.728 135.699C152.272 134.815 153.951 133.909 155.606 133.067C157.483 132.129 159.393 131.256 161.336 130.449C161.755 130.274 161.569 129.583 161.146 129.758C157.884 131.114 154.701 132.654 151.613 134.371C150.109 135.212 148.647 136.129 147.151 136.989C145.703 137.887 144.122 138.551 142.466 138.955C140.697 139.313 138.799 139.205 137.22 138.271C137.133 138.232 137.035 138.229 136.946 138.263C136.858 138.296 136.786 138.363 136.747 138.45C136.713 138.525 136.706 138.609 136.727 138.689C136.747 138.768 136.795 138.838 136.861 138.887L136.851 138.89Z" fill="#1E2022"/>
<path id="Vector_38" d="M135.738 93.7168C137.039 95.528 138.157 97.5739 140.01 98.949C141.652 100.17 143.878 100.79 145.854 99.9552C146.265 99.7775 145.91 99.1972 145.502 99.375C143.667 100.17 141.508 99.375 140.091 98.1575C138.526 96.8159 137.521 95.0249 136.35 93.3948C136.096 93.0393 135.485 93.3747 135.741 93.7302L135.738 93.7168Z" fill="#1E2022"/>
<path id="Vector_39" d="M130.29 104.172C130.616 103.271 130.564 102.305 130.142 101.433C129.721 100.56 128.954 99.831 127.968 99.3662C127.536 99.1699 127.15 99.7176 127.586 99.9139C128.427 100.307 129.082 100.927 129.44 101.671C129.799 102.415 129.84 103.238 129.557 104.004C129.404 104.394 130.141 104.558 130.294 104.172H130.29Z" fill="#1E2022"/>
<path id="Vector_40" d="M93.6619 125.676C98.0304 124.771 102.413 123.938 106.795 123.101C108.919 122.7 111.041 122.289 113.162 121.867C115.329 121.434 117.531 121.059 119.659 120.437C121.787 119.814 123.821 118.92 125.235 117.182C125.522 116.825 125.029 116.321 124.742 116.675C123.457 118.252 121.626 119.113 119.736 119.671C117.678 120.283 115.536 120.644 113.436 121.066C109.309 121.892 105.175 122.657 101.044 123.455C98.5169 123.932 95.9908 124.436 93.4659 124.968C93.0248 125.057 93.2138 125.747 93.6549 125.658L93.6619 125.676Z" fill="#1E2022"/>
<path id="Vector_41" d="M234.121 31.3947C224.673 29.3668 215.346 27.0912 205.933 24.8505C205.639 24.7757 205.387 24.5889 205.232 24.3311C205.077 24.0733 205.033 23.7655 205.108 23.4753C205.123 23.4155 205.143 23.3571 205.168 23.3008C205.291 22.9676 205.528 22.687 205.839 22.5074C206.149 22.3278 206.513 22.2603 206.869 22.3166C216.356 24.3549 225.775 26.456 235.311 28.25C236.02 28.3896 236.339 29.1958 236.02 30.0684C235.683 30.9549 234.826 31.5482 234.121 31.3947Z" fill="#EFBB50"/>
<path id="Vector_42" d="M249.604 51.6543C240.541 48.9623 231.444 46.3824 222.377 43.6904C221.717 43.4927 221.456 42.6393 221.786 41.7859C222.117 40.9325 222.919 40.3921 223.586 40.5767C232.726 43.1039 241.886 45.5784 251.015 48.1551C251.665 48.3429 251.874 49.2786 251.481 50.2539C251.088 51.2095 250.251 51.8487 249.604 51.6543Z" fill="#EFBB50"/>
<path id="Vector_43" d="M251.611 35.4523C247.852 34.6789 245.983 34.3118 242.127 33.522C241.408 33.3745 241.12 32.5585 241.472 31.7097C241.832 30.8609 242.687 30.2906 243.41 30.425C247.306 31.146 249.207 31.4868 252.995 32.1849C253.714 32.316 253.955 33.1681 253.566 34.0595C253.182 34.9705 252.305 35.5965 251.611 35.4523Z" fill="#EFBB50"/>
<path id="Vector_44" d="M216.681 42.5237C211.676 40.9086 206.689 39.2509 201.695 37.6109C201.044 37.4011 200.752 36.5437 201.041 35.6793C201.326 34.8255 202.084 34.3026 202.742 34.5018C207.77 36.0777 212.792 37.7034 217.828 39.2473C218.465 39.4394 218.719 40.3146 218.399 41.2324C218.075 42.1502 217.31 42.7372 216.681 42.5237Z" fill="#E87D2D"/>
<path id="Vector_45" d="M212.587 33.4088C209.088 32.448 207.327 31.9452 203.79 31.0357C203.137 30.866 202.83 30.1358 203.099 29.4185C203.372 28.7011 204.136 28.2528 204.781 28.4097C208.342 29.2584 210.111 29.7451 213.63 30.6514C214.279 30.8212 214.573 31.5674 214.283 32.3295C213.996 33.1013 213.233 33.5881 212.587 33.4088Z" fill="#EFBB50"/>
<path id="Vector_46" d="M251.721 44.5645C248.261 43.5627 246.544 43.0919 243.054 42.1255C242.408 41.945 242.168 40.9998 242.519 40.0016C242.858 39.021 243.689 38.3732 244.339 38.5396C247.866 39.4493 249.594 39.8883 253.08 40.8299C253.726 41.0033 253.943 41.9768 253.564 43.0105C253.185 44.0441 252.36 44.7521 251.721 44.5645Z" fill="#3ACC94"/>
<path id="Vector_47" d="M236.192 40.5089C230.211 38.8525 224.219 37.2317 218.235 35.586C217.597 35.4016 217.321 34.5433 217.621 33.685C217.921 32.8302 218.686 32.2911 219.345 32.4649C225.381 34.0042 231.41 35.4938 237.46 37.0402C238.15 37.214 238.408 38.129 238.06 39.0937C237.705 40.0513 236.881 40.6933 236.192 40.5089Z" fill="#4196BF"/>
<path id="Vector_48" d="M202.078 24.9636L202.5 24.0082C202.552 23.9192 202.579 23.8218 202.579 23.7232C202.579 23.6246 202.552 23.5272 202.5 23.4382C202.465 23.3807 202.413 23.3314 202.349 23.2948C202.262 23.2459 202.197 23.1737 202.166 23.0903C202.135 23.0068 202.14 22.9172 202.179 22.8363C202.221 22.7485 202.289 22.6708 202.377 22.6102C202.465 22.5496 202.57 22.508 202.682 22.4891C202.787 22.471 202.886 22.4376 202.976 22.3904C203.205 22.2648 203.373 22.0763 203.448 21.8586C203.588 21.5401 203.654 21.4063 203.785 21.1165C203.895 20.8229 204.13 20.5718 204.447 20.4095C204.809 20.2699 205.218 20.234 205.608 20.3076H205.72C205.829 20.3134 205.93 20.354 206.002 20.4207C206.075 20.4875 206.113 20.575 206.107 20.6643C206.105 20.7016 206.094 20.7383 206.076 20.7726L205.941 21.0688L205.554 21.0146C205.379 20.9834 205.196 21.0049 205.039 21.0751C204.877 21.1835 204.76 21.3303 204.702 21.4955L204.346 22.2885C204.268 22.4893 204.125 22.6688 203.932 22.8076C203.775 22.9216 203.573 22.9859 203.363 22.9891C203.777 23.0942 203.863 23.4095 203.642 23.9063L203.255 24.7853C203.162 24.9483 203.139 25.1323 203.189 25.3076C203.233 25.3754 203.297 25.4332 203.374 25.476C203.452 25.5187 203.541 25.5451 203.634 25.5528L203.975 25.6133L203.82 25.9636C203.774 26.0887 203.674 26.1959 203.54 26.266C203.406 26.3361 203.246 26.3644 203.089 26.3458L202.918 26.3107C202.746 26.2934 202.581 26.2446 202.435 26.168C202.289 26.0914 202.166 25.9889 202.075 25.8681C202.002 25.7248 201.964 25.5709 201.965 25.4155C201.966 25.2601 202.004 25.1065 202.078 24.9636Z" fill="#4196BF"/>
<path id="Vector_49" d="M237.18 33.2554C237.364 32.7412 237.456 32.4873 237.64 31.9796C237.717 31.7112 237.872 31.474 238.084 31.3005C238.15 31.2479 238.226 31.2087 238.306 31.1851C238.421 31.1489 238.527 31.0854 238.614 30.9996C238.702 30.9138 238.769 30.808 238.81 30.6906C238.855 30.593 238.872 30.4839 238.857 30.3767C238.843 30.2694 238.799 30.1689 238.731 30.0873C238.673 30.0225 238.629 29.9448 238.604 29.8599C238.551 29.5824 238.586 29.2946 238.702 29.039L239.086 27.9907C239.252 27.6411 239.295 27.2421 239.206 26.8632C239.133 26.7175 239.024 26.5948 238.889 26.5078C238.755 26.4209 238.601 26.3729 238.442 26.3687L238.35 26.3522C238.206 26.3445 238.063 26.3856 237.943 26.4694C237.823 26.5532 237.732 26.6752 237.685 26.8171L237.532 27.2291L237.865 27.2951C237.935 27.3006 238.002 27.3265 238.058 27.3696C238.114 27.4128 238.157 27.4715 238.182 27.539C238.205 27.7578 238.167 27.9788 238.071 28.1753L237.675 29.2665C237.577 29.5088 237.536 29.7725 237.558 30.0346C237.563 30.1233 237.59 30.2091 237.636 30.284C237.682 30.359 237.746 30.4206 237.821 30.4632C237.415 30.4302 237.117 30.7731 236.87 31.4258L236.458 32.5763C236.39 32.8074 236.268 33.0172 236.102 33.1862C236.033 33.242 235.951 33.2795 235.864 33.2956C235.778 33.3116 235.689 33.3058 235.605 33.2785L235.313 33.2093L235.154 33.651C235.037 33.9807 235.154 34.3104 235.389 34.3664L235.532 34.4027C235.69 34.4571 235.858 34.4727 236.023 34.4481C236.188 34.4235 236.346 34.3594 236.483 34.2609C236.808 34.0065 237.051 33.656 237.18 33.2554Z" fill="#4196BF"/>
<path id="Vector_50" d="M234.15 61.7745C225.359 58.5309 216.662 55.0932 207.861 51.892C207.234 51.6625 206.967 50.7696 207.269 49.8907C207.572 49.0119 208.313 48.479 208.96 48.6978C217.813 51.8143 226.618 55.0685 235.472 58.1815C236.115 58.4074 236.334 59.3991 235.966 60.398C235.597 61.4039 234.786 62.0074 234.15 61.7745Z" fill="#3ACC94"/>
<path id="Vector_51" d="M248.578 86.0714C240.257 81.9508 231.826 78.1005 223.378 74.2432C222.741 73.9486 222.494 73.006 222.83 72.1257C223.183 71.242 223.972 70.7395 224.598 71.0271C233.135 74.7042 241.661 78.35 250.088 82.2662C250.685 82.5469 250.823 83.6316 250.395 84.6921C249.989 85.7491 249.168 86.3764 248.578 86.0714Z" fill="#EFBB50"/>
<path id="Vector_52" d="M251.622 67.8555C248.222 66.5375 246.504 65.8821 243.015 64.5923C242.372 64.3526 242.163 63.3307 242.557 62.3052C242.951 61.2762 243.799 60.6277 244.449 60.8568C247.966 62.0937 249.695 62.7245 253.134 63.9897C253.77 64.2258 253.94 65.2865 253.521 66.3578C253.102 67.4291 252.254 68.0987 251.622 67.8555Z" fill="#EFBB50"/>
<path id="Vector_53" d="M216.656 70.8467C212.021 68.6512 207.415 66.4788 202.687 64.4819C202.079 64.2303 201.796 63.4686 202.069 62.7599C202.341 62.048 203.064 61.6539 203.679 61.8956C208.456 63.7931 213.128 65.843 217.822 67.9259C218.461 68.2074 218.719 69.1048 218.398 69.9128C218.066 70.7308 217.295 71.1514 216.656 70.8467Z" fill="#4196BF"/>
<path id="Vector_54" d="M212.6 60.7488C209.617 59.5002 208.005 58.9009 204.739 57.6523C204.132 57.4192 203.866 56.6035 204.152 55.8177C204.439 55.0286 205.175 54.5625 205.779 54.7856C209.072 55.9908 210.695 56.5768 213.736 57.7622C214.295 57.9819 214.578 58.8942 214.264 59.7233C213.937 60.5556 213.142 60.9785 212.6 60.7488Z" fill="#EFBB50"/>
<path id="Vector_55" d="M250.553 76.9735C247.165 75.5911 245.464 74.9016 241.971 73.5395C241.327 73.2872 241.128 72.2984 241.531 71.3264C241.935 70.351 242.789 69.7523 243.439 69.9811C246.958 71.2827 248.685 71.9419 252.109 73.2671C252.745 73.5126 252.905 74.5451 252.472 75.5709C252.036 76.5968 251.164 77.219 250.553 76.9735Z" fill="#EFBB50"/>
<path id="Vector_56" d="M236.201 70.8856C230.52 68.675 224.869 66.3933 219.248 64.0403C218.608 63.769 218.352 62.8536 218.68 61.9856C219.006 61.1177 219.798 60.6294 220.445 60.8736C226.131 63.1135 231.837 65.2947 237.564 67.4172C238.197 67.6545 238.405 68.6344 238.028 69.5973C237.643 70.5669 236.83 71.1399 236.201 70.8856Z" fill="#E87D2D"/>
<path id="Vector_57" d="M241.238 61.9262C241.195 62.0464 241.126 62.1575 241.036 62.2532C240.947 62.3488 240.837 62.427 240.714 62.4833C238.228 63.4297 237.061 63.9264 234.654 64.8325C234.33 64.9534 234.072 64.7251 234.072 64.3291C234.075 64.1983 234.102 64.069 234.152 63.9465L234.334 63.5002C234.376 63.3816 234.443 63.272 234.532 63.178C234.62 63.084 234.729 63.0076 234.85 62.9531C236.523 62.3591 237.359 62.0503 239.02 61.4127C239.073 61.3868 239.118 61.3482 239.149 61.301C239.18 61.2537 239.197 61.1996 239.198 61.1442C239.2 61.1059 239.191 61.0677 239.173 61.0335C238.355 59.6206 237.929 58.9124 237.061 57.5029C237.005 57.3878 236.976 57.2631 236.976 57.1371C236.976 57.011 237.005 56.8863 237.061 56.7712C237.13 56.6001 237.162 56.5128 237.235 56.3417C237.395 55.9356 237.759 55.6705 238.042 55.7611C238.09 55.7752 238.134 55.7984 238.171 55.829C238.209 55.8596 238.239 55.897 238.26 55.9389C239.482 58.0231 240.034 59.0467 241.249 61.1945C241.299 61.3111 241.324 61.4358 241.322 61.5614C241.32 61.6869 241.292 61.8109 241.238 61.9262Z" fill="#3ACC94"/>
<path id="Vector_58" d="M204.975 52.8394C204.922 52.9964 204.893 53.0748 204.841 53.2318C204.724 53.5729 204.425 53.7913 204.19 53.6923C204.108 53.6592 204.038 53.5979 203.992 53.5183C202.818 51.5635 202.222 50.581 201.022 48.6159C200.97 48.5188 200.94 48.4112 200.932 48.3005C200.924 48.1897 200.939 48.0785 200.976 47.9745C201.008 47.8686 201.061 47.7712 201.132 47.6892C201.204 47.6073 201.291 47.5428 201.389 47.5003C203.471 46.7907 204.519 46.412 206.595 45.6342C206.875 45.5319 207.122 45.74 207.141 46.1016C207.151 46.2175 207.135 46.3341 207.096 46.4428L206.956 46.859C206.926 46.9698 206.872 47.0718 206.798 47.157C206.724 47.2422 206.632 47.3083 206.53 47.3502C205.131 47.8278 204.431 48.0598 203.035 48.5067C202.974 48.5356 202.922 48.584 202.887 48.6451C202.853 48.7063 202.838 48.7772 202.844 48.8479C202.846 48.8939 202.859 48.9384 202.883 48.9775C203.706 50.2705 204.112 50.9187 204.922 52.2083C204.974 52.3033 205.005 52.4089 205.014 52.5179C205.023 52.6268 205.01 52.7365 204.975 52.8394Z" fill="#3ACC94"/>
<path id="Vector_59" d="M217.781 73.8312L217.681 73.7433C217.586 73.6751 217.523 73.5734 217.505 73.4601C217.487 73.3468 217.516 73.2312 217.584 73.1382C219.999 70.9192 221.247 69.6698 223.795 67.0311C223.888 66.9418 224.013 66.8918 224.143 66.8918C224.273 66.8918 224.398 66.9418 224.491 67.0311L224.574 67.1026C224.623 67.1408 224.663 67.188 224.693 67.2414C224.722 67.2948 224.741 67.3534 224.747 67.4138C224.754 67.4743 224.748 67.5354 224.73 67.5937C224.713 67.6519 224.683 67.7062 224.644 67.7534C222.107 70.4083 220.854 71.6577 218.44 73.906C218.338 73.9694 218.217 73.9966 218.097 73.983C217.977 73.9694 217.865 73.9158 217.781 73.8312Z" fill="#3ACC94"/>
<path id="Vector_60" d="M248.797 89.0406L248.716 88.9465C248.623 88.8387 248.573 88.7054 248.573 88.5681C248.573 88.4308 248.623 88.2975 248.716 88.1897C251.138 85.5591 253.528 82.9057 255.922 80.2556C256.19 80.0218 256.472 80.0055 256.627 80.2101L256.708 80.2848C256.806 80.3918 256.859 80.5269 256.859 80.6664C256.859 80.806 256.806 80.9411 256.708 81.048C254.315 83.7144 251.917 86.384 249.495 89.0309C249.231 89.2387 248.959 89.242 248.797 89.0406Z" fill="#3ACC94"/>
</g>
</g>
<defs>
<radialGradient id="paint0_radial_1388_64350" cx="0" cy="0" r="1" gradientUnits="userSpaceOnUse" gradientTransform="translate(274.416 21.97) scale(181.422 177.946)">
<stop offset="0.36" stop-color="#B2E362"/>
<stop offset="1" stop-color="white" stop-opacity="0"/>
</radialGradient>
<linearGradient id="paint1_linear_1388_64350" x1="91.6312" y1="70.3596" x2="61.0226" y2="-6.7223" gradientUnits="userSpaceOnUse">
<stop stop-color="white"/>
<stop offset="0.89" stop-color="#E87D2D"/>
</linearGradient>
<linearGradient id="paint2_linear_1388_64350" x1="69.7937" y1="52.6021" x2="24.0745" y2="98.3799" gradientUnits="userSpaceOnUse">
<stop stop-color="#1188FF"/>
<stop offset="0.89" stop-color="#02DA5D"/>
</linearGradient>
<linearGradient id="paint3_linear_1388_64350" x1="70.1948" y1="52.2977" x2="34.0653" y2="88.3524" gradientUnits="userSpaceOnUse">
<stop stop-color="#6BBD3F"/>
<stop offset="0.43" stop-color="#2CA465"/>
<stop offset="0.83" stop-color="#148F82"/>
<stop offset="1" stop-color="#0276A2"/>
</linearGradient>
<linearGradient id="paint4_linear_1388_64350" x1="16128.6" y1="24650.7" x2="8277.28" y2="16010" gradientUnits="userSpaceOnUse">
<stop stop-color="#1E2022"/>
<stop offset="0.89" stop-color="#0276A2"/>
</linearGradient>
</defs>
</svg>
