<svg width="160" height="53" viewBox="0 0 160 53" fill="none" xmlns="http://www.w3.org/2000/svg">
<g id="&#208;&#148;&#208;&#190;&#208;&#188;&#208;&#154;&#208;&#187;&#208;&#184;&#208;&#186; &#208;&#190;&#209;&#129;&#208;&#189;&#208;&#190;&#208;&#178;&#208;&#189;&#208;&#190;&#208;&#185;">
<g id="Basic_Logo_DomClick">
<g id="Group 3">
<path id="Vector 1" d="M3.9809 42.9308H23.8854V34.5039H8.35988V17.2488L19.9045 9.22321L31.4491 17.2488V24.8732H39.809V15.2424C39.809 13.6373 39.1274 12.1092 37.8185 11.2296L22.293 0.796303C20.7007 -0.273778 19.1083 -0.257057 17.5159 0.796303C13.2697 3.60527 4.29937 9.74487 2.38854 11.029C0.477707 12.3131 0 13.8274 0 15.2424V38.918C0 40.8441 1.99045 42.9308 3.9809 42.9308Z" fill="url(#paint0_linear_1388_63784)"/>
<path id="Vector" d="M23.8857 42.9308V29.2627C23.8857 26.8367 25.7868 24.8732 28.1357 24.8732H39.8093L23.8857 42.9308Z" fill="#FBBC33"/>
</g>
<g id="Group 1">
<path id="Vector_2" d="M48.9484 26.5716H51.0503C51.8624 25.6165 52.8974 23.4175 53.2318 16.5155L53.2716 12.7916H65.0551V26.5796H67.7223V32.4704H64.4978V29.8942H52.1729V32.4704H48.9404V26.5716H48.9484ZM54.8401 26.5716H61.6315V15.8252L56.6395 15.8814L56.5041 19.0275C56.1379 23.8188 55.5487 25.7529 54.8401 26.5716Z" fill="#004C60"/>
<path id="Vector_3" d="M75.4621 16.5876C79.7137 16.5876 82.4526 19.3966 82.4526 23.1606C82.4526 26.9166 79.7137 29.7336 75.4621 29.7336C71.2105 29.7336 68.4717 26.9246 68.4717 23.1606C68.4717 19.3966 71.2105 16.5876 75.4621 16.5876ZM75.4621 26.7481C77.4844 26.7481 78.9733 25.3275 78.9733 23.1606C78.9733 21.0419 77.4605 19.5973 75.4621 19.5973C73.5195 19.5973 71.9828 20.9857 71.9828 23.1606C71.9828 25.2473 73.4637 26.7481 75.4621 26.7481Z" fill="#004C60"/>
<path id="Vector_4" d="M84.2266 16.8926H87.1963L91.5594 21.4351L95.6995 16.8926H98.5817V29.4206H95.3014V21.7642L91.5036 25.7449H91.416L87.5068 21.7642V29.4206H84.2266V16.8926Z" fill="#004C60"/>
<path id="Vector_5" d="M147.188 16.8926H150.468V29.4206H147.188V16.8926ZM153.7 22.8476L159.934 29.4206H155.651L149.17 23.1045L155.309 16.8926H159.449L153.7 22.8476Z" fill="#004C60"/>
<path id="Vector_6" d="M101.829 16.8926H105.109V29.4206H101.829V16.8926ZM108.342 22.8476L114.576 29.4206H110.292L103.812 23.1045L109.95 16.8926H114.09L108.342 22.8476Z" fill="#004C60"/>
<path id="Vector_7" d="M124.984 20.0949H121.68L121.632 21.4512C121.473 28.586 119.26 29.846 115.717 29.5009V26.403C117.62 26.5314 118.392 25.6325 118.48 20.8172L118.543 16.8926H128.273V29.4206H124.992V20.0949H124.984Z" fill="#004C60"/>
<path id="Vector_8" d="M131.518 29.4206V16.8926H134.798V24.83L140.793 16.8926H144.073V29.4206H140.793V21.4833L134.798 29.4206H131.518Z" fill="#004C60"/>
</g>
<g id="Group 2">
<path id="Vector_9" d="M147.277 41.2265L149.554 39.5411H141.942V49.6855H149.554V47.9921H144.116V45.3998H148.75V43.7064H144.116V41.2265H147.277Z" fill="#21A038"/>
<path id="Vector_10" d="M136.203 43.4976H133.56V41.2344H137.78L140.057 39.541H131.395V49.6854H135.925C138.473 49.6854 139.922 48.5217 139.922 46.4912C139.922 44.557 138.6 43.4976 136.203 43.4976ZM135.821 47.992H133.56V45.183H135.821C137.199 45.183 137.844 45.6565 137.844 46.5875C137.844 47.5506 137.159 47.992 135.821 47.992Z" fill="#21A038"/>
<path id="Vector_11" d="M155.716 39.533H151.576V49.6854H153.75V46.8122H155.716C158.36 46.8122 160 45.4077 160 43.1686C160 40.9294 158.36 39.533 155.716 39.533ZM155.669 45.1188H153.742V41.2264H155.669C157.062 41.2264 157.826 41.9166 157.826 43.1686C157.826 44.4286 157.062 45.1188 155.669 45.1188Z" fill="#21A038"/>
<path id="Vector_12" d="M127.658 47.4864C127.101 47.7994 126.456 47.9599 125.779 47.9599C123.821 47.9599 122.404 46.5474 122.404 44.6132C122.404 42.6791 123.821 41.2666 125.779 41.2666C126.52 41.2666 127.189 41.4752 127.754 41.8845L129.307 40.7288L129.203 40.6325C128.295 39.8219 127.077 39.4046 125.684 39.4046C124.179 39.4046 122.81 39.9183 121.83 40.8492C120.843 41.7882 120.302 43.1044 120.302 44.5571C120.302 46.0177 120.843 47.35 121.822 48.313C122.802 49.2841 124.171 49.8138 125.668 49.8138C127.236 49.8138 128.598 49.2601 129.529 48.2569C128.813 47.7272 128.12 47.2135 128.12 47.2135L127.658 47.4864Z" fill="#21A038"/>
<g id="Layer 1 2">
<g id="&#208;&#154;&#209;&#128;&#209;&#131;&#208;&#179;">
<path id="Vector_13" d="M113.588 39.421C113.984 39.9363 114.313 40.5014 114.594 41.0997L106.976 46.7673L103.777 44.7396V42.313L106.96 44.3241L113.588 39.421Z" fill="#21A038"/>
<path id="Vector_14" d="M100.528 44.5734C100.528 44.457 100.528 44.3573 100.544 44.241L98.6151 44.1412C98.6151 44.2742 98.5986 44.4238 98.5986 44.5567C98.5986 46.8836 99.5385 48.9944 101.055 50.5235L102.424 49.144C101.253 47.9806 100.528 46.3684 100.528 44.5734Z" fill="url(#paint1_linear_1388_63784)"/>
<path id="Vector_15" d="M106.958 38.0913C107.074 38.0913 107.173 38.0913 107.288 38.108L107.387 36.1633C107.255 36.1633 107.107 36.1467 106.975 36.1467C104.667 36.1467 102.573 37.0941 101.056 38.6232L102.424 40.0027C103.578 38.8226 105.194 38.0913 106.958 38.0913Z" fill="url(#paint2_linear_1388_63784)"/>
<path id="Vector_16" d="M106.959 51.0554C106.844 51.0554 106.745 51.0554 106.629 51.0388L106.53 52.9834C106.662 52.9834 106.811 53 106.942 53C109.251 53 111.345 52.0526 112.862 50.5235L111.493 49.144C110.339 50.3407 108.74 51.0554 106.959 51.0554Z" fill="url(#paint3_linear_1388_63784)"/>
<path id="Vector_17" d="M110.586 39.2215L112.219 38.0082C110.784 36.8448 108.954 36.1301 106.959 36.1301V38.0747C108.311 38.0914 109.564 38.5069 110.586 39.2215Z" fill="url(#paint4_linear_1388_63784)"/>
<path id="Vector_18" d="M115.334 44.5734C115.334 44.0581 115.285 43.5595 115.203 43.0609L113.405 44.4072C113.405 44.457 113.405 44.5235 113.405 44.5734C113.405 46.4847 112.581 48.1967 111.278 49.3767L112.581 50.8227C114.263 49.2936 115.334 47.0498 115.334 44.5734Z" fill="#21A038"/>
<path id="Vector_19" d="M106.957 51.0554C105.061 51.0554 103.363 50.2244 102.192 48.9114L100.758 50.2244C102.291 51.9363 104.501 53 106.957 53V51.0554Z" fill="url(#paint5_linear_1388_63784)"/>
<path id="Vector_20" d="M102.655 39.7701L101.352 38.3241C99.6539 39.8698 98.5986 42.097 98.5986 44.5734H100.528C100.528 42.6787 101.352 40.9501 102.655 39.7701Z" fill="url(#paint6_linear_1388_63784)"/>
</g>
</g>
</g>
</g>
</g>
<defs>
<linearGradient id="paint0_linear_1388_63784" x1="0.887907" y1="8.43156" x2="29.8916" y2="34.8017" gradientUnits="userSpaceOnUse">
<stop stop-color="#6BBD3F"/>
<stop offset="0.427083" stop-color="#2CA465"/>
<stop offset="0.828125" stop-color="#148F82"/>
<stop offset="1" stop-color="#0276A2"/>
</linearGradient>
<linearGradient id="paint1_linear_1388_63784" x1="101.448" y1="50.2885" x2="99.3049" y2="44.1441" gradientUnits="userSpaceOnUse">
<stop offset="0.1444" stop-color="#F2E913"/>
<stop offset="0.3037" stop-color="#E7E518"/>
<stop offset="0.5823" stop-color="#CADB26"/>
<stop offset="0.891" stop-color="#A3CD39"/>
</linearGradient>
<linearGradient id="paint2_linear_1388_63784" x1="101.607" y1="38.9666" x2="107.059" y2="36.9056" gradientUnits="userSpaceOnUse">
<stop offset="0.0592" stop-color="#0FA8E0"/>
<stop offset="0.5385" stop-color="#0099F9"/>
<stop offset="0.9234" stop-color="#0291EB"/>
</linearGradient>
<linearGradient id="paint3_linear_1388_63784" x1="106.418" y1="51.8168" x2="112.575" y2="50.4362" gradientUnits="userSpaceOnUse">
<stop offset="0.1226" stop-color="#A3CD39"/>
<stop offset="0.2846" stop-color="#86C339"/>
<stop offset="0.8693" stop-color="#21A038"/>
</linearGradient>
<linearGradient id="paint4_linear_1388_63784" x1="106.561" y1="36.7924" x2="111.828" y2="38.4047" gradientUnits="userSpaceOnUse">
<stop offset="0.0566" stop-color="#0291EB"/>
<stop offset="0.79" stop-color="#0C8ACB"/>
</linearGradient>
<linearGradient id="paint5_linear_1388_63784" x1="101.246" y1="49.9882" x2="106.983" y2="52.1147" gradientUnits="userSpaceOnUse">
<stop offset="0.1324" stop-color="#F2E913"/>
<stop offset="0.2977" stop-color="#EBE716"/>
<stop offset="0.5306" stop-color="#D9E01F"/>
<stop offset="0.8023" stop-color="#BBD62D"/>
<stop offset="0.9829" stop-color="#A3CD39"/>
</linearGradient>
<linearGradient id="paint6_linear_1388_63784" x1="99.3214" y1="44.808" x2="101.652" y2="38.7936" gradientUnits="userSpaceOnUse">
<stop offset="0.0698" stop-color="#A3CD39"/>
<stop offset="0.2599" stop-color="#81C55F"/>
<stop offset="0.9216" stop-color="#0FA8E0"/>
</linearGradient>
</defs>
</svg>
