<svg width="540" height="108" viewBox="0 0 540 108" fill="none" xmlns="http://www.w3.org/2000/svg">
<g id="img_3 / desk">
<g id="Layer 3">
<path id="Vector" d="M259.424 45.7902C260.133 46.2755 260.972 46.5618 261.845 46.6162C262.718 46.6707 263.59 46.4912 264.36 46.0982C265.131 45.7053 265.768 45.1148 266.2 44.3946C266.631 43.6745 266.839 42.8538 266.8 42.0268C266.729 40.5223 265.856 39.1473 265.616 37.6607C265.181 34.9554 266.857 32.4107 268.055 29.9107C269.868 26.1429 270.637 21.6697 268.853 17.8929C267.069 14.1161 262.133 11.5536 258.112 13.1786C256.49 11.0316 254.245 9.37541 251.648 8.41038C249.052 7.44535 246.215 7.21288 243.482 7.74109C243.053 7.86565 242.604 7.91409 242.156 7.88395C241.545 7.72383 240.989 7.41613 240.542 6.99109C238.828 5.6797 236.83 4.74248 234.689 4.24637C232.548 3.75027 230.318 3.70753 228.157 4.12121C225.997 4.53489 223.96 5.39477 222.191 6.63944C220.423 7.88411 218.967 9.48284 217.927 11.3214C216.549 13.75 215.959 16.6786 216.846 19.3036C217.734 21.9286 220.301 24.1072 223.222 24.1741C221.627 26.6027 222.934 30.0581 225.464 31.625C227.993 33.192 231.316 33.1786 234.223 32.3884C235.167 32.1295 236.158 31.7947 237.106 32.0447C237.88 32.317 238.562 32.7793 239.084 33.3839L247.291 41.4866C248.437 42.6161 249.65 43.7723 251.146 44.3929C253.36 45.2857 255.974 44.9509 258.183 45.8616" fill="#005374"/>
<path id="Vector_2" d="M229.451 24.1071C228.89 28.8259 229.485 34.1428 229.867 38.875C230.249 43.6071 230.768 46.7187 232.467 50.6518C235.728 58.1919 242.274 57.7946 242.514 58.1339C242.628 58.2857 242.609 59.375 243.251 63.1205C245.271 65.0134 250.462 65.183 254.407 62.4955C258.352 59.808 260.613 57.1384 263.147 53.1875C261.977 49.6741 260.721 46.1473 260.434 42.4732C260.434 42.2098 260.957 42.3303 261.033 42.0803C261.153 41.7893 261.324 41.5192 261.538 41.2812C263.043 39.3036 263.058 36.6652 262.883 34.2366C262.874 33.2636 262.657 32.3025 262.246 31.4107C262.034 30.9679 261.698 30.5889 261.273 30.3155C260.848 30.0422 260.352 29.8851 259.839 29.8616C258.782 29.8884 257.914 30.6696 257.342 31.5134C256.771 32.3571 256.399 33.2991 255.677 34.058C254.955 34.8169 253.789 35.2991 252.845 34.8661C252.329 34.5861 251.92 34.1597 251.675 33.6473C250.197 31.0134 250.49 27.625 248.56 25.2634C247.361 23.7991 245.455 22.9732 243.529 22.6473C241.604 22.3214 239.489 23.2678 237.668 22.5848C235.671 21.8348 234.426 21.7902 232.911 22.1384C231.967 22.3482 229.938 23.2634 229.485 24.0714" fill="#FFC3B0"/>
<path id="Vector_3" d="M241.616 36.1097C242.232 36.0409 242.618 35.074 242.477 33.9501C242.337 32.8262 241.724 31.971 241.108 32.0399C240.492 32.1087 240.106 33.0756 240.246 34.1995C240.387 35.3234 241 36.1786 241.616 36.1097Z" fill="#232426"/>
<path id="Vector_4" d="M231.681 36.0516C232.176 35.9963 232.485 35.2211 232.373 34.32C232.26 33.419 231.768 32.7333 231.274 32.7886C230.779 32.8439 230.47 33.6191 230.582 34.5202C230.695 35.4212 231.187 36.1069 231.681 36.0516Z" fill="#232426"/>
<path id="Vector_5" d="M228.98 30.5268C229.357 29.7455 230.396 29.7902 231.089 30.0804C231.908 30.4368 232.635 30.9561 233.222 31.6027C233.444 31.8304 233.798 31.4911 233.581 31.2634C232.883 30.4839 231.987 29.8861 230.976 29.5268C230.108 29.25 228.961 29.4063 228.546 30.2768C228.409 30.558 228.848 30.7991 228.98 30.5179V30.5268Z" fill="#232426"/>
<path id="Vector_6" d="M260.113 31.4956C259.255 32.3907 258.532 33.3944 257.966 34.4777C257.696 34.9999 257.463 35.5382 257.267 36.0893C257.102 36.567 256.932 37.1295 257.267 37.5715C257.461 37.817 257.9 37.5715 257.706 37.3304C257.39 36.9331 257.706 36.3482 257.848 35.9375C258.038 35.4285 258.267 34.9332 258.532 34.4554C259.053 33.5074 259.7 32.6267 260.458 31.8348C260.675 31.6072 260.316 31.2679 260.099 31.4956H260.113Z" fill="#232426"/>
<path id="Vector_7" d="M257.564 36.1607C257.862 36.266 258.124 36.4466 258.321 36.6827C258.519 36.9188 258.644 37.2014 258.683 37.5C258.76 38.2284 258.546 38.9577 258.084 39.5446C257.904 39.8036 258.343 40.0446 258.522 39.7857C259.069 39.0754 259.299 38.1907 259.164 37.3214C259.091 36.9543 258.917 36.612 258.66 36.329C258.402 36.046 258.07 35.8324 257.697 35.7098C257.385 35.6161 257.253 36.0804 257.564 36.1563V36.1607Z" fill="#232426"/>
<path id="Vector_8" d="M255.667 43.1027C256.178 43.4094 256.76 43.594 257.362 43.6407C257.965 43.6874 258.57 43.5947 259.127 43.3706C260.297 42.8647 261.303 42.0707 262.039 41.0715C262.237 40.8304 261.883 40.4911 261.68 40.7322C261.015 41.6323 260.125 42.3625 259.089 42.8572C258.586 43.085 258.03 43.1886 257.473 43.1581C256.915 43.1277 256.376 42.9642 255.903 42.6831C255.634 42.509 255.38 42.9242 255.649 43.0983L255.667 43.1027Z" fill="#232426"/>
<path id="Vector_9" d="M234.516 18.0625C236.073 21.8271 239.061 24.906 242.892 26.6965C244.964 27.6518 247.541 28.1697 249.499 27.0313C249.97 26.7849 250.364 26.4269 250.644 25.9924C250.924 25.558 251.079 25.0621 251.095 24.5536C251.038 23.2143 249.801 22.2634 248.674 21.4777C245.37 19.1875 241.595 16.7768 237.541 17.4108" fill="#005374"/>
<path id="Vector_10" d="M251.203 25.5447C248.267 28.384 243.392 27.2724 240.471 25.0491C238.786 23.7679 237.668 22.1027 236.398 20.4822C235.283 19.0525 233.898 17.8309 232.311 16.8795C230.484 15.782 228.437 15.0511 226.299 14.7322C225.983 14.6831 225.827 15.1429 226.167 15.1786C228.229 15.483 230.204 16.1768 231.976 17.2188C233.807 18.3394 235.375 19.8043 236.582 21.5224C237.767 23.1206 238.999 24.625 240.688 25.7768C242.247 26.8811 244.107 27.5395 246.049 27.6741C247.049 27.7618 248.057 27.6484 249.007 27.3414C249.957 27.0344 250.827 26.5408 251.561 25.8929C251.788 25.6697 251.434 25.3304 251.203 25.5536V25.5447Z" fill="#232426"/>
<path id="Vector_11" d="M221.25 20.5715C222.184 20.0268 223.247 19.7111 224.343 19.6526C225.439 19.5941 226.533 19.7949 227.526 20.2366C227.819 20.3706 228.078 19.9554 227.781 19.8215C226.709 19.3411 225.528 19.1202 224.343 19.1786C223.159 19.2371 222.008 19.573 220.995 20.1563C220.716 20.3215 220.995 20.7366 221.25 20.5715Z" fill="#232426"/>
<path id="Vector_12" d="M256.517 22.1072C256.689 23.4943 256.493 24.9003 255.946 26.1975C255.399 27.4948 254.518 28.6422 253.383 29.5358C253.133 29.7322 253.492 30.0715 253.742 29.875C254.929 28.9399 255.852 27.7408 256.429 26.3851C257.005 25.0293 257.217 23.5594 257.045 22.1072C257.008 21.8036 256.503 21.8036 256.54 22.1072H256.517Z" fill="#232426"/>
<path id="Vector_13" d="M241.953 58.0357C243.933 58.182 245.911 57.7437 247.616 56.7813C251.137 54.8214 252.807 52.317 253.355 50.5312C253.355 50.5312 251.901 55.8884 247.786 59.6116C244.058 62.9956 242.911 62.067 242.911 62.067L241.953 58.0357Z" fill="#232426"/>
<path id="Vector_14" d="M234.549 33.3214C234.958 34.4455 235.126 35.6352 235.045 36.8215C234.964 38.0079 234.635 39.1671 234.077 40.2321C233.605 41.1026 232.92 41.866 233.241 42.9107C233.562 43.9553 234.52 44.5535 235.417 45.0982C235.695 45.2678 235.946 44.8526 235.672 44.683C234.695 44.0848 233.312 43.1964 233.723 41.9018C233.95 41.3767 234.227 40.8718 234.549 40.3928C234.772 39.9603 234.962 39.5127 235.115 39.0535C235.744 37.1373 235.713 35.0813 235.025 33.183C234.921 32.8928 234.431 33.0178 234.553 33.308L234.549 33.3214Z" fill="#232426"/>
<path id="Vector_15" d="M237.63 47.9107C240.023 47.7009 243.213 46.1741 244.709 44.7277C244.615 45.9687 244.629 47.5982 243.836 48.6875C243.466 49.1399 242.969 49.4848 242.401 49.6829C241.834 49.881 241.219 49.9244 240.627 49.808C240.042 49.7029 239.486 49.488 238.991 49.1759C238.495 48.8638 238.071 48.4609 237.744 47.9911" fill="white"/>
<path id="Vector_16" d="M384.117 47.2143C377.581 49.2589 372.455 53.9107 368.699 59.2411C366.659 62.2114 364.868 65.328 363.342 68.5625C362.757 69.7545 362.111 71.4643 360.605 71.8304C359.638 72.067 358.524 71.6965 357.576 71.5C356.627 71.3036 355.579 71.0536 354.583 70.8438C350.2 69.8234 345.878 68.5836 341.634 67.1295C341.058 66.9331 340.813 67.7947 341.379 67.9911C345.198 69.2947 349.075 70.4271 353.007 71.3884C354.98 71.8661 356.971 72.3616 358.977 72.6875C359.705 72.8531 360.47 72.8052 361.169 72.55C361.867 72.2948 362.468 71.8445 362.889 71.2589C363.885 69.9688 364.466 68.3616 365.202 66.9331C366.037 65.3081 366.924 63.7098 367.887 62.1518C369.706 59.1333 371.944 56.3586 374.541 53.9018C377.312 51.2906 380.671 49.3065 384.367 48.0982C384.943 47.9197 384.697 47.058 384.117 47.2366V47.2143Z" fill="#0A7A42"/>
<path id="Vector_17" d="M365.669 100.741C369.105 93.3214 372.808 86.0208 376.779 78.8393C378.77 75.2411 380.831 71.6697 382.961 68.125C384.929 64.8572 386.873 61.5357 389.096 58.4241C391.253 55.4152 393.943 52.5268 397.671 51.3081C398.242 51.1206 397.997 50.2589 397.421 50.4464C394.16 51.5134 391.621 53.7456 389.554 56.2991C387.194 59.2143 385.306 62.4822 383.362 65.6741C378.983 72.8378 374.878 80.1429 371.049 87.5893C368.894 91.7857 366.827 96.0238 364.848 100.304C364.603 100.826 365.419 101.277 365.66 100.75L365.669 100.741Z" fill="#0A7A42"/>
<path id="Vector_18" d="M337.358 73.4509C341.077 76.6928 344.978 79.7433 349.043 82.5893C352.922 85.2991 357.028 87.6875 361.785 88.7411C364.489 89.3409 367.274 89.5472 370.044 89.3527C370.648 89.308 370.653 88.4152 370.044 88.4598C365.237 88.807 360.421 87.8941 356.127 85.8214C351.856 83.7545 348.01 80.8348 344.329 77.9777C342.186 76.317 340.097 74.5997 338.061 72.8259C337.613 72.4375 336.943 73.067 337.391 73.4598L337.358 73.4509Z" fill="#0A7A42"/>
</g>
<g id="Layer 5">
<path id="Vector_19" d="M380.667 41.9107C381.182 43.719 381.874 45.4781 382.734 47.1652C382.761 47.2476 382.818 47.3186 382.894 47.3661C382.994 47.4107 383.107 47.3661 383.211 47.2991L386.042 45.7545C387.057 45.192 388.123 44.5848 388.765 43.5223C389.243 42.5865 389.525 41.5725 389.596 40.5357C389.694 40.0018 389.705 39.4568 389.629 38.9196C389.603 38.6765 389.506 38.4448 389.351 38.2496C389.195 38.0545 388.986 37.9033 388.746 37.8125C388.448 37.7731 388.143 37.8149 387.869 37.933C385.282 38.8155 382.94 40.2393 381.016 42.0982" fill="#FFC3B0"/>
<path id="Vector_20" d="M381.47 15.9331C381.47 15.9331 376.713 11.4331 372.857 15.0804C369.001 18.7277 371.441 20.3125 371.441 24.3259C371.441 28.3393 368.105 26.5134 367.331 29.9107C365.872 36.3438 370.927 41.0982 378.657 41.2232C386.387 41.3482 381.47 15.9331 381.47 15.9331Z" fill="#E87D2D"/>
<path id="Vector_21" d="M379.799 17.1875C379.799 17.1875 386.807 15.5625 388.879 20.7589C390.95 25.9553 391.682 28.8348 390.795 33.9687C390.243 37.1696 383.05 42.2902 378.959 42.8125C374.287 43.4062 372.97 39.3348 372.352 35.3527C371.337 28.7812 372.88 17.0402 379.799 17.1875Z" fill="#FFC3B0"/>
<path id="Vector_22" d="M378.515 15.933C378.289 16.2768 377.873 19.2187 380.403 20.8437C382.451 22.1562 387.557 24.7857 388.676 27.3705C389.832 30.0491 389.747 31.5446 388.803 35.0312C387.859 38.5178 386.618 41.8437 388.978 43.625C392.088 45.9821 397.718 43.7098 398.317 47.4375C398.917 51.1652 402.263 58.2232 410.663 55.5446C419.063 52.8661 422.825 44.0223 421.635 37.7098C420.305 30.6518 416.317 27.4911 411.862 27.817C407.407 28.1428 404.311 27.6518 403.207 23.5982C402.102 19.5446 400.8 17.2723 397.364 18.3259C393.928 19.3794 393.334 18.4062 391.106 16.3794C388.879 14.3527 381.79 10.9062 378.515 15.933Z" fill="#E87D2D"/>
<path id="Vector_23" d="M382.567 27.8439C382.639 27.0529 382.313 26.3801 381.838 26.341C381.363 26.3019 380.919 26.9114 380.846 27.7023C380.773 28.4932 381.1 29.1661 381.575 29.2052C382.05 29.2443 382.494 28.6348 382.567 27.8439Z" fill="#1E2022"/>
<path id="Vector_24" d="M374.764 28.0635C374.828 27.3733 374.544 26.7863 374.132 26.7523C373.719 26.7183 373.333 27.2503 373.269 27.9406C373.206 28.6308 373.489 29.2178 373.902 29.2518C374.315 29.2858 374.701 28.7538 374.764 28.0635Z" fill="#1E2022"/>
<path id="Vector_25" d="M380.847 24.4196C381.263 24.2586 381.721 24.2236 382.159 24.3195C382.597 24.4155 382.993 24.6377 383.291 24.9554C383.452 25.125 383.716 24.875 383.556 24.7054C383.202 24.3341 382.734 24.0769 382.218 23.9696C381.701 23.8624 381.163 23.9105 380.677 24.1071C380.46 24.2009 380.648 24.5045 380.865 24.4107L380.847 24.4196Z" fill="#232426"/>
<path id="Vector_26" d="M375.513 23.9018C375.273 23.6617 374.947 23.5143 374.598 23.4879C374.25 23.4615 373.903 23.5581 373.626 23.759C373.591 23.7931 373.571 23.8387 373.571 23.8862C373.571 23.9337 373.591 23.9793 373.626 24.0134C373.662 24.0451 373.709 24.0628 373.758 24.0628C373.807 24.0628 373.854 24.0451 373.89 24.0134C374.093 23.876 374.342 23.8141 374.59 23.8396C374.839 23.8652 375.068 23.9763 375.235 24.1518C375.251 24.1723 375.272 24.1892 375.296 24.2015C375.319 24.2137 375.346 24.221 375.373 24.2228C375.4 24.2246 375.427 24.2209 375.452 24.212C375.477 24.2031 375.5 24.1891 375.519 24.171C375.539 24.1529 375.553 24.1311 375.563 24.1071C375.572 24.0832 375.576 24.0576 375.574 24.032C375.572 24.0065 375.565 23.9817 375.552 23.9592C375.539 23.9368 375.521 23.9172 375.499 23.9018H375.513Z" fill="#232426"/>
<path id="Vector_27" d="M382.163 26.817C381.583 26.9199 380.987 26.9062 380.412 26.7768C380.176 26.7277 380.077 27.067 380.313 27.1206C380.953 27.2618 381.617 27.274 382.262 27.1563C382.286 27.1501 382.308 27.1396 382.327 27.1254C382.347 27.1112 382.363 27.0936 382.375 27.0734C382.387 27.0533 382.394 27.0312 382.397 27.0082C382.4 26.9853 382.399 26.962 382.392 26.9398C382.386 26.9175 382.375 26.8966 382.36 26.8784C382.345 26.8602 382.326 26.8449 382.305 26.8335C382.283 26.8221 382.26 26.8148 382.236 26.812C382.211 26.8091 382.187 26.8108 382.163 26.817Z" fill="#232426"/>
<path id="Vector_28" d="M374.277 26.9733C373.806 27.139 373.299 27.1956 372.8 27.1385C372.776 27.1379 372.751 27.1419 372.728 27.1504C372.705 27.1589 372.684 27.1716 372.667 27.1878C372.649 27.2041 372.635 27.2235 372.626 27.2449C372.616 27.2663 372.611 27.2893 372.611 27.3126C372.613 27.3596 372.633 27.4043 372.668 27.4376C372.703 27.4708 372.75 27.49 372.8 27.4911C373.333 27.5537 373.874 27.4924 374.376 27.3126C374.4 27.3064 374.422 27.2959 374.441 27.2817C374.461 27.2675 374.477 27.2498 374.489 27.2297C374.501 27.2096 374.508 27.1875 374.511 27.1645C374.514 27.1416 374.513 27.1183 374.506 27.096C374.5 27.0738 374.489 27.0529 374.474 27.0347C374.459 27.0165 374.44 27.0012 374.419 26.9898C374.397 26.9784 374.374 26.9711 374.35 26.9683C374.325 26.9654 374.301 26.9671 374.277 26.9733Z" fill="#232426"/>
<path id="Vector_29" d="M375.367 36.2679C376.675 36.683 378.094 36.6561 379.384 36.192L379.157 36.0715C379.332 36.5492 378.973 37.0447 378.647 37.4108C378.316 37.7654 377.902 38.0434 377.439 38.2233C377.217 38.3081 377.316 38.6697 377.538 38.567C378.102 38.3526 378.601 38.0107 378.992 37.5715C379.369 37.1251 379.728 36.5626 379.516 35.9956C379.501 35.9507 379.469 35.9127 379.426 35.8895C379.383 35.8662 379.333 35.8595 379.284 35.8706C378.06 36.3155 376.709 36.3408 375.466 35.942C375.235 35.8706 375.141 36.2144 375.367 36.2858V36.2679Z" fill="#232426"/>
<path id="Vector_30" d="M376.561 27.2322C376.589 27.9138 376.478 28.5942 376.236 29.2366C375.95 29.8502 375.607 30.4388 375.212 30.9956C375.049 31.2301 374.938 31.4935 374.886 31.7698C374.834 32.0461 374.842 32.3294 374.91 32.6027C374.995 32.8364 375.141 33.0458 375.335 33.2113C375.529 33.3768 375.764 33.4931 376.019 33.5491C376.25 33.6027 376.349 33.2589 376.118 33.2054C375.82 33.1423 375.56 32.9705 375.395 32.7273C375.229 32.4841 375.172 32.1891 375.235 31.9063C375.406 31.3529 375.688 30.8359 376.066 30.3839C376.677 29.437 376.979 28.3407 376.934 27.2322C376.934 27.0045 376.552 27.0045 376.561 27.2322Z" fill="#232426"/>
<path id="Vector_31" d="M376.859 33.192L377.5 33.4331C377.523 33.443 377.547 33.4482 377.571 33.4482C377.596 33.4482 377.62 33.443 377.642 33.4331C377.685 33.4114 377.717 33.3745 377.732 33.3304C377.748 33.2856 377.748 33.2368 377.732 33.192C377.704 33.1545 377.664 33.1263 377.618 33.1116L376.977 32.8661C376.929 32.8505 376.878 32.8505 376.83 32.8661C376.789 32.891 376.759 32.929 376.745 32.9733C376.727 33.0177 376.727 33.0672 376.745 33.1116C376.773 33.1492 376.813 33.1774 376.859 33.192Z" fill="#232426"/>
<path id="Vector_32" d="M388.614 27.8616C389.016 27.4076 389.537 27.0612 390.124 26.8572C390.418 26.7554 390.731 26.7128 391.043 26.732C391.355 26.7512 391.659 26.8319 391.937 26.9688C392.375 27.2213 392.722 27.5933 392.932 28.0358C393.222 28.594 393.354 29.2136 393.315 29.8344C393.276 30.4551 393.069 31.0558 392.712 31.5781C392.355 32.1003 391.861 32.5263 391.279 32.8146C390.697 33.1029 390.045 33.2437 389.388 33.2233" fill="#FFC3B0"/>
<path id="Vector_33" d="M388.747 27.9866C389.478 27.2187 390.634 26.5803 391.748 27.0937C392.645 27.4866 393.088 28.5714 393.117 29.4643C393.132 29.9338 393.046 30.4015 392.865 30.8387C392.683 31.276 392.41 31.6737 392.06 32.0078C391.711 32.3419 391.294 32.6053 390.834 32.782C390.374 32.9587 389.88 33.045 389.384 33.0357C389.339 33.0424 389.299 33.0638 389.27 33.0961C389.241 33.1285 389.225 33.1695 389.225 33.212C389.225 33.2545 389.241 33.2956 389.27 33.3279C389.299 33.3602 389.339 33.3817 389.384 33.3884C390.268 33.4054 391.134 33.1474 391.849 32.6538C392.563 32.1602 393.086 31.4584 393.338 30.6562C393.81 29.1339 393.187 26.8214 391.257 26.5625C390.729 26.5268 390.2 26.614 389.715 26.8163C389.231 27.0186 388.806 27.3299 388.478 27.7232C388.317 27.8928 388.577 28.1428 388.742 27.9732L388.747 27.9866Z" fill="#232426"/>
<path id="Vector_34" d="M389.365 29.9107C389.591 29.4164 389.944 28.9836 390.392 28.652C390.841 28.3205 391.37 28.1009 391.932 28.0134C392.168 27.9777 392.069 27.6384 391.833 27.6741C391.209 27.7778 390.622 28.0284 390.128 28.4029C389.633 28.7774 389.245 29.2637 389.002 29.817C388.995 29.8393 388.994 29.8625 388.997 29.8854C389 29.9083 389.008 29.9304 389.02 29.9503C389.032 29.9702 389.049 29.9877 389.068 30.0016C389.088 30.0155 389.11 30.0256 389.134 30.0313C389.181 30.0438 389.232 30.0382 389.275 30.0156C389.318 29.9931 389.351 29.9554 389.365 29.9107Z" fill="#232426"/>
<path id="Vector_35" d="M389.747 29.1519C389.974 29.6171 390.28 30.0439 390.653 30.4152C390.67 30.4333 390.691 30.4479 390.714 30.4581C390.737 30.4684 390.762 30.4741 390.788 30.4749C390.813 30.4757 390.839 30.4716 390.863 30.4628C390.886 30.454 390.908 30.4407 390.926 30.4238C390.944 30.4068 390.959 30.3866 390.969 30.3642C390.978 30.3418 390.983 30.3178 390.983 30.2937C390.982 30.2695 390.977 30.2456 390.966 30.2236C390.956 30.2015 390.941 30.1816 390.922 30.1652C390.57 29.8147 390.282 29.4121 390.068 28.9733C390.056 28.9527 390.04 28.9346 390.021 28.9201C390.001 28.9057 389.979 28.8952 389.955 28.8893C389.931 28.8835 389.906 28.8823 389.882 28.886C389.857 28.8897 389.834 28.8982 389.813 28.9108C389.771 28.9349 389.741 28.9736 389.728 29.0186C389.716 29.0636 389.723 29.1114 389.747 29.1519Z" fill="#232426"/>
<path id="Vector_36" d="M94.546 36.8482C96.613 38.317 99.4163 38.6339 101.955 38.1518C104.494 37.6696 106.797 36.4196 108.911 35.0268C110.799 33.7589 112.63 32.2723 113.654 30.3036C114.49 28.6964 114.735 26.8795 114.844 25.0937C115.056 21.5625 114.712 17.8393 112.687 14.8661C110.662 11.8928 106.552 9.97767 103.064 11.2277C99.9684 12.3348 97.7173 15.6518 94.4091 15.5089C92.7102 15.433 91.2425 14.4241 89.822 13.5357C87.9862 12.3839 85.9946 11.3571 83.819 11.0491C81.6434 10.7411 79.2272 11.2723 77.7595 12.8348C76.2257 14.4643 75.7726 17.0759 73.6867 18C72.5682 18.4955 71.2704 18.3527 70.0576 18.558C66.9712 19.0893 64.8663 21.8036 63.5308 24.4911C59.6987 32.2455 59.6043 41.5 54.6113 48.6384C56.8388 49.4955 59.123 50.3839 60.8927 51.9286C61.4817 52.5265 62.1331 53.0664 62.837 53.5402C64.0122 54.2098 65.4751 54.2545 66.8437 54.1205C73.7103 53.4598 79.5858 49.0357 83.8898 43.942C84.7959 42.8705 85.669 41.75 86.8346 40.942C89.0386 39.4107 92.0872 39.1562 94.0504 37.3348" fill="#67EAC3"/>
<path id="Vector_37" d="M94.3198 27.442C95.4005 31.3884 96.4765 35.567 95.2636 39.4956C94.9899 40.2234 94.7738 40.9695 94.6171 41.7277C94.3103 43.9107 95.6695 46.0134 97.3165 47.5759C97.6722 47.8455 97.9378 48.2068 98.0811 48.6161C98.1126 48.9167 98.0502 49.2194 97.9018 49.4867C97.7533 49.7541 97.5252 49.9745 97.2457 50.1206C96.6819 50.4025 96.1003 50.6515 95.5043 50.8661C93.1164 51.9554 92.1583 54.6384 91.4929 57.0625C90.8275 59.4866 90.0252 62.1741 87.7552 63.4598C85.8675 64.5402 83.4371 64.2991 81.2615 63.8616C79.0859 63.4241 76.849 62.8214 74.6828 63.2857C71.8512 63.9018 69.7983 66.1964 67.6794 68.1072C67.5493 68.2594 67.3874 68.3848 67.204 68.4754C67.0205 68.566 66.8193 68.62 66.6128 68.634C66.3753 68.6045 66.1496 68.5184 65.9568 68.3839C59.5928 64.707 54.7273 59.1055 52.1482 52.4866C51.9696 52.1278 51.9009 51.7287 51.95 51.3348C52.0576 51.0004 52.2467 50.6946 52.5022 50.442L55.2818 47.2322C56.8722 48.6831 59.3168 48.7857 61.5254 48.8036C62.6109 48.8036 63.7577 48.8036 64.6968 48.2902C65.2026 47.9752 65.6323 47.5626 65.9576 47.0794C66.283 46.5962 66.4966 46.0534 66.5845 45.4866C66.7451 44.3579 66.7878 43.217 66.7119 42.0804C66.6836 39.6875 67.0234 37.2277 68.2315 35.125C68.8403 34.0536 69.8455 33.0357 71.115 33.0357C72.3845 33.0357 73.2859 33.9822 73.9466 34.9331C74.7855 36.1416 75.3926 37.4805 75.7399 38.8884C75.6503 37.3081 75.5653 35.6831 76.1222 34.1964C76.6791 32.7098 78.0335 31.3661 79.6994 31.2813C80.6858 31.2322 81.6343 31.6116 82.5876 31.8572C84.7853 32.3645 87.098 32.179 89.174 31.3289C91.25 30.4787 92.9757 29.0104 94.0885 27.1473" fill="#FFC3B0"/>
<path id="Vector_38" d="M90.058 54.0179C88.6727 53.8832 87.3906 53.2637 86.4633 52.2808C85.5361 51.2979 85.0306 50.0227 85.0461 48.7054C85.0461 48.619 85.0098 48.5361 84.9452 48.475C84.8806 48.4138 84.793 48.3795 84.7016 48.3795C84.6102 48.3795 84.5226 48.4138 84.458 48.475C84.3934 48.5361 84.3571 48.619 84.3571 48.7054C84.3267 50.1991 84.8994 51.6476 85.9586 52.7558C87.0179 53.864 88.4839 54.5484 90.058 54.6697C90.5016 54.7099 90.4969 54.0581 90.058 54.0179Z" fill="white"/>
<path id="Vector_39" d="M92.026 35.6742C90.7895 35.1608 89.4115 35.625 88.2741 36.1652C87.8777 36.3527 88.2269 36.9152 88.6233 36.7277C89.1945 36.4375 89.8111 36.2356 90.4497 36.1295C90.6787 36.105 90.9098 36.105 91.1387 36.1295C91.231 36.1379 91.3225 36.1528 91.4124 36.1742L91.5587 36.2143L91.6437 36.2456H91.6814C91.7614 36.2868 91.8551 36.2972 91.9429 36.2748C92.0308 36.2523 92.1062 36.1987 92.1534 36.125C92.177 36.0883 92.1926 36.0474 92.1992 36.0049C92.2058 35.9623 92.2033 35.9189 92.1918 35.8773C92.1804 35.8357 92.1602 35.7966 92.1325 35.7625C92.1049 35.7284 92.0702 35.6998 92.0307 35.6786L92.026 35.6742Z" fill="#232426"/>
<path id="Vector_40" d="M73.8191 40.9242C73.6546 39.8372 73.3073 38.7822 72.7903 37.7992C72.5492 37.3722 72.2647 36.9685 71.9409 36.5938C71.6614 36.22 71.2727 35.9314 70.8224 35.7635C70.7801 35.7576 70.7369 35.7667 70.7012 35.7889C70.6654 35.8112 70.6396 35.8451 70.6285 35.8842C70.6174 35.9233 70.6219 35.9649 70.6411 36.0011C70.6604 36.0372 70.693 36.0655 70.7327 36.0804C71.1574 36.2548 71.5185 36.5436 71.771 36.9108C72.0797 37.2834 72.3484 37.6842 72.5732 38.1072C73.0306 39.0334 73.3392 40.0189 73.4888 41.0313C73.5265 41.2367 73.8569 41.1474 73.8191 40.942V40.9242Z" fill="#232426"/>
<path id="Vector_41" d="M72.6058 39.25C71.9582 39.7684 71.5543 40.5085 71.4826 41.3081C71.459 41.5179 71.8035 41.5134 71.8271 41.3081C71.8988 40.596 72.2653 39.9397 72.8465 39.4822C72.8788 39.4513 72.8969 39.4096 72.8969 39.3661C72.8969 39.3226 72.8788 39.2809 72.8465 39.25C72.8307 39.235 72.8119 39.2232 72.7913 39.215C72.7706 39.2069 72.7485 39.2028 72.7261 39.2028C72.7038 39.2028 72.6816 39.2069 72.661 39.215C72.6403 39.2232 72.6216 39.235 72.6058 39.25Z" fill="#232426"/>
<path id="Vector_42" d="M90.4245 40.6595C90.6178 39.8036 90.291 39.0119 89.6946 38.8914C89.0981 38.7709 88.4579 39.367 88.2646 40.223C88.0713 41.0789 88.3981 41.8705 88.9945 41.9911C89.5909 42.1116 90.2311 41.5155 90.4245 40.6595Z" fill="#1E2022"/>
<path id="Vector_43" d="M71.6104 45.8661C69.9021 46.5536 68.1418 44.8929 67.4669 43.5759C66.6269 41.9509 66.7543 40.067 67.1554 38.3483C67.2026 38.1474 66.8676 38.0581 66.8204 38.2634C66.3484 40.1831 66.2824 42.2813 67.3395 44.067C68.1701 45.4465 70.02 46.8751 71.7803 46.1652C71.988 46.0849 71.8086 45.8036 71.6104 45.884V45.8661Z" fill="#232426"/>
<path id="Vector_44" d="M94.2771 49.576L92.2195 49.8706C92.1978 49.8758 92.1774 49.885 92.1594 49.8977C92.1415 49.9104 92.1263 49.9264 92.1149 49.9446C92.1035 49.9629 92.0961 49.9831 92.0929 50.0041C92.0898 50.0251 92.0912 50.0465 92.0968 50.067C92.11 50.1083 92.1393 50.1432 92.1788 50.1648C92.2182 50.1863 92.2648 50.1929 92.3092 50.1831L94.3668 49.8885C94.3885 49.8833 94.4088 49.8741 94.4266 49.8613C94.4443 49.8485 94.4592 49.8325 94.4702 49.8141C94.4812 49.7957 94.4882 49.7755 94.4907 49.7545C94.4932 49.7335 94.4912 49.7122 94.4848 49.692C94.4726 49.6511 94.4442 49.6162 94.4056 49.5946C94.3669 49.573 94.3209 49.5663 94.2771 49.576Z" fill="#232426"/>
<path id="Vector_45" d="M114.636 6.69645C113.522 5.42575 111.977 4.55925 110.264 4.24428C108.551 3.92931 106.776 4.18532 105.24 4.96878C102.248 6.50003 100.252 9.6786 96.7924 10.384C96.3204 10.4822 96.5139 11.1741 96.9906 11.0759C100.219 10.4197 102.182 7.71878 104.806 6.05806C106.198 5.11918 107.905 4.69515 109.605 4.8661C111.374 5.0655 112.99 5.91151 114.107 7.22324C114.414 7.58038 114.952 7.07145 114.645 6.71431L114.636 6.69645Z" fill="white"/>
<path id="Vector_46" d="M117.647 26.625C115.499 31.9509 110.143 35.8081 104.258 36.7634C102.571 37.0371 100.849 37.0522 99.1566 36.8081C98.7224 36.7456 98.5336 37.3706 98.9725 37.4375C105.211 38.3304 111.715 35.7813 115.674 31.1429C116.789 29.8307 117.678 28.3602 118.307 26.7858C118.468 26.3929 117.802 26.2233 117.647 26.6116V26.625Z" fill="#232426"/>
<path id="Vector_47" d="M76.0653 18.2053C74.0926 18.4509 72.2049 17.5223 70.3172 17.058C68.4295 16.5937 65.9141 16.8571 65.126 18.5625" fill="white"/>
<path id="Vector_48" d="M126.448 87.4018C129.473 90.3437 133.433 92.6205 137.156 94.7321C137.534 94.9464 139.11 93.058 140.932 90.3705C146.562 89.2232 149.172 81.8884 150.37 79.1875C153.141 72.9375 156.081 66.8973 157.379 60.2455C157.568 59.5082 157.538 58.7359 157.294 58.0134C156.987 57.375 156.019 57.3348 155.406 57.7277C155.68 56.6964 155.901 55.1786 155.628 54.1562C155.354 53.1339 154.462 52.2634 153.244 52.817C153.617 51.3884 153.749 49.5045 153.136 48.1518C152.971 47.7946 152.518 47.3839 152.107 47.4241C150.894 47.5402 150.507 48.317 150.116 49.5446C149.724 50.7723 149.908 51.5937 149.172 52.6696C150.772 48.5491 147.595 45.2545 146.128 48.1071C144.882 53.7455 142.352 61.3393 137.51 66.6786C137.727 65.008 137.623 63.3142 137.204 61.6786C136.817 60.0893 135.651 58.5536 133.976 58.1741C133.684 58.0867 133.369 58.0962 133.084 58.2009C132.357 58.5312 133.81 61.1428 133.664 61.8973C131.89 70.9018 134.33 73.558 124.428 82.5312C124.424 82.5045 123.645 84.683 126.448 87.4018Z" fill="#FFC3B0"/>
<path id="Vector_49" d="M157.011 57.5C156.678 57.3438 156.295 57.3088 155.937 57.4019C155.578 57.4949 155.268 57.7094 155.066 58.0045C154.429 58.8393 154.429 60.0625 154.174 61.0268C153.576 63.2778 152.551 65.4075 151.149 67.3126C151.026 67.4867 151.324 67.6474 151.451 67.4777C152.592 65.9188 153.488 64.2122 154.113 62.4108C154.417 61.5074 154.657 60.5857 154.83 59.6518C154.986 58.8259 155.571 57.0983 156.836 57.7813C156.875 57.7956 156.917 57.7963 156.957 57.7834C156.996 57.7706 157.029 57.7449 157.05 57.711C157.071 57.6772 157.079 57.6374 157.071 57.5987C157.064 57.56 157.043 57.5251 157.011 57.5Z" fill="#232426"/>
<path id="Vector_50" d="M154.868 52.9822C154.396 52.1965 153.278 52.5358 152.867 53.1875C152.589 53.7516 152.411 54.3548 152.338 54.9733C152.159 55.759 151.961 56.5402 151.734 57.317C150.83 60.4111 149.546 63.3943 147.907 66.2054C147.798 66.3929 148.1 66.5581 148.204 66.3706C149.514 64.1236 150.601 61.7668 151.451 59.3304C151.871 58.1206 152.235 56.8929 152.532 55.6474C152.678 55.0492 152.758 54.4197 152.952 53.8304C153.03 53.5113 153.216 53.2247 153.48 53.0134C153.56 52.9511 153.652 52.9049 153.751 52.8778C153.85 52.8506 153.954 52.8431 154.056 52.8557C154.159 52.8682 154.257 52.9006 154.346 52.9508C154.434 53.001 154.511 53.0679 154.571 53.1474C154.679 53.3304 154.977 53.1474 154.868 52.9822Z" fill="#232426"/>
<path id="Vector_51" d="M152.046 47.2367C150.88 47.4331 150.323 48.4867 150.002 49.4688C149.488 51.0403 149.181 52.6831 148.69 54.2679C147.627 57.7235 146.276 61.0941 144.651 64.3483C144.556 64.5358 144.854 64.701 144.948 64.5135C146.436 61.5491 147.698 58.4877 148.723 55.3528C149.242 53.7575 149.697 52.1474 150.087 50.5224C150.361 49.3974 150.734 47.7947 152.154 47.5537C152.371 47.5179 152.277 47.2054 152.06 47.2412L152.046 47.2367Z" fill="#232426"/>
<path id="Vector_52" d="M146.359 49.2947C146.443 49.4836 146.575 49.6499 146.743 49.7786C146.912 49.9073 147.112 49.9944 147.325 50.032C147.538 50.0697 147.757 50.0567 147.963 49.9942C148.17 49.9317 148.356 49.8217 148.506 49.6741C148.522 49.6592 148.535 49.6415 148.543 49.6219C148.552 49.6024 148.556 49.5814 148.556 49.5603C148.556 49.5391 148.552 49.5182 148.543 49.4987C148.535 49.4791 148.522 49.4614 148.506 49.4465C148.491 49.4309 148.472 49.4185 148.452 49.4101C148.431 49.4016 148.409 49.3972 148.386 49.3972C148.364 49.3972 148.341 49.4016 148.321 49.4101C148.3 49.4185 148.281 49.4309 148.266 49.4465C148.16 49.5596 148.026 49.6455 147.876 49.6964C147.726 49.7472 147.565 49.7612 147.407 49.7372C147.25 49.7131 147.102 49.6517 146.976 49.5587C146.85 49.4657 146.752 49.3442 146.689 49.2054C146.676 49.1643 146.647 49.1297 146.607 49.1089C146.568 49.0881 146.521 49.0827 146.477 49.0938C146.455 49.0994 146.435 49.1092 146.417 49.1224C146.399 49.1356 146.384 49.152 146.373 49.1707C146.362 49.1895 146.356 49.2101 146.353 49.2313C146.351 49.2526 146.353 49.2742 146.359 49.2947Z" fill="#232426"/>
<path id="Vector_53" d="M150.965 49.6473C150.906 49.8231 150.911 50.0126 150.979 50.1855C151.047 50.3584 151.174 50.5049 151.34 50.6014C151.506 50.698 151.702 50.7392 151.895 50.7184C152.089 50.6976 152.27 50.616 152.409 50.4866C152.428 50.4721 152.444 50.454 152.455 50.4333C152.466 50.4126 152.473 50.39 152.474 50.3668C152.476 50.3436 152.472 50.3203 152.463 50.2986C152.454 50.2769 152.441 50.2572 152.424 50.2407C152.406 50.2243 152.385 50.2115 152.362 50.2032C152.339 50.1949 152.315 50.1913 152.29 50.1926C152.266 50.1939 152.242 50.2001 152.22 50.2108C152.198 50.2214 152.179 50.2363 152.164 50.2545C152.152 50.2687 152.137 50.2808 152.121 50.2902H152.093L152.008 50.3348C152.036 50.3348 151.98 50.3348 151.975 50.3348C151.959 50.3368 151.943 50.3368 151.928 50.3348H151.88C151.838 50.3348 151.88 50.3348 151.88 50.3348H151.715C151.753 50.3348 151.715 50.3348 151.715 50.3348L151.607 50.3036L151.56 50.2768C151.56 50.2768 151.508 50.2411 151.536 50.2768L151.498 50.2456L151.465 50.2143L151.437 50.1831V50.1518L151.413 50.1116V50.0715C151.413 50.0982 151.413 50.0715 151.413 50.0447C151.399 50.0147 151.39 49.9832 151.385 49.9509C151.385 49.9509 151.385 49.9018 151.385 49.9509C151.385 50 151.385 49.9152 151.385 49.8973V49.8438C151.385 49.8438 151.385 49.7947 151.385 49.8438C151.39 49.8087 151.4 49.7743 151.413 49.7411C151.425 49.6991 151.418 49.6544 151.395 49.6168C151.372 49.5792 151.335 49.5517 151.291 49.5402C151.246 49.5304 151.2 49.537 151.16 49.5585C151.121 49.5801 151.091 49.615 151.078 49.6563L150.965 49.6473Z" fill="#232426"/>
<path id="Vector_54" d="M153.551 54.6429C153.614 54.8979 153.777 55.1204 154.008 55.2642C154.239 55.408 154.52 55.4621 154.792 55.4152C154.814 55.4096 154.835 55.3999 154.852 55.3866C154.87 55.3734 154.885 55.357 154.896 55.3383C154.907 55.3195 154.914 55.2989 154.916 55.2777C154.919 55.2564 154.917 55.2349 154.91 55.2143C154.897 55.1731 154.868 55.1381 154.828 55.1166C154.789 55.095 154.742 55.0885 154.698 55.0983H154.66C154.703 55.0983 154.66 55.0983 154.66 55.0983H154.49H154.457H154.377H154.339C154.297 55.0983 154.372 55.0983 154.339 55.0983C154.29 55.0789 154.242 55.055 154.198 55.0268H154.169C154.136 55.0045 154.169 55.0268 154.169 55.0268L154.108 54.9733L154.052 54.9152C154.052 54.9152 154.023 54.884 154.052 54.9152C154.08 54.9465 154.052 54.9152 154.052 54.9152L154.014 54.8572C154.012 54.8453 154.012 54.8333 154.014 54.8215C153.991 54.7731 153.975 54.722 153.967 54.6697C153.961 54.649 153.95 54.6297 153.936 54.6129C153.922 54.596 153.905 54.582 153.885 54.5716C153.865 54.5612 153.844 54.5547 153.821 54.5523C153.799 54.55 153.776 54.552 153.754 54.5581C153.711 54.5706 153.674 54.5983 153.651 54.6356C153.628 54.6729 153.621 54.717 153.632 54.759L153.551 54.6429Z" fill="#232426"/>
<path id="Vector_55" d="M155.793 59.2366C155.828 59.3474 155.887 59.4502 155.965 59.539C156.043 59.6278 156.14 59.7006 156.249 59.7532C156.358 59.8057 156.477 59.8369 156.599 59.8448C156.721 59.8527 156.843 59.8371 156.959 59.7991C157.002 59.7866 157.039 59.7589 157.062 59.7216C157.085 59.6843 157.092 59.6402 157.081 59.5982C157.068 59.5572 157.039 59.5226 156.999 59.5017C156.959 59.4809 156.913 59.4755 156.869 59.4866L156.732 59.5223C156.694 59.5223 156.732 59.5223 156.732 59.5223H156.591H156.524L156.458 59.5C156.458 59.5 156.416 59.5 156.458 59.5H156.425L156.312 59.433C156.279 59.433 156.336 59.433 156.312 59.433L156.284 59.4107L156.232 59.3616V59.3393C156.232 59.3393 156.232 59.3661 156.232 59.3393L156.194 59.2857V59.2589C156.191 59.2367 156.191 59.2142 156.194 59.192C156.181 59.1509 156.151 59.1163 156.112 59.0955C156.072 59.0747 156.026 59.0692 155.982 59.0804C155.939 59.0919 155.902 59.1187 155.879 59.1553C155.856 59.1919 155.849 59.2354 155.859 59.2768L155.793 59.2366Z" fill="#232426"/>
<path id="Vector_56" d="M141.805 59.9509C140.752 61.9046 139.546 63.7817 138.2 65.567C137.213 66.8071 136.161 67.9991 135.047 69.1384L135.288 69.3705L135.566 69.0446C135.708 68.8839 135.467 68.6518 135.325 68.8125L135.047 69.1384C134.905 69.2991 135.137 69.5268 135.288 69.3705C136.383 68.2187 137.454 67.0536 138.426 65.7991C139.804 63.9872 141.033 62.0784 142.102 60.0893C142.206 59.9018 141.909 59.7366 141.805 59.9241V59.9509Z" fill="#232426"/>
<path id="Vector_57" d="M134.499 59.5804C134.607 59.9518 134.572 60.3475 134.399 60.6962C134.226 61.0449 133.927 61.3237 133.556 61.4822C133.532 61.4909 133.511 61.5043 133.493 61.5215C133.476 61.5388 133.462 61.5594 133.454 61.582C133.446 61.6046 133.443 61.6286 133.445 61.6524C133.448 61.6762 133.456 61.6992 133.468 61.7198C133.481 61.7404 133.499 61.7581 133.519 61.7718C133.54 61.7854 133.564 61.7946 133.589 61.7988C133.614 61.803 133.639 61.8019 133.663 61.7958C133.688 61.7898 133.711 61.7787 133.73 61.7635C134.169 61.5699 134.521 61.2352 134.723 60.819C134.925 60.4028 134.965 59.9323 134.834 59.4911C134.822 59.4497 134.793 59.4147 134.753 59.3937C134.713 59.3728 134.666 59.3677 134.622 59.3795C134.578 59.3914 134.541 59.4192 134.519 59.4569C134.497 59.4946 134.492 59.539 134.504 59.5804H134.499Z" fill="#232426"/>
<path id="Vector_58" d="M149.521 80.2634C148.577 82.759 147.581 85.3393 145.703 87.3661C143.825 89.3929 141.319 90.4911 138.506 90.1697C138.289 90.1697 138.289 90.4733 138.506 90.4956C141.338 90.8259 143.947 89.6876 145.83 87.7188C147.827 85.634 148.86 82.9509 149.856 80.3483C149.931 80.1518 149.596 80.067 149.521 80.2634Z" fill="#232426"/>
<path id="Vector_59" d="M133.438 32.3661L142.338 42.9242C142.612 43.2545 143.098 42.7902 142.81 42.4777L133.924 31.9018C133.65 31.5759 133.164 32.0402 133.452 32.3483L133.438 32.3661Z" fill="white"/>
<path id="Vector_60" d="M131.979 43.75C134.452 44.7591 136.77 46.0758 138.874 47.6652C139.219 47.9286 139.71 47.4687 139.346 47.2187C137.203 45.5873 134.838 44.2359 132.314 43.2009C131.909 43.0357 131.559 43.5937 131.965 43.7634L131.979 43.75Z" fill="white"/>
<path id="Vector_61" d="M183.009 53.3169L189.564 49.2991C189.937 49.0714 189.592 48.5089 189.215 48.7366L182.66 52.7544C182.292 52.9821 182.636 53.5491 183.009 53.3169Z" fill="white"/>
<path id="Vector_62" d="M185.529 57.7501L189.38 57.3036C189.471 57.3014 189.557 57.2663 189.621 57.2057C189.685 57.1451 189.722 57.0635 189.725 56.9777C189.725 56.8913 189.688 56.8084 189.624 56.7473C189.559 56.6862 189.471 56.6519 189.38 56.6519L185.529 57.0983C185.438 57.1005 185.352 57.1356 185.288 57.1962C185.224 57.2569 185.187 57.3385 185.185 57.4242C185.185 57.5106 185.221 57.5935 185.285 57.6546C185.35 57.7157 185.438 57.7501 185.529 57.7501Z" fill="white"/>
<path id="Vector_63" d="M176.284 45.0893L177.799 40.7054C177.941 40.3036 177.275 40.1339 177.139 40.5313L175.624 44.9197C175.482 45.317 176.147 45.4866 176.284 45.0893Z" fill="white"/>
<path id="Vector_64" d="M153.73 41.3215L155.736 34.0358C155.761 33.9523 155.749 33.8631 155.704 33.7877C155.659 33.7124 155.584 33.6571 155.495 33.634C155.407 33.6109 155.313 33.6219 155.233 33.6646C155.154 33.7073 155.095 33.7782 155.071 33.8617L153.089 41.1474C153.077 41.1887 153.073 41.2319 153.079 41.2745C153.084 41.317 153.099 41.3581 153.121 41.3954C153.143 41.4328 153.173 41.4655 153.209 41.4919C153.245 41.5183 153.286 41.5378 153.329 41.5492C153.373 41.5606 153.419 41.5638 153.464 41.5585C153.509 41.5533 153.552 41.5397 153.592 41.5186C153.631 41.4974 153.666 41.4691 153.694 41.4353C153.721 41.4015 153.742 41.3628 153.754 41.3215H153.73Z" fill="white"/>
<path id="Vector_65" d="M51.6335 50.5626C43.4722 51.9489 35.6282 54.668 28.4524 58.5983C21.2631 62.5066 14.8235 67.5357 9.40533 73.4733C6.37639 76.7909 3.70022 80.3826 1.41558 84.1965C1.35916 84.2985 1.34659 84.4172 1.3805 84.5278C1.41442 84.6384 1.49219 84.7323 1.59757 84.7899C1.70295 84.8476 1.8278 84.8644 1.94602 84.837C2.06425 84.8096 2.16671 84.7401 2.23201 84.6429C6.2703 77.9152 11.5089 71.8994 17.716 66.8617C23.9295 61.798 31.0046 57.7663 38.6413 54.9376C42.9206 53.3555 47.3547 52.1771 51.8789 51.4197C52.4783 51.317 52.2234 50.4599 51.6288 50.5581L51.6335 50.5626Z" fill="#0A7A42"/>
<path id="Vector_66" d="M44.1724 70.9822C49.9866 69.6786 55.5506 73.1831 59.2742 77.1117C63.2148 81.2813 65.8245 86.4152 69.869 90.5045C73.9134 94.5938 79.4019 97.1786 85.1831 98.3661C88.3685 99.0582 91.6587 99.2094 94.9001 98.8125C97.9938 98.3305 100.96 97.2876 103.635 95.7411C106.774 94.0224 109.733 91.9822 112.673 89.9777C115.791 87.8587 118.855 85.6697 121.866 83.4108C122.338 83.0536 121.673 82.4286 121.201 82.7813C115.956 86.7823 110.498 90.5268 104.848 94C102.224 95.5804 99.4353 96.9777 96.3867 97.6474C93.061 98.3059 89.6272 98.3059 86.3015 97.6474C80.426 96.5938 74.8148 94.1295 70.6712 89.9867C66.641 85.9688 64.0312 80.9018 60.1944 76.7233C56.2397 72.4152 50.2226 68.6875 43.9412 70.0938C43.3513 70.2277 43.6014 71.0893 44.1913 70.9554L44.1724 70.9822Z" fill="#0A7A42"/>
<path id="Vector_67" d="M86.1929 67.7366C90.5915 74.9071 93.3804 82.8582 94.3856 91.0938C94.6615 93.397 94.7986 95.7133 94.7962 98.0313C94.7962 98.1497 94.8459 98.2632 94.9344 98.3469C95.0229 98.4307 95.1429 98.4777 95.2681 98.4777C95.3933 98.4777 95.5133 98.4307 95.6018 98.3469C95.6903 98.2632 95.74 98.1497 95.74 98.0313C95.7415 89.6488 93.9283 81.3549 90.412 73.6607C89.4106 71.4731 88.2745 69.343 87.0094 67.2813C86.9441 67.1841 86.8416 67.1146 86.7234 67.0872C86.6051 67.0598 86.4803 67.0766 86.3749 67.1343C86.2695 67.1919 86.1918 67.2858 86.1578 67.3964C86.1239 67.507 86.1365 67.6257 86.1929 67.7277V67.7366Z" fill="#0A7A42"/>
<path id="Vector_68" d="M180.984 81.0402C184.458 75.4822 184.264 70.7724 186.081 65.1518C186.125 65.0063 186.129 64.8525 186.093 64.705C186.057 64.5575 185.982 64.421 185.875 64.3085C185.768 64.1961 185.632 64.1112 185.481 64.0619C185.33 64.0126 185.168 64.0005 185.01 64.0268C183.552 64.1295 182.702 64.4286 181.669 66.2322C180.437 68.75 179.748 69.3036 178.464 70.5983C176.973 65.3125 175.211 60.1042 173.179 54.9733C171.956 51.8795 171.201 48.5179 168.521 46.4018C165.689 44.8393 166.411 48.817 166.85 49.3929C165.835 48.0536 165.165 46.7143 163.608 46.0983C163.193 45.9062 162.718 45.8649 162.272 45.9822C161.456 46.2679 161.329 47.2143 161.593 47.9956C161.837 48.7852 162.13 49.5603 162.471 50.317C160.979 49.3483 159.559 50.2054 159.719 51.4688C159.785 52.6799 160.005 53.8791 160.375 55.0402C159.606 54.3527 158.643 54.4063 158.398 55.3795C158.152 56.3527 158.657 57.7545 159.011 58.7009C161.588 65.6027 157.902 72.509 161.097 79.1786C161.376 79.759 162.098 81.2009 162.428 81.7545C163.372 83.3438 169.469 90.5447 177.822 84.3661C177.822 84.3438 179.993 82.625 180.984 81.0402Z" fill="#FFC3B0"/>
<path id="Vector_69" d="M181.159 66.7723C180.6 68.1333 179.682 69.3366 178.493 70.2678C177.323 71.2411 175.907 71.8303 174.67 72.7098C172.589 74.192 171.15 76.5848 171.839 79.0893C171.851 79.1295 171.879 79.1637 171.917 79.1842C171.956 79.2047 172.001 79.2099 172.044 79.1986C172.087 79.1874 172.123 79.1606 172.144 79.1242C172.166 79.0878 172.172 79.0447 172.16 79.0045C171.315 75.9598 173.679 73.5536 176.237 72.1205C178.46 70.8705 180.588 69.2455 181.476 66.8571C181.551 66.6652 181.225 66.5804 181.155 66.7723H181.159Z" fill="#232426"/>
<path id="Vector_70" d="M172.485 60.2992C168.913 61.2371 165.579 62.8532 162.688 65.0491C162.523 65.1786 162.759 65.4018 162.924 65.2724C165.773 63.1133 169.057 61.5246 172.575 60.6027C172.617 60.5915 172.654 60.5647 172.675 60.5283C172.697 60.4919 172.702 60.4488 172.691 60.4085C172.679 60.3683 172.65 60.3341 172.612 60.3136C172.573 60.2931 172.528 60.2879 172.485 60.2992Z" fill="#232426"/>
<path id="Vector_71" d="M163.99 46.5312C166.109 47.9286 166.944 50.3616 167.709 52.5759C168.653 55.3169 169.597 58.0848 169.823 60.9732C169.823 61.1741 170.172 61.1741 170.158 60.9732C169.899 57.9286 168.908 55.0134 167.903 52.1294C167.143 49.9375 166.241 47.6294 164.16 46.2589C163.981 46.1428 163.816 46.4152 163.99 46.5312Z" fill="#232426"/>
<path id="Vector_72" d="M161.031 50.0626C162.239 50.1027 162.971 51.1652 163.499 52.0715C164.138 53.1727 164.685 54.319 165.137 55.5001C166.021 57.7775 166.485 60.1813 166.51 62.6072C166.517 62.6447 166.537 62.6787 166.568 62.7032C166.599 62.7278 166.638 62.7412 166.678 62.7412C166.718 62.7412 166.757 62.7278 166.788 62.7032C166.818 62.6787 166.839 62.6447 166.845 62.6072C166.817 59.8859 166.251 57.1937 165.175 54.6697C164.707 53.4832 164.112 52.3448 163.4 51.2724C162.843 50.4822 162.098 49.7813 161.041 49.7456C160.828 49.7456 160.828 50.0536 161.041 50.0626H161.031Z" fill="#232426"/>
<path id="Vector_73" d="M158.847 54.8081C159.842 54.4063 160.8 55.8036 161.244 56.4509C161.739 57.1776 162.136 57.9606 162.424 58.7813C162.979 60.4177 163.282 62.1212 163.325 63.8393C163.325 64.0402 163.67 64.0402 163.66 63.8393C163.624 61.7911 163.202 59.7653 162.414 57.8572C162.039 57.006 161.539 56.2094 160.928 55.4911C160.39 54.8661 159.602 54.1518 158.691 54.5357C158.497 54.6161 158.667 54.8884 158.861 54.8081H158.847Z" fill="#232426"/>
<path id="Vector_74" d="M172.556 62.9018C172.882 66.2634 169.8 68.7053 167.336 70.6428C167.171 70.7678 167.407 70.9911 167.572 70.8661C170.107 68.8973 173.236 66.3482 172.886 62.9018C172.886 62.7009 172.532 62.7009 172.556 62.9018Z" fill="#232426"/>
<path id="Vector_75" d="M163.028 82.4598C163.028 82.4598 168.691 91.4598 173.056 91.9464C177.422 92.433 184.855 88.375 186.171 84.6517C186.681 83.2366 182.15 78.6026 181.027 75.8928C181.027 75.8928 172.287 89.5134 163.028 82.4598Z" fill="#FFC3B0"/>
<path id="Vector_76" d="M172.405 85.7812C174.533 87.3794 177.412 86.2276 179.012 84.5402C179.943 83.4837 180.744 82.3305 181.4 81.1027C182.155 79.7533 182.797 78.3502 183.321 76.9062C183.396 76.7143 183.071 76.6339 183 76.8259C182.139 79.2878 180.888 81.6119 179.29 83.7187C178.533 84.7614 177.456 85.5592 176.204 86.0044C175.616 86.2176 174.982 86.2884 174.358 86.2104C173.734 86.1325 173.14 85.9082 172.631 85.558C172.466 85.433 172.226 85.6562 172.395 85.7812H172.405Z" fill="#232426"/>
<path id="Vector_77" d="M170.98 93.0625L178.497 103.888C178.832 104.366 179.649 103.92 179.314 103.442L171.782 92.616C171.447 92.1339 170.63 92.5848 170.965 93.0625H170.98Z" fill="#0A7A42"/>
<path id="Vector_78" d="M230.58 69.7411C223.501 77.5759 219.673 87.6786 216.752 97.4599C216.153 99.4688 215.601 101.478 215.03 103.505C214.996 103.619 215.013 103.741 215.075 103.844C215.136 103.947 215.239 104.022 215.36 104.054C215.481 104.085 215.61 104.07 215.719 104.011C215.827 103.952 215.907 103.855 215.94 103.741C218.446 94.8527 221.094 85.9376 225.851 77.8483C227.383 75.1932 229.19 72.6884 231.245 70.3706C231.637 69.9242 230.971 69.3036 230.575 69.7411H230.58Z" fill="#0A7A42"/>
<path id="Vector_79" d="M187.384 83.0045C190.074 85.7723 193.344 88.4955 197.351 89.2545C201.48 90.0536 205.421 88.4286 208.639 86.0804C212.075 83.5714 214.86 80.3438 217.649 77.2277C220.438 74.1116 223.368 70.8661 226.847 68.2991C230.784 65.4005 235.329 63.3278 240.178 62.2187C240.238 62.2032 240.294 62.1767 240.343 62.1407C240.392 62.1047 240.433 62.0599 240.464 62.0089C240.495 61.9579 240.514 61.9017 240.522 61.8435C240.53 61.7853 240.525 61.7262 240.509 61.6696C240.492 61.6131 240.464 61.5601 240.426 61.5138C240.388 61.4675 240.341 61.4287 240.287 61.3997C240.233 61.3706 240.174 61.352 240.112 61.3447C240.051 61.3374 239.988 61.3416 239.928 61.3571C235.782 62.3088 231.846 63.9488 228.305 66.2009C224.779 68.433 221.816 71.308 219.036 74.3304C216.256 77.3527 213.51 80.6696 210.367 83.5045C207.464 86.1161 203.788 88.5714 199.621 88.5848C194.902 88.5848 191.055 85.4598 188.049 82.3348C187.639 81.9152 186.973 82.5446 187.384 82.9688V83.0045Z" fill="#0A7A42"/>
<path id="Vector_80" d="M267.3 53.4687C279.631 55.5977 290.957 61.3027 299.707 69.7928C308.457 78.2829 314.198 89.1377 316.135 100.853C316.23 101.42 317.141 101.179 317.046 100.616C315.062 88.7524 309.236 77.7633 300.37 69.1644C291.505 60.5656 280.038 54.7805 267.55 52.6071C266.956 52.5044 266.705 53.366 267.3 53.4687Z" fill="#0A7A42"/>
<path id="Vector_81" d="M284.101 91.4375C289.208 94.6141 293.047 99.3138 295.007 104.79C295.201 105.335 296.111 105.103 295.918 104.554C293.888 98.8576 289.901 93.9684 284.592 90.6652C284.082 90.3482 283.605 91.1116 284.12 91.4375H284.101Z" fill="#0A7A42"/>
<path id="Vector_82" d="M504.072 51.0001C511.442 51.9499 518.421 54.7096 524.313 59.0045C524.785 59.3527 525.257 58.5804 524.785 58.2322C518.754 53.8604 511.617 51.0591 504.086 50.1072C503.487 50.0313 503.491 50.9286 504.086 51.0001H504.072Z" fill="#0A7A42"/>
<path id="Vector_83" d="M513.68 73.4465C508.597 70.7411 508.192 65.9197 509.749 61.4376C510.026 60.5364 510.509 59.7041 511.165 59.0001C512.581 57.5804 515.044 57.067 515.86 55.2635C516.34 55.4737 516.738 55.8212 516.998 56.257C517.258 56.6927 517.367 57.1947 517.309 57.692C518.281 53.4956 518.069 49.5581 519.999 44.5894C520.22 43.8001 520.754 43.1219 521.491 42.6965C521.814 42.4751 522.184 42.3228 522.576 42.2501C523.558 42.0715 523.458 43.692 523.18 44.5983L521.524 56.7501C521.953 58.576 527.324 48.1474 530.334 45.3617C530.896 44.8394 531.505 44.8081 531.897 45.451C532.17 45.9083 532.298 46.4308 532.265 46.9554C532.118 47.9524 531.738 48.9058 531.151 49.7456L526.432 57.7456C527.744 57.2322 529.136 58.4599 529.579 59.7367C530.023 61.0135 529.957 62.4376 530.608 63.6295C531.005 64.3572 531.646 64.9688 531.93 65.7277C532.279 66.6563 532.057 67.6876 531.722 68.6206C530.965 70.6655 529.699 72.5082 528.03 73.993C526.362 75.4778 524.341 76.5612 522.137 77.1519C520.359 77.6833 518.451 77.6833 516.672 77.1519C514.931 76.5536 514.029 75.009 513.708 73.2858" fill="#FFC3B0"/>
<path id="Vector_84" d="M510.896 74.8616C508.815 78.6518 506.795 82.4956 505.308 86.5357C503.767 90.6032 502.986 94.8934 503.001 99.2143C503.038 101.706 503.355 104.187 503.945 106.616C504.081 107.174 504.992 106.938 504.855 106.375C503.81 102.119 503.65 97.7113 504.383 93.3973C505.174 89.3038 506.534 85.3273 508.428 81.5714C509.447 79.4509 510.561 77.375 511.694 75.3214C511.972 74.8125 511.16 74.3616 510.877 74.875L510.896 74.8616Z" fill="#0A7A42"/>
<path id="Vector_85" d="M528.31 77.5893C529.041 83.0313 530.127 89.4375 535.691 92.3884C535.799 92.4418 535.924 92.4537 536.041 92.4216C536.158 92.3895 536.257 92.316 536.318 92.2163C536.379 92.1166 536.397 91.9985 536.368 91.8866C536.339 91.7748 536.265 91.6779 536.163 91.6161C530.92 88.8393 529.938 82.6875 529.249 77.5893C529.173 77.0268 528.23 77.0224 528.305 77.5893H528.31Z" fill="#0A7A42"/>
<path id="Vector_86" d="M474.841 52.4331C469.804 53.7559 464.986 55.7362 460.527 58.317C456.393 60.7099 452.226 63.5938 449.446 67.4108C447.944 69.4013 447.055 71.7474 446.879 74.1876C446.846 74.7635 447.79 74.7635 447.823 74.1876C448.059 69.8036 451.197 66.2054 454.571 63.4733C458.353 60.4528 462.566 57.952 467.087 56.0447C469.683 54.9391 472.365 54.0242 475.11 53.3081C475.23 53.2767 475.333 53.2012 475.395 53.0983C475.457 52.9953 475.473 52.8732 475.44 52.759C475.407 52.6447 475.327 52.5476 475.218 52.489C475.109 52.4304 474.98 52.4151 474.859 52.4465L474.841 52.4331Z" fill="#0A7A42"/>
<path id="Vector_87" d="M378.69 16.5179C378.479 17.1084 378.412 17.7363 378.494 18.3547C378.575 18.9731 378.804 19.5661 379.162 20.0893C379.889 21.0303 380.919 21.7227 382.097 22.0625C383.404 22.509 384.801 22.7857 386.005 23.4688C387.359 24.2504 388.356 25.4829 388.798 26.9241C388.864 27.1384 389.228 27.0491 389.157 26.8304C388.79 25.6268 388.056 24.5523 387.048 23.7411C386.045 23.0168 384.899 22.4887 383.678 22.1875C382.408 21.8036 381.035 21.4509 380.039 20.567C379.49 20.0682 379.104 19.4309 378.925 18.7307C378.747 18.0305 378.785 17.2967 379.034 16.6161C379.114 16.3974 378.751 16.3081 378.676 16.5224L378.69 16.5179Z" fill="#232426"/>
<path id="Vector_88" d="M371.809 30.1518C371.597 34.5848 371.899 39.3304 374.98 42.9197C375.131 43.0982 375.396 42.8438 375.245 42.6697C372.234 39.1607 371.979 34.4777 372.182 30.1697C372.182 29.942 371.819 29.942 371.809 30.1697V30.1518Z" fill="#232426"/>
<path id="Vector_89" d="M392.003 34.9241C391.763 35.6766 391.736 36.4755 391.925 37.2409C392.114 38.0062 392.512 38.7113 393.079 39.2857C393.621 39.8614 394.317 40.2885 395.094 40.5223C396.175 40.8304 397.307 40.6339 398.397 40.5223C399.695 40.4197 400.974 40.558 401.909 41.5045C402.843 42.4509 402.89 43.7366 402.852 44.9464C402.77 45.9339 402.892 46.9272 403.211 47.8705C403.53 48.6311 404.027 49.3134 404.665 49.8661C405.368 50.503 406.226 50.9658 407.164 51.2135C408.102 51.4612 409.09 51.486 410.04 51.2857C410.276 51.2322 410.177 50.8884 409.941 50.942C409.05 51.1266 408.125 51.0997 407.248 50.8637C406.371 50.6276 405.569 50.1898 404.915 49.5893C404.258 49.0018 403.771 48.2659 403.499 47.4509C403.169 46.4197 403.305 45.3348 403.287 44.2723C403.249 42.558 402.508 40.9152 400.667 40.3438C398.648 39.7143 396.458 40.8973 394.509 39.8973C393.621 39.4348 392.928 38.6991 392.543 37.8124C392.159 36.9257 392.106 35.9412 392.394 35.0223C392.47 34.8036 392.111 34.7098 392.031 34.9286L392.003 34.9241Z" fill="#232426"/>
<path id="Vector_90" d="M386.609 17.2679C387.968 18.6385 389.355 20.4644 391.262 21.1742C392.136 21.4821 393.097 21.4821 393.971 21.1742C394.981 20.8661 396.019 20.3394 397.109 20.5894C399.469 21.134 399.997 23.7679 400.45 25.6519C400.856 27.3304 401.526 29.0536 403.037 30.1161C403.757 30.6374 404.645 30.9085 405.552 30.884C406.855 30.8528 408.143 30.3438 409.427 30.759C409.653 30.8304 409.752 30.4911 409.526 30.4153C407.525 29.7679 405.448 31.1563 403.532 30.0135C401.762 28.9599 401.144 26.9599 400.701 25.1474C400.299 23.4599 399.794 21.6206 398.147 20.6295C397.463 20.2192 396.64 20.0708 395.844 20.2144C394.801 20.3974 393.862 20.9644 392.796 21.0492C391.517 21.1474 390.413 20.4286 389.521 19.6474C388.629 18.8661 387.732 17.8929 386.854 17.009C386.694 16.8394 386.429 17.0938 386.59 17.259L386.609 17.2679Z" fill="#232426"/>
<path id="Vector_91" d="M340.586 67.0134C340.586 67.0134 339.642 63.3616 339.123 61.3884C338.604 59.4152 339.123 57.1474 338.604 57.1474C338.085 57.1474 337.25 56.8527 336.934 58.4286C336.617 60.0045 337.457 61.7858 336.622 61.5893C335.787 61.3929 331.303 58.2322 328.066 57.3438C324.829 56.4554 323.687 56.6518 323.894 57.6384C323.935 57.9073 324.042 58.1635 324.206 58.3867C324.37 58.6098 324.586 58.7939 324.838 58.9241C324.838 58.9241 324.21 59.6116 324.319 61.0938C324.384 61.9839 324.711 62.8392 325.263 63.5625C325.263 63.5625 324.635 63.6608 325.47 65.4375C326.306 67.2143 329.246 69.4822 331.728 70.7634C333.151 71.5169 334.707 72.0191 336.32 72.2456C336.32 72.2456 338.916 68.3036 340.586 67.0134Z" fill="#FFC3B0"/>
<path id="Vector_92" d="M323.583 57.6964C323.781 58.1507 324.072 58.5633 324.44 58.9105C324.808 59.2576 325.245 59.5323 325.725 59.7188C326.91 60.2723 328.184 60.6696 329.411 61.1205C329.633 61.2054 329.732 60.8616 329.51 60.7812C328.363 60.3348 327.179 59.9821 326.065 59.4821C325.173 59.0804 324.272 58.5268 323.941 57.6027C323.866 57.3884 323.503 57.4777 323.583 57.6964Z" fill="#232426"/>
<path id="Vector_93" d="M324.13 60.9331C325.513 62.0447 327.042 62.9825 328.679 63.7233C328.896 63.8215 329.085 63.5179 328.868 63.4197C327.259 62.6927 325.755 61.7729 324.394 60.6831C324.21 60.5358 323.922 60.7858 324.13 60.9331Z" fill="#232426"/>
<path id="Vector_94" d="M324.385 63.2456C325.503 64.3808 326.703 65.4414 327.976 66.4197C328.16 66.5625 328.425 66.3125 328.241 66.1697C326.967 65.1914 325.767 64.1308 324.649 62.9956C324.484 62.8259 324.22 63.0804 324.385 63.2456Z" fill="#232426"/>
</g>
<g id="Layer 6">
<path id="Vector_95" d="M108.935 21.5803C108.319 22.3481 107.538 22.9837 106.643 23.4454C105.748 23.9071 104.76 24.1843 103.744 24.2589C101.705 24.4062 99.7185 24.0223 97.7741 24.7991C94.7255 26.0178 92.8142 28.7768 90.1478 30.5178C88.1684 31.8292 85.7327 32.3725 83.3425 32.0357C83.0263 31.9911 82.8706 32.4509 83.2104 32.4821C85.2685 32.7876 87.3761 32.4754 89.2369 31.5893C90.8226 30.8214 92.1299 29.6428 93.4088 28.4955C94.6877 27.3482 95.9619 26.1607 97.5429 25.4152C98.4561 24.9893 99.4558 24.7548 100.474 24.7277C101.705 24.6875 102.942 24.8393 104.169 24.692C105.194 24.5596 106.18 24.2357 107.072 23.7391C107.963 23.2424 108.741 22.583 109.36 21.7991C109.553 21.5491 109.115 21.3125 108.921 21.5536L108.935 21.5803Z" fill="#242629"/>
<path id="Vector_96" d="M237.97 29.0624C239.763 27.6562 242.217 28.6383 244.058 29.4285C244.355 29.558 244.61 29.1428 244.317 29.0178C242.246 28.1249 239.598 27.1517 237.611 28.7232C237.356 28.9196 237.72 29.2544 237.97 29.0624Z" fill="#232426"/>
<path id="Vector_97" d="M236.064 48.3794C237.94 48.5223 239.82 48.1388 241.467 47.2767C242.265 46.8625 242.994 46.3406 243.633 45.7276C243.978 45.3973 244.27 45.0044 244.648 44.7008C245.026 44.3973 245.818 44.0848 246.21 44.6115C246.394 44.866 246.833 44.6115 246.644 44.3705C246.417 44.0925 246.085 43.9082 245.717 43.8558C245.35 43.8035 244.975 43.887 244.672 44.0892C244.245 44.3746 243.866 44.7192 243.548 45.1115C243.168 45.5136 242.748 45.8799 242.293 46.2053C240.504 47.4686 238.289 48.0718 236.064 47.9017C235.738 47.8749 235.738 48.3482 236.064 48.3794Z" fill="#232426"/>
<path id="Vector_98" d="M500.325 7.30797C500.325 7.30797 506.988 11.8839 507.63 14.9776C508.272 18.0714 508.55 22.0892 507.158 27.7946C505.766 33.4999 500.716 44.0044 500.716 44.0044C500.716 44.0044 482.094 25.8526 486.087 16.3839C490.079 6.91511 500.325 7.30797 500.325 7.30797Z" fill="#232426"/>
<path id="Vector_99" d="M461.608 11.4285C461.079 11.6026 457.535 12.7678 456.723 16.4329C455.511 21.9106 460.749 25.6517 463.368 25.8972C471.523 26.6606 481.868 22.0937 481.868 22.0937C481.868 22.0937 474.793 7.11598 461.608 11.4285Z" fill="url(#paint0_linear_1388_63814)"/>
<path id="Vector_100" d="M472.66 13.9776C471.127 18.7723 470.674 24.4017 470.117 29.3839C469.56 34.366 469.47 37.6919 470.442 42.0848C472.33 50.4999 479.182 51.2678 479.366 51.6651C479.451 51.8437 479.215 52.9687 479.126 56.9776C480.844 59.308 486.205 60.4196 490.839 58.3392C495.473 56.2589 498.39 53.8749 501.788 50.2544C501.278 46.3928 500.688 42.5044 501.132 38.6473C501.16 38.3749 501.698 38.5982 501.835 38.3482C502.017 38.0687 502.247 37.8197 502.515 37.6115C504.478 35.8258 505.025 33.0937 505.346 30.5357C505.534 29.5255 505.504 28.4897 505.257 27.491C504.95 26.5089 504.138 25.6026 503.071 25.4464C502.005 25.2901 500.905 25.9419 500.146 26.7142C499.386 27.4865 498.782 28.4062 497.899 29.0535C497.017 29.7008 495.7 30.0044 494.799 29.3794C494.327 28.9954 493.996 28.4795 493.855 27.9062C492.849 24.9062 493.855 21.4374 492.307 18.6383C491.363 16.9017 489.546 15.7008 487.611 15.0178C485.676 14.3348 483.293 14.9285 481.537 13.8928C479.617 12.7544 478.333 12.4865 476.691 12.5535C475.667 12.5982 473.387 13.183 472.745 13.9419" fill="#FFC3B0"/>
<path id="Vector_101" d="M503.02 27.1875C501.448 28.3222 500.137 29.7487 499.169 31.3794C498.867 31.8928 498.56 32.4643 498.862 33.0402C499.013 33.3303 499.475 33.0759 499.334 32.7857C499.088 32.3393 499.617 31.6562 499.862 31.2723C500.754 29.8609 501.922 28.6231 503.303 27.625C503.572 27.433 503.303 26.9911 503.029 27.1786L503.02 27.1875Z" fill="#232426"/>
<path id="Vector_102" d="M499.4 31.5625C499.696 31.7265 499.939 31.9653 500.101 32.2522C500.263 32.5392 500.337 32.863 500.315 33.1875C500.237 33.9371 499.875 34.6346 499.296 35.1518C499.055 35.3884 499.437 35.7455 499.673 35.5134C500.369 34.8873 500.788 34.0358 500.849 33.1295C500.863 32.7261 500.761 32.3266 500.554 31.9737C500.347 31.6207 500.043 31.3274 499.673 31.125C499.367 30.9732 499.098 31.4107 499.4 31.5714V31.5625Z" fill="#232426"/>
<path id="Vector_103" d="M496.035 38.433C496.491 38.837 497.042 39.1324 497.643 39.2946C498.244 39.4569 498.877 39.4814 499.49 39.366C500.877 39.1517 502.081 38.3482 503.109 37.4821C503.369 37.2633 502.987 36.9062 502.732 37.1205C501.846 37.9486 500.746 38.5427 499.542 38.8437C498.994 38.9695 498.421 38.9653 497.875 38.8313C497.329 38.6974 496.827 38.4378 496.413 38.0758C496.172 37.8437 495.79 38.2053 496.035 38.433Z" fill="#232426"/>
<path id="Vector_104" d="M478.805 51.4553C480.831 51.9669 482.974 51.8702 484.94 51.1785C488.989 49.7767 491.235 47.4865 492.16 45.7321C492.16 45.7321 489.569 51.0222 484.543 54.1562C480.003 56.991 479.008 55.8035 479.008 55.8035L478.805 51.4553Z" fill="#232426"/>
<path id="Vector_105" d="M476.616 25.8342L476.531 26.3503L480.467 26.9281L480.552 26.4119L476.616 25.8342Z" fill="white"/>
<path id="Vector_106" d="M476.799 27.2321C476.189 28.6815 475.581 30.1339 474.977 31.5892C474.35 32.9692 473.894 34.4134 473.618 35.8928C473.453 36.9821 473.524 38.125 474.52 38.8169C475.395 39.3714 476.45 39.6149 477.498 39.5044C477.842 39.5044 477.842 38.9821 477.498 39C476.511 39.0535 475.355 38.9285 474.623 38.2366C473.68 37.3437 474.152 35.7142 474.439 34.6294C475.128 32.1428 476.327 29.7544 477.313 27.366C477.441 27.0625 476.922 26.9196 476.799 27.2321Z" fill="#232426"/>
<path id="Vector_107" d="M480.192 36.4107C480.477 36.6323 480.685 36.9289 480.791 37.2627C480.897 37.5966 480.895 37.9526 480.787 38.2857C480.683 38.5982 481.197 38.7321 481.301 38.4196C481.44 37.9794 481.433 37.5097 481.283 37.0729C481.133 36.636 480.847 36.2525 480.461 35.9732C480.4 35.9389 480.327 35.9291 480.258 35.9458C480.189 35.9626 480.129 36.0045 480.093 36.0625C480.058 36.1213 480.05 36.1906 480.068 36.2556C480.087 36.3206 480.131 36.3762 480.192 36.4107Z" fill="#232426"/>
<path id="Vector_108" d="M474.869 41.2276C475.299 41.8472 475.886 42.3549 476.576 42.7043C477.267 43.0536 478.04 43.2334 478.823 43.2272C479.606 43.221 480.375 43.0289 481.06 42.6687C481.744 42.3084 482.322 41.7915 482.741 41.1651C482.93 40.8928 482.467 40.6384 482.269 40.9107C481.898 41.4613 481.387 41.9155 480.783 42.2322C480.179 42.5489 479.501 42.718 478.811 42.7242C478.121 42.7304 477.439 42.5735 476.829 42.2678C476.219 41.962 475.7 41.517 475.317 40.9732C475.129 40.7053 474.661 40.9732 474.845 41.2276H474.869Z" fill="#232426"/>
<path id="Vector_109" d="M478.182 45.2991C477.859 45.5816 477.6 45.9223 477.418 46.3011C477.236 46.6798 477.136 47.0891 477.124 47.5049C477.112 47.9207 477.187 48.3347 477.346 48.7225C477.505 49.1103 477.744 49.4641 478.05 49.7633C478.3 49.9866 478.678 49.6294 478.427 49.4062C478.168 49.1549 477.964 48.8565 477.83 48.5289C477.695 48.2013 477.632 47.8513 477.645 47.5C477.657 47.1488 477.744 46.8035 477.902 46.4851C478.059 46.1667 478.283 45.8817 478.56 45.6473C478.824 45.4375 478.446 45.0803 478.182 45.2901V45.2991Z" fill="#232426"/>
<path id="Vector_110" d="M473.019 27.6472C473.192 27.5846 473.37 27.5368 473.552 27.5044H473.609C473.646 27.5044 473.632 27.5044 473.566 27.5044C473.614 27.4953 473.664 27.4953 473.713 27.5044C473.799 27.4999 473.886 27.4999 473.972 27.5044C474.057 27.4977 474.142 27.4977 474.227 27.5044C474.085 27.4731 474.227 27.5044 474.279 27.5044H474.387C474.47 27.5225 474.552 27.5449 474.633 27.5713C474.68 27.583 474.726 27.5995 474.77 27.6204C474.656 27.5535 474.793 27.6204 474.822 27.6204C474.937 27.6803 475.072 27.6961 475.199 27.6645C475.327 27.633 475.436 27.5565 475.506 27.4508C475.573 27.3418 475.592 27.212 475.558 27.0899C475.525 26.9678 475.441 26.8632 475.326 26.799C474.93 26.6118 474.497 26.5038 474.055 26.4815C473.612 26.4592 473.17 26.5232 472.754 26.6695C472.63 26.7077 472.524 26.7849 472.452 26.8883C472.386 26.9996 472.368 27.1305 472.401 27.2544C472.438 27.3749 472.523 27.477 472.638 27.5394C472.754 27.6018 472.89 27.6196 473.019 27.5892V27.6472Z" fill="#232426"/>
<path id="Vector_111" d="M484.822 28.6518C484.95 28.6035 485.081 28.5617 485.214 28.5268L485.44 28.4777H485.544C485.629 28.4777 485.478 28.4777 485.544 28.4777C485.683 28.4687 485.821 28.4687 485.96 28.4777H486.167H486.266C486.361 28.4777 486.153 28.4777 486.313 28.4777C486.45 28.4991 486.586 28.5274 486.719 28.5625L486.918 28.6205L487.036 28.6607C487.17 28.7166 487.301 28.7807 487.427 28.8527C487.532 28.9123 487.631 28.9794 487.725 29.0536C487.821 29.1396 487.948 29.1875 488.081 29.1875C488.213 29.1875 488.341 29.1396 488.437 29.0536C488.53 28.9635 488.582 28.8425 488.582 28.7165C488.582 28.5905 488.53 28.4695 488.437 28.3795C487.905 27.9544 487.263 27.6718 486.577 27.5611C485.89 27.4504 485.185 27.5156 484.534 27.75C484.408 27.7863 484.301 27.8674 484.236 27.9763C484.171 28.0852 484.153 28.2136 484.185 28.3348C484.221 28.4558 484.307 28.5583 484.423 28.6201C484.538 28.682 484.675 28.6982 484.803 28.6652L484.822 28.6518Z" fill="#232426"/>
<path id="Vector_112" d="M472.368 23.7545C472.311 23.5268 472.203 23.1875 472.406 23C472.429 22.9738 472.459 22.9535 472.493 22.941C472.527 22.9285 472.563 22.9243 472.599 22.9286C472.651 22.9286 472.67 22.9866 472.689 23.0313C472.733 23.2025 472.758 23.3775 472.764 23.5536C472.78 23.7802 472.869 23.9968 473.019 24.1741C473.189 24.3616 473.453 24.1741 473.491 23.9956C473.577 23.3755 473.916 22.8117 474.435 22.4241L473.987 22.3125L474.459 23.7634C474.476 23.8061 474.506 23.8435 474.544 23.8719C474.582 23.9002 474.627 23.9185 474.675 23.9249C474.723 23.9312 474.772 23.9254 474.817 23.908C474.862 23.8906 474.901 23.8623 474.93 23.8259L475.317 23.0447L474.897 23.0938C474.975 23.1755 475.034 23.2717 475.071 23.3762C475.108 23.4808 475.121 23.5913 475.11 23.7009C475.081 24.0268 475.615 24.0223 475.643 23.7009C475.655 23.5249 475.629 23.3484 475.565 23.1824C475.502 23.0165 475.403 22.8647 475.275 22.7366C475.246 22.7094 475.211 22.6888 475.172 22.6763C475.134 22.6639 475.093 22.6598 475.052 22.6646C475.012 22.6693 474.973 22.6827 474.939 22.7037C474.905 22.7246 474.876 22.7527 474.855 22.7857L474.468 23.567L474.94 23.6295L474.468 22.1786C474.455 22.1368 474.431 22.0989 474.398 22.0685C474.364 22.0382 474.324 22.0163 474.279 22.0051C474.235 21.9939 474.188 21.9937 474.143 22.0046C474.099 22.0154 474.058 22.0369 474.024 22.067C473.406 22.5498 473.012 23.2418 472.925 23.9956L473.397 23.817C473.255 23.6607 473.283 23.3706 473.26 23.1741C473.259 23.039 473.224 22.9061 473.156 22.787C473.089 22.6679 472.991 22.5663 472.873 22.4911C472.711 22.4165 472.526 22.4002 472.352 22.4454C472.178 22.4906 472.028 22.5941 471.929 22.7366C471.823 22.9107 471.761 23.105 471.745 23.3051C471.729 23.5052 471.762 23.7061 471.839 23.8929C471.92 24.2054 472.434 24.0715 472.354 23.7545H472.368Z" fill="#232426"/>
<path id="Vector_113" d="M483.85 25.2455C483.701 24.9856 483.617 24.697 483.604 24.4018C483.604 24.3035 483.604 23.7812 483.812 23.7857C484.02 23.7901 484.067 24.2946 484.105 24.3973L484.425 25.3616C484.451 25.4186 484.497 25.4649 484.556 25.4919C484.615 25.519 484.682 25.5248 484.745 25.5084C484.808 25.492 484.862 25.4545 484.898 25.4028C484.934 25.3511 484.949 25.2889 484.94 25.2277C484.897 24.9706 484.911 24.708 484.98 24.4562C485.049 24.2043 485.172 23.9685 485.341 23.7634L484.921 23.8169C485.168 24.015 485.359 24.2669 485.48 24.5507C485.601 24.8346 485.647 25.142 485.615 25.4464C485.623 25.4948 485.645 25.5399 485.679 25.5766C485.714 25.6132 485.758 25.6397 485.808 25.6529C485.858 25.666 485.911 25.6654 485.96 25.6509C486.009 25.6365 486.053 25.6089 486.087 25.5714L486.445 24.7946L486.625 24.4018C486.625 24.3571 486.719 24.1294 486.78 24.1116C486.733 24.1116 486.809 24.1964 486.832 24.25C486.864 24.349 486.886 24.4506 486.898 24.5535L487.035 25.3839L487.554 25.25C487.465 24.9955 487.715 24.616 488.026 24.7321C488.083 24.7586 488.133 24.7964 488.173 24.843C488.213 24.8896 488.242 24.9438 488.258 25.0019C488.274 25.06 488.276 25.1207 488.264 25.1797C488.253 25.2387 488.228 25.2947 488.191 25.3437C487.993 25.6116 488.456 25.866 488.663 25.6027C488.742 25.4834 488.792 25.3487 488.807 25.2087C488.823 25.0688 488.804 24.9273 488.753 24.7951C488.702 24.6629 488.62 24.5435 488.513 24.4459C488.406 24.3483 488.276 24.2752 488.135 24.2321C487.972 24.1991 487.804 24.2072 487.646 24.2557C487.488 24.3041 487.346 24.3912 487.235 24.5081C487.124 24.6249 487.047 24.7674 487.013 24.9212C486.979 25.075 486.988 25.2346 487.04 25.3839C487.049 25.4161 487.065 25.4463 487.087 25.4728C487.108 25.4992 487.135 25.5213 487.166 25.5379C487.197 25.5545 487.231 25.5652 487.266 25.5694C487.301 25.5736 487.336 25.5713 487.37 25.5625C487.404 25.5537 487.436 25.5386 487.464 25.5182C487.492 25.4977 487.516 25.4722 487.533 25.4432C487.551 25.4142 487.562 25.3822 487.566 25.349C487.571 25.3159 487.568 25.2822 487.559 25.25C487.524 24.8672 487.454 24.4878 487.351 24.116C487.322 23.9913 487.255 23.8773 487.159 23.7878C487.063 23.6982 486.941 23.637 486.809 23.6116C486.474 23.5893 486.304 23.8527 486.19 24.1027L485.629 25.3169L486.129 25.4464C486.165 25.0767 486.107 24.7043 485.961 24.3598C485.815 24.0152 485.585 23.7083 485.289 23.4643C485.26 23.4379 485.225 23.4179 485.186 23.4059C485.148 23.3939 485.107 23.3901 485.067 23.3948C485.027 23.3995 484.988 23.4126 484.954 23.4331C484.92 23.4536 484.891 23.481 484.869 23.5134C484.66 23.775 484.51 24.0745 484.429 24.3933C484.348 24.712 484.337 25.0431 484.397 25.366L484.912 25.2321C484.756 24.7544 484.619 24.2634 484.44 23.7946C484.303 23.4687 483.996 23.183 483.6 23.3214C483.437 23.401 483.301 23.5215 483.206 23.6695C483.111 23.8176 483.061 23.9875 483.062 24.1607C483.026 24.6257 483.132 25.0907 483.368 25.5C483.529 25.7902 483.991 25.5357 483.84 25.2455H483.85Z" fill="#232426"/>
<path id="Vector_114" d="M471.999 30.8616C471.001 30.8616 470.024 30.5814 469.194 30.0565C468.364 29.5316 467.716 28.7856 467.334 27.9128C466.952 27.0399 466.852 26.0795 467.047 25.1529C467.242 24.2263 467.723 23.3751 468.429 22.7071C469.135 22.039 470.035 21.5841 471.014 21.3998C471.994 21.2155 473.009 21.3101 473.932 21.6716C474.854 22.0331 475.643 22.6454 476.198 23.4309C476.753 24.2165 477.049 25.14 477.049 26.0848C477.048 27.3513 476.515 28.5656 475.569 29.4612C474.622 30.3567 473.338 30.8604 471.999 30.8616ZM471.999 22.2589C471.199 22.2589 470.417 22.4833 469.752 22.9037C469.087 23.3241 468.569 23.9216 468.263 24.6207C467.957 25.3198 467.877 26.089 468.033 26.8312C468.189 27.5733 468.574 28.255 469.14 28.7901C469.705 29.3251 470.426 29.6895 471.21 29.8371C471.995 29.9848 472.808 29.909 473.547 29.6194C474.286 29.3299 474.918 28.8395 475.362 28.2103C475.807 27.5812 476.044 26.8415 476.044 26.0848C476.042 25.0704 475.616 24.098 474.858 23.3808C474.1 22.6635 473.072 22.2601 471.999 22.2589Z" fill="white"/>
<path id="Vector_115" d="M485.232 33.4285C484.139 33.4285 483.071 33.1219 482.162 32.5475C481.253 31.9731 480.545 31.1566 480.127 30.2014C479.708 29.2461 479.599 28.195 479.812 27.181C480.025 26.1669 480.552 25.2354 481.325 24.5043C482.098 23.7732 483.082 23.2753 484.154 23.0736C485.226 22.8719 486.337 22.9754 487.347 23.3711C488.357 23.7668 489.22 24.4368 489.827 25.2965C490.435 26.1562 490.759 27.1669 490.759 28.2008C490.757 29.5869 490.175 30.9159 489.139 31.896C488.103 32.8762 486.698 33.4273 485.232 33.4285ZM485.232 23.9285C484.338 23.9285 483.464 24.1794 482.72 24.6496C481.976 25.1197 481.397 25.7879 481.055 26.5697C480.713 27.3514 480.624 28.2116 480.798 29.0413C480.973 29.871 481.404 30.6331 482.037 31.231C482.67 31.829 483.476 32.2359 484.353 32.4004C485.231 32.565 486.14 32.4796 486.966 32.1552C487.792 31.8309 488.498 31.282 488.994 30.5781C489.49 29.8742 489.754 29.0469 489.754 28.2008C489.752 27.0673 489.275 25.9807 488.428 25.1796C487.58 24.3785 486.431 23.9285 485.232 23.9285Z" fill="white"/>
<path id="Vector_116" d="M506.739 22.7678C505.744 22.4893 504.89 21.8806 504.332 21.0535C504.05 20.5937 503.902 20.0716 503.902 19.5401C503.902 19.0086 504.05 18.4866 504.332 18.0267C504.512 17.7609 504.728 17.5178 504.974 17.3035C505.002 17.2455 505.03 17.1919 505.063 17.1383C505.365 16.7336 505.768 16.4065 506.237 16.1866C506.706 15.9668 507.226 15.8612 507.749 15.8794C507.706 15.5892 507.668 15.2991 507.621 14.9866C506.536 8.05352 498.39 3.94638 491.467 4.07138C484.463 4.20084 480.745 7.2812 480.745 7.2812L491.094 22.2589L507.494 25C507.707 24.3579 507.849 23.6966 507.918 23.0267C507.516 22.9843 507.12 22.8974 506.739 22.7678Z" fill="#49D3FF"/>
<path id="Vector_117" d="M490.447 28.8705L498.782 28.0536C499.423 27.9911 499.428 27.0402 498.782 27.1027L490.447 27.9196C489.81 27.9821 489.806 28.933 490.447 28.8705Z" fill="white"/>
<path id="Vector_118" d="M491.103 22.25C490.693 22.1294 482.816 26.9508 479.413 21.7723C476.011 16.5937 472.311 12.6651 466.199 11.3125C464.679 10.9629 463.087 11.003 461.589 11.4285C461.589 11.4285 460.503 11.5848 464.42 10.3303C468.337 9.07584 479.678 7.24995 479.678 7.24995C479.678 7.24995 483.854 5.99102 487.106 10.6607C490.358 15.3303 491.103 22.25 491.103 22.25Z" fill="#49D3FF"/>
<path id="Vector_119" d="M480.896 7.0401C482.386 7.18143 483.83 7.61099 485.138 8.30215C486.446 8.9933 487.59 9.9313 488.499 11.058C490.514 13.5133 491.368 16.6517 491.33 19.7231C491.339 19.7843 491.371 19.8403 491.42 19.881C491.469 19.9216 491.532 19.944 491.597 19.944C491.662 19.944 491.725 19.9216 491.774 19.881C491.823 19.8403 491.855 19.7843 491.863 19.7231C491.897 16.4955 490.971 13.2187 488.834 10.6606C487.877 9.49811 486.679 8.53234 485.314 7.82233C483.95 7.11233 482.446 6.673 480.896 6.53117C480.551 6.50439 480.556 7.01332 480.896 7.0401Z" fill="#232426"/>
<path id="Vector_120" d="M516.691 56.009C517.045 57.0705 517.012 58.2135 516.599 59.2557C516.186 60.2978 515.416 61.1791 514.412 61.759C514.356 61.7929 514.317 61.8452 514.3 61.9055C514.283 61.9658 514.291 62.0297 514.322 62.0848C515.077 63.4643 516.233 64.5982 516.974 65.9866C517.715 67.375 517.918 69.2009 516.502 70.2277C516.252 70.4107 516.502 70.8215 516.752 70.634C518.041 69.6965 518.281 68.0804 517.8 66.6741C517.172 64.8616 515.648 63.5179 514.732 61.8438L514.648 62.1697C515.746 61.5355 516.588 60.5728 517.042 59.4341C517.496 58.2955 517.535 57.046 517.154 55.884C517.054 55.5982 516.573 55.7188 516.682 56.009H516.691Z" fill="#232426"/>
<path id="Vector_121" d="M515.459 57.5446C515.525 57.5446 515.589 57.5197 515.636 57.4753C515.683 57.431 515.709 57.3708 515.709 57.308C515.709 57.2453 515.683 57.1851 515.636 57.1407C515.589 57.0963 515.525 57.0714 515.459 57.0714C515.393 57.0714 515.329 57.0963 515.283 57.1407C515.236 57.1851 515.209 57.2453 515.209 57.308C515.209 57.3708 515.236 57.431 515.283 57.4753C515.329 57.5197 515.393 57.5446 515.459 57.5446Z" fill="#232426"/>
<path id="Vector_122" d="M515.219 57.2231C515.189 57.2368 515.157 57.2458 515.124 57.2499H515.082C515.082 57.2499 515.148 57.2499 515.082 57.2499C515.049 57.2522 515.016 57.2522 514.983 57.2499H514.945H514.855L514.77 57.2231H514.742H514.775C514.761 57.2207 514.747 57.2207 514.733 57.2231L514.648 57.174L514.61 57.1517C514.61 57.1517 514.558 57.116 514.61 57.1517C514.662 57.1874 514.61 57.1517 514.61 57.1517C514.596 57.141 514.584 57.129 514.572 57.116C514.549 57.0974 514.529 57.0764 514.511 57.0535C514.511 57.0312 514.511 57.0535 514.511 57.0535V57.0178C514.492 56.9957 514.477 56.9717 514.464 56.9464C514.462 56.933 514.462 56.9195 514.464 56.9062C514.464 56.866 514.464 56.9553 514.464 56.9062C514.464 56.8571 514.464 56.8571 514.435 56.8258C514.437 56.8095 514.437 56.793 514.435 56.7767C514.435 56.7767 514.435 56.7767 514.435 56.808C514.435 56.8392 514.435 56.808 514.435 56.7767C514.44 56.7432 514.438 56.7091 514.427 56.6767C514.417 56.6443 514.4 56.6144 514.376 56.5889C514.353 56.5634 514.324 56.5429 514.291 56.5289C514.259 56.5149 514.223 56.5077 514.188 56.5077C514.152 56.5077 514.117 56.5149 514.084 56.5289C514.051 56.5429 514.023 56.5634 513.999 56.5889C513.976 56.6144 513.958 56.6443 513.948 56.6767C513.938 56.7091 513.935 56.7432 513.94 56.7767C513.957 56.9375 514.011 57.0928 514.099 57.2313C514.187 57.3698 514.307 57.4881 514.449 57.5778C514.591 57.6674 514.753 57.7261 514.922 57.7497C515.091 57.7733 515.263 57.7612 515.427 57.7142C515.49 57.6975 515.544 57.6576 515.577 57.6032C515.61 57.5489 515.619 57.4844 515.601 57.424C515.582 57.3644 515.54 57.3139 515.483 57.2831C515.426 57.2523 515.358 57.2436 515.294 57.2589L515.219 57.2231Z" fill="#232426"/>
<path id="Vector_123" d="M526.672 57.2544C524.642 57.6969 522.803 58.7155 521.401 60.174C520.731 60.8966 520.249 61.7572 519.992 62.6872C519.736 63.6173 519.712 64.5911 519.924 65.5312C519.999 65.8258 520.481 65.7008 520.396 65.4062C520.201 64.5061 520.238 63.5749 520.504 62.6914C520.77 61.8078 521.258 60.998 521.925 60.3303C523.25 59.0367 524.941 58.1316 526.795 57.7231C526.846 57.6982 526.887 57.6573 526.91 57.6073C526.933 57.5574 526.937 57.5014 526.922 57.4489C526.906 57.3964 526.872 57.3506 526.825 57.3192C526.778 57.2879 526.721 57.2728 526.663 57.2767L526.672 57.2544Z" fill="#232426"/>
<path id="Vector_124" d="M529.948 63.5223C529.032 62.7098 527.687 62.6964 526.508 62.8036C525.219 62.8762 523.978 63.2858 522.921 63.9866C521.997 64.6113 521.368 65.5536 521.17 66.6116C521.08 67.1337 521.127 67.6688 521.31 68.169C521.492 68.6692 521.802 69.1189 522.213 69.4777C522.454 69.6786 522.808 69.3482 522.567 69.1473C522.197 68.8269 521.92 68.4213 521.765 67.9699C521.609 67.5185 521.58 67.0367 521.68 66.5714C521.904 65.6212 522.512 64.7915 523.374 64.2589C524.311 63.6811 525.391 63.3427 526.508 63.2768C527.536 63.183 528.787 63.1384 529.594 63.8527C529.83 64.0625 530.184 63.7277 529.948 63.5223Z" fill="#232426"/>
<path id="Vector_125" d="M528.664 68.0178C527.258 68.1969 525.833 67.8599 524.681 67.0758C524.421 66.8972 524.171 67.3079 524.431 67.482C525.66 68.316 527.178 68.6767 528.678 68.491C528.744 68.4887 528.806 68.4631 528.852 68.4192C528.899 68.3753 528.926 68.3164 528.928 68.2544C528.929 68.2231 528.923 68.1921 528.911 68.1631C528.898 68.1341 528.88 68.1078 528.856 68.0857C528.833 68.0636 528.805 68.0462 528.775 68.0345C528.744 68.0228 528.711 68.0171 528.678 68.0178H528.664Z" fill="#232426"/>
<path id="Vector_126" d="M525.153 68.0178C525.153 68.0937 525.153 68.1696 525.153 68.2455C525.155 68.2678 525.155 68.2902 525.153 68.3125C525.155 68.3467 525.155 68.381 525.153 68.4152C525.121 68.568 525.074 68.7175 525.011 68.8616C524.999 68.9065 525 68.9539 525.016 68.998C525.032 69.0421 525.061 69.0808 525.099 69.1094C525.138 69.138 525.185 69.1551 525.234 69.1587C525.283 69.1622 525.332 69.1521 525.375 69.1294C525.43 69.096 525.472 69.0456 525.493 68.9866C525.624 68.6847 525.693 68.362 525.696 68.0357C525.696 68.0048 525.69 67.9742 525.678 67.9455C525.666 67.9168 525.648 67.8907 525.626 67.8686C525.603 67.8466 525.575 67.8291 525.545 67.8172C525.515 67.8052 525.483 67.7991 525.45 67.7991C525.384 67.7991 525.32 67.824 525.273 67.8684C525.227 67.9128 525.2 67.9729 525.2 68.0357L525.153 68.0178Z" fill="#232426"/>
<path id="Vector_127" d="M526.672 69.7544C526.038 70.0375 525.332 70.1414 524.637 70.0535C523.942 69.9656 523.288 69.6896 522.755 69.2588C522.515 69.058 522.161 69.3928 522.406 69.5937C523.018 70.095 523.772 70.4161 524.574 70.5176C525.377 70.6192 526.193 70.4966 526.923 70.1651C527.21 70.0312 526.96 69.6205 526.672 69.7544Z" fill="#232426"/>
<path id="Vector_128" d="M524.313 58.1115C522.785 56.9124 520.987 56.0616 519.056 55.6249C518.745 55.5535 518.612 56.0088 518.924 56.0713C520.771 56.4842 522.494 57.2921 523.959 58.4329C524.205 58.6249 524.559 58.2945 524.313 58.1026V58.1115Z" fill="#232426"/>
<path id="Vector_129" d="M491.415 105.875L484.038 80.0803C483.73 79.0139 483.064 78.071 482.141 77.3931C481.218 76.7153 480.087 76.3392 478.918 76.3214L428.742 75.7143C428.097 75.7048 427.457 75.8349 426.872 76.0945C426.287 76.3542 425.773 76.7366 425.368 77.2127C424.963 77.6888 424.678 78.2461 424.535 78.842C424.392 79.4379 424.394 80.0569 424.542 80.6518L430.446 104.786L429.974 104.893L424.052 80.7589C423.887 80.0926 423.886 79.3995 424.05 78.733C424.214 78.0665 424.537 77.4446 424.995 76.9151C425.452 76.3861 426.028 75.9607 426.682 75.6702C427.335 75.3797 428.049 75.2315 428.771 75.2366L478.951 75.8482C480.228 75.8679 481.464 76.2789 482.473 77.0195C483.482 77.76 484.21 78.7901 484.548 79.9553L491.924 105.75L491.415 105.875Z" fill="white"/>
<path id="Vector_130" d="M484.199 93.9553L481.042 82.7678C480.714 81.6929 480.028 80.7469 479.086 80.0704C478.143 79.394 476.996 79.0233 475.813 79.0134L424.547 78.4062V77.9241L475.822 78.5312C477.115 78.5435 478.369 78.9498 479.399 79.6896C480.428 80.4294 481.178 81.4635 481.537 82.6384L484.695 93.8303L484.199 93.9553Z" fill="white"/>
</g>
</g>
<defs>
<linearGradient id="paint0_linear_1388_63814" x1="26078.4" y1="585.087" x2="24236" y2="1041.55" gradientUnits="userSpaceOnUse">
<stop stop-color="#1E2022"/>
<stop offset="0.89" stop-color="#0276A2"/>
</linearGradient>
</defs>
</svg>
